<svg xmlns="http://www.w3.org/2000/svg" xmlns:xlink="http://www.w3.org/1999/xlink" viewBox="0 0 495.26 152"><defs><style>.a,.bn{fill:#e6e7e8;}.b{fill:#1791ff;}.c{opacity:0.92;}.d,.h{fill:#fff;}.bq,.br,.bs,.e{fill:none;stroke:#231f20;stroke-miterlimit:10;stroke-width:0.75px;}.aa,.f{fill:#231f20;}.g{fill:#8a8888;}.aa,.ab,.ae,.af,.ag,.ah,.ai,.aj,.ak,.al,.am,.an,.ao,.ap,.aq,.ar,.as,.at,.au,.av,.aw,.ax,.ay,.az,.ba,.bb,.bc,.bd,.be,.bf,.bg,.bh,.bi,.bj,.bk,.bm,.bn,.g,.h,.i,.j,.k,.l,.m,.n,.o,.p,.q,.r,.s,.t,.u,.v,.w,.x{fill-rule:evenodd;}.i{fill:url(#a);}.j{fill:url(#b);}.k{fill:url(#c);}.l{fill:url(#d);}.m{fill:url(#e);}.n{fill:url(#f);}.o{fill:url(#g);}.p{fill:url(#h);}.q{fill:url(#i);}.r{fill:url(#j);}.s{fill:url(#k);}.t{fill:url(#l);}.u{fill:url(#m);}.v{fill:url(#n);}.w{fill:url(#o);}.x{fill:url(#p);}.y{fill:url(#q);}.z{fill:url(#r);}.ab{fill:url(#s);}.ac{fill:#979393;}.ad{fill:#f2f2f2;}.ae{fill:url(#t);}.af{fill:url(#u);}.ag{fill:url(#v);}.ah{fill:url(#w);}.ai{fill:url(#x);}.aj{fill:url(#y);}.ak{fill:url(#z);}.al{fill:url(#aa);}.am{fill:url(#ab);}.an{fill:url(#ac);}.ao{fill:url(#ad);}.ap{fill:url(#ae);}.aq{fill:url(#af);}.ar{fill:url(#ag);}.as{fill:url(#ah);}.at{fill:url(#ai);}.au{fill:url(#aj);}.av{fill:#e9e8e8;}.aw{fill:#eae9e9;}.ax{fill:#ecebeb;}.ay{fill:#edecec;}.az{fill:#efeeee;}.ba{fill:#f0efef;}.bb{fill:#f1f1f1;}.bc{fill:#f3f2f2;}.bd{fill:#f4f3f3;}.be{fill:#f5f5f5;}.bf{fill:#f7f6f6;}.bg{fill:#f8f8f8;}.bh{fill:#faf9f9;}.bi{fill:#fbfbfb;}.bj{fill:#fcfcfc;}.bk{fill:#fefefe;}.bl{fill:url(#ak);}.bm{fill:#404041;}.bo{fill:#6ac28f;}.bp{fill:#f9ec31;}.bq,.br,.bs{stroke-linecap:round;}.br{stroke-dasharray:2.95 1.96;}.bs{stroke-dasharray:3 2;}</style><linearGradient id="a" x1="294.37" y1="124.57" x2="294.37" y2="140.24" gradientUnits="userSpaceOnUse"><stop offset="0" stop-color="#f6f6f6"/><stop offset="0.23" stop-color="#fcfcfc"/><stop offset="0.48" stop-color="#fdfdfd"/><stop offset="0.68" stop-color="#fefefe"/><stop offset="1" stop-color="#fefefe"/></linearGradient><linearGradient id="b" x1="294.37" y1="124.57" x2="294.37" y2="140.24" gradientUnits="userSpaceOnUse"><stop offset="0" stop-color="#ededed"/><stop offset="0.23" stop-color="#f8f8f8"/><stop offset="0.48" stop-color="#fbfbfb"/><stop offset="0.68" stop-color="#fdfdfd"/><stop offset="1" stop-color="#fdfdfd"/></linearGradient><linearGradient id="c" x1="294.37" y1="124.57" x2="294.37" y2="140.24" gradientUnits="userSpaceOnUse"><stop offset="0" stop-color="#e3e4e4"/><stop offset="0.23" stop-color="#f5f5f5"/><stop offset="0.48" stop-color="#f9f9f9"/><stop offset="0.68" stop-color="#fcfcfc"/><stop offset="1" stop-color="#fcfcfc"/></linearGradient><linearGradient id="d" x1="294.37" y1="124.57" x2="294.37" y2="140.24" gradientUnits="userSpaceOnUse"><stop offset="0" stop-color="#dadbdb"/><stop offset="0.23" stop-color="#f1f1f1"/><stop offset="0.48" stop-color="#f7f7f7"/><stop offset="0.68" stop-color="#fbfbfb"/><stop offset="1" stop-color="#fcfcfc"/></linearGradient><linearGradient id="e" x1="294.37" y1="124.57" x2="294.37" y2="140.24" gradientUnits="userSpaceOnUse"><stop offset="0" stop-color="#d1d2d2"/><stop offset="0.23" stop-color="#eee"/><stop offset="0.48" stop-color="#f4f4f4"/><stop offset="0.68" stop-color="#faf9f9"/><stop offset="1" stop-color="#fbfbfb"/></linearGradient><linearGradient id="f" x1="294.37" y1="124.57" x2="294.37" y2="140.24" gradientUnits="userSpaceOnUse"><stop offset="0" stop-color="#c8c9c9"/><stop offset="0.23" stop-color="#eaeaea"/><stop offset="0.48" stop-color="#f2f2f2"/><stop offset="0.68" stop-color="#f9f8f8"/><stop offset="1" stop-color="#fafafa"/></linearGradient><linearGradient id="g" x1="294.37" y1="124.57" x2="294.37" y2="140.24" gradientUnits="userSpaceOnUse"><stop offset="0" stop-color="#bec0c0"/><stop offset="0.23" stop-color="#e7e7e7"/><stop offset="0.48" stop-color="#f0f0f0"/><stop offset="0.68" stop-color="#f8f7f7"/><stop offset="1" stop-color="#f9f9f9"/></linearGradient><linearGradient id="h" x1="294.37" y1="124.57" x2="294.37" y2="140.24" gradientUnits="userSpaceOnUse"><stop offset="0" stop-color="#b5b7b7"/><stop offset="0.23" stop-color="#e3e3e3"/><stop offset="0.48" stop-color="#eee"/><stop offset="0.68" stop-color="#f7f6f6"/><stop offset="1" stop-color="#f8f8f8"/></linearGradient><linearGradient id="i" x1="294.37" y1="124.57" x2="294.37" y2="140.24" gradientUnits="userSpaceOnUse"><stop offset="0" stop-color="#acadad"/><stop offset="0.23" stop-color="#e0e0e0"/><stop offset="0.48" stop-color="#ececec"/><stop offset="0.68" stop-color="#f6f5f5"/><stop offset="1" stop-color="#f7f7f7"/></linearGradient><linearGradient id="j" x1="294.37" y1="124.57" x2="294.37" y2="140.24" gradientUnits="userSpaceOnUse"><stop offset="0" stop-color="#a3a4a4"/><stop offset="0.23" stop-color="#dddcdc"/><stop offset="0.48" stop-color="#eaeaea"/><stop offset="0.68" stop-color="#f5f4f4"/><stop offset="1" stop-color="#f6f6f6"/></linearGradient><linearGradient id="k" x1="294.37" y1="124.57" x2="294.37" y2="140.24" gradientUnits="userSpaceOnUse"><stop offset="0" stop-color="#999b9b"/><stop offset="0.23" stop-color="#d9d9d9"/><stop offset="0.48" stop-color="#e8e8e8"/><stop offset="0.68" stop-color="#f4f3f3"/><stop offset="1" stop-color="#f5f5f5"/></linearGradient><linearGradient id="l" x1="294.37" y1="124.57" x2="294.37" y2="140.24" gradientUnits="userSpaceOnUse"><stop offset="0" stop-color="#909292"/><stop offset="0.23" stop-color="#d6d5d5"/><stop offset="0.48" stop-color="#e6e6e6"/><stop offset="0.68" stop-color="#f3f2f2"/><stop offset="1" stop-color="#f4f4f4"/></linearGradient><linearGradient id="m" x1="294.37" y1="124.57" x2="294.37" y2="140.24" gradientUnits="userSpaceOnUse"><stop offset="0" stop-color="#878989"/><stop offset="0.23" stop-color="#d2d2d2"/><stop offset="0.48" stop-color="#e3e3e3"/><stop offset="0.68" stop-color="#f2f0f0"/><stop offset="1" stop-color="#f4f4f4"/></linearGradient><linearGradient id="n" x1="294.37" y1="124.57" x2="294.37" y2="140.24" gradientUnits="userSpaceOnUse"><stop offset="0" stop-color="#7e8080"/><stop offset="0.23" stop-color="#cfcece"/><stop offset="0.48" stop-color="#e1e1e1"/><stop offset="0.68" stop-color="#f1efef"/><stop offset="1" stop-color="#f3f3f3"/></linearGradient><linearGradient id="o" x1="294.37" y1="124.57" x2="294.37" y2="140.24" gradientUnits="userSpaceOnUse"><stop offset="0" stop-color="#747777"/><stop offset="0.23" stop-color="#cbcbcb"/><stop offset="0.48" stop-color="#dfdfdf"/><stop offset="0.68" stop-color="#f0eeee"/><stop offset="1" stop-color="#f2f2f2"/></linearGradient><linearGradient id="p" x1="294.37" y1="124.57" x2="294.37" y2="140.24" gradientUnits="userSpaceOnUse"><stop offset="0" stop-color="#6b6e6e"/><stop offset="0.23" stop-color="#c8c7c7"/><stop offset="0.48" stop-color="#ddd"/><stop offset="0.68" stop-color="#efeded"/><stop offset="1" stop-color="#f1f1f1"/></linearGradient><linearGradient id="q" x1="294.37" y1="140.85" x2="294.37" y2="143.33" gradientUnits="userSpaceOnUse"><stop offset="0" stop-color="#6b6e6e"/><stop offset="1" stop-color="#eaeae8"/></linearGradient><linearGradient id="r" x1="224.22" y1="77.06" x2="366.16" y2="77.06" gradientUnits="userSpaceOnUse"><stop offset="0" stop-color="#dadada"/><stop offset="1" stop-color="#c3c3c7"/></linearGradient><linearGradient id="s" x1="255.74" y1="74.52" x2="347.06" y2="33.87" gradientUnits="userSpaceOnUse"><stop offset="0" stop-color="#231f20"/><stop offset="1" stop-color="#fff"/></linearGradient><linearGradient id="t" x1="232.13" y1="117.48" x2="358.91" y2="117.48" gradientUnits="userSpaceOnUse"><stop offset="0" stop-color="#dadada"/><stop offset="1" stop-color="#c3c5c8"/></linearGradient><linearGradient id="u" x1="234.18" y1="117.84" x2="356.43" y2="117.84" gradientUnits="userSpaceOnUse"><stop offset="0" stop-color="#dcdcdc"/><stop offset="1" stop-color="#c6c7ca"/></linearGradient><linearGradient id="v" x1="236.24" y1="118.21" x2="353.97" y2="118.21" gradientUnits="userSpaceOnUse"><stop offset="0" stop-color="#ddd"/><stop offset="1" stop-color="#c8cacc"/></linearGradient><linearGradient id="w" x1="238.31" y1="118.57" x2="351.52" y2="118.57" gradientUnits="userSpaceOnUse"><stop offset="0" stop-color="#dfdfdf"/><stop offset="1" stop-color="#cbccce"/></linearGradient><linearGradient id="x" x1="240.39" y1="118.94" x2="349.08" y2="118.94" gradientUnits="userSpaceOnUse"><stop offset="0" stop-color="#e1e1e1"/><stop offset="1" stop-color="#cdced1"/></linearGradient><linearGradient id="y" x1="242.48" y1="119.3" x2="346.66" y2="119.3" gradientUnits="userSpaceOnUse"><stop offset="0" stop-color="#e2e2e2"/><stop offset="1" stop-color="#d0d1d3"/></linearGradient><linearGradient id="z" x1="244.59" y1="119.67" x2="344.26" y2="119.67" gradientUnits="userSpaceOnUse"><stop offset="0" stop-color="#e4e4e4"/><stop offset="1" stop-color="#d2d3d5"/></linearGradient><linearGradient id="aa" x1="246.71" y1="120.04" x2="341.87" y2="120.04" gradientUnits="userSpaceOnUse"><stop offset="0" stop-color="#e5e5e5"/><stop offset="1" stop-color="#d5d5d7"/></linearGradient><linearGradient id="ab" x1="248.85" y1="120.4" x2="339.49" y2="120.4" gradientUnits="userSpaceOnUse"><stop offset="0" stop-color="#e7e7e7"/><stop offset="1" stop-color="#d8d8d9"/></linearGradient><linearGradient id="ac" x1="250.99" y1="120.77" x2="337.12" y2="120.77" gradientUnits="userSpaceOnUse"><stop offset="0" stop-color="#e9e9e9"/><stop offset="1" stop-color="#dadadb"/></linearGradient><linearGradient id="ad" x1="253.15" y1="121.13" x2="334.77" y2="121.13" gradientUnits="userSpaceOnUse"><stop offset="0" stop-color="#eaeaea"/><stop offset="1" stop-color="#dddcdd"/></linearGradient><linearGradient id="ae" x1="255.33" y1="121.5" x2="332.44" y2="121.5" gradientUnits="userSpaceOnUse"><stop offset="0" stop-color="#ececec"/><stop offset="1" stop-color="#dfdedf"/></linearGradient><linearGradient id="af" x1="257.51" y1="121.86" x2="330.12" y2="121.86" gradientUnits="userSpaceOnUse"><stop offset="0" stop-color="#eee"/><stop offset="1" stop-color="#e2e1e2"/></linearGradient><linearGradient id="ag" x1="259.71" y1="122.23" x2="327.81" y2="122.23" gradientUnits="userSpaceOnUse"><stop offset="0" stop-color="#efefef"/><stop offset="1" stop-color="#e4e3e4"/></linearGradient><linearGradient id="ah" x1="261.92" y1="122.59" x2="325.52" y2="122.59" gradientUnits="userSpaceOnUse"><stop offset="0" stop-color="#f1f1f1"/><stop offset="1" stop-color="#e7e5e6"/></linearGradient><linearGradient id="ai" x1="264.14" y1="122.96" x2="323.24" y2="122.96" gradientUnits="userSpaceOnUse"><stop offset="0" stop-color="#f2f2f2"/><stop offset="1" stop-color="#e9e8e8"/></linearGradient><linearGradient id="aj" x1="266.38" y1="123.32" x2="320.98" y2="123.32" gradientUnits="userSpaceOnUse"><stop offset="0" stop-color="#f4f4f4"/><stop offset="1" stop-color="#eceaea"/></linearGradient><linearGradient id="ak" x1="268.56" y1="140.8" x2="320.62" y2="140.8" xlink:href="#r"/></defs><title>covenant-nodes</title><path class="a" d="M176,54.2c-.72,0-1.43,0-2.13.11A56.45,56.45,0,0,0,155,25.76c.06-.66.1-1.32.1-2a21,21,0,0,0-38.2-12.08A56.34,56.34,0,0,0,105.2,7.06a21,21,0,0,0-32,.76,56.29,56.29,0,0,0-16.51,8.53A21,21,0,0,0,21.17,33.83a21,21,0,0,0-9.71,26.72A56.21,56.21,0,0,0,7.57,93.81a21,21,0,0,0,22.21,35.24,56.13,56.13,0,0,0,16.53,8.33,21,21,0,0,0,36.23,7,21,21,0,0,0,22.08-.77c.61,0,1.23,0,1.85,0l.86,0a21,21,0,0,0,28.58-8.27A58.45,58.45,0,0,0,142.1,131h.24a21.06,21.06,0,0,0,20.6-25.25,56.28,56.28,0,0,0,6.86-10.41A21,21,0,1,0,176,54.2Z"/><path class="b" d="M108.86,23.69,92.1,14a6.84,6.84,0,0,0-6.81,0L68.53,23.69a6.79,6.79,0,0,0-3.4,5.89V48.94a6.81,6.81,0,0,0,3.4,5.9l16.76,9.68a6.84,6.84,0,0,0,6.81,0l16.76-9.68a6.81,6.81,0,0,0,3.4-5.9V29.58A6.79,6.79,0,0,0,108.86,23.69Z"/><g class="c"><path class="d" d="M73.12,38.13v-6.9h1.71v6.9Z"/><path class="d" d="M78.86,38.13V35.06c0-.35-.14-.59-.5-.59a1.22,1.22,0,0,0-.83.44v3.22H76v-4.9h1.33l.11.67A2.15,2.15,0,0,1,79,33.13c.91,0,1.39.56,1.39,1.52v3.48Z"/><path class="d" d="M83.44,38.2c-1,0-1.78-.38-1.78-1.63V34.46H81V33.23h.65V31.77l1.5-.24v1.7h.93l.19,1.23H83.16v1.87c0,.39.2.58.6.58a1.44,1.44,0,0,0,.37,0l.18,1.24A2.88,2.88,0,0,1,83.44,38.2Z"/><path class="d" d="M87.26,38.23a2.3,2.3,0,0,1-2.52-2.53,2.31,2.31,0,0,1,2.31-2.57c1.51,0,2.17,1.12,2.17,2.54a3.68,3.68,0,0,1,0,.39h-3a1.08,1.08,0,0,0,1.21,1.07,3.18,3.18,0,0,0,1.61-.52l.15,1.07A3.55,3.55,0,0,1,87.26,38.23Zm-1-3h1.54c0-.74-.31-1.12-.77-1.12S86.28,34.47,86.24,35.23Z"/><path class="d" d="M91.54,35.41v2.72H90v-4.9h1.32l.16,1a1.73,1.73,0,0,1,1.43-1.07l.25,1.54A2.41,2.41,0,0,0,91.54,35.41Z"/><path class="d" d="M95.9,38.19a6,6,0,0,1-2.1-.35V31.15l1.51-.24v2.86a1.82,1.82,0,0,1,1.31-.64c1,0,1.76.76,1.76,2.42C98.38,37.37,97.41,38.19,95.9,38.19Zm.24-3.71a1.14,1.14,0,0,0-.83.47v1.93a1.47,1.47,0,0,0,.56.1c.58,0,1-.36,1-1.33S96.57,34.48,96.14,34.48Z"/><path class="d" d="M100,32.59a.81.81,0,0,1-.86-.81.86.86,0,0,1,1.72,0A.8.8,0,0,1,100,32.59Zm-.76,5.54v-4.9h1.52v4.9Z"/><path class="d" d="M103.88,38.2c-1,0-1.78-.38-1.78-1.63V34.46h-.65V33.23h.65V31.77l1.5-.24v1.7h.93l.19,1.23H103.6v1.87c0,.39.2.58.6.58a1.44,1.44,0,0,0,.37,0l.18,1.24A2.88,2.88,0,0,1,103.88,38.2Z"/><path class="d" d="M82.23,51.21l-2.72-4.12v4.12H77.92V44.32h1.66l2.54,3.86V44.32h1.59v6.89Z"/><path class="d" d="M87,51.31a2.31,2.31,0,0,1-2.34-2.53A2.36,2.36,0,1,1,87,51.31Zm0-3.86c-.58,0-.89.52-.89,1.32s.32,1.33.89,1.33.9-.53.9-1.32S87.55,47.45,87,47.45Z"/><path class="d" d="M92,46.28a2.93,2.93,0,0,1,1,.17V44.24L94.53,44v7.21H93.19l-.1-.64a1.86,1.86,0,0,1-1.41.74c-1,0-1.77-.75-1.77-2.4C89.91,47,90.9,46.28,92,46.28Zm.2,3.7a1.18,1.18,0,0,0,.84-.5V47.61a1.5,1.5,0,0,0-.71-.14c-.5,0-.88.39-.88,1.33S91.75,50,92.18,50Z"/><path class="d" d="M97.85,51.31a2.29,2.29,0,0,1-2.52-2.52,2.31,2.31,0,0,1,2.31-2.57c1.51,0,2.17,1.12,2.17,2.54a3.68,3.68,0,0,1,0,.39h-3A1.08,1.08,0,0,0,98,50.22a3.18,3.18,0,0,0,1.61-.52l.15,1.06A3.55,3.55,0,0,1,97.85,51.31Zm-1-3h1.54c-.05-.74-.31-1.12-.77-1.12S96.87,47.56,96.83,48.32Z"/></g><path class="b" d="M148.86,83.69,132.1,74a6.84,6.84,0,0,0-6.81,0l-16.76,9.68a6.79,6.79,0,0,0-3.4,5.89v19.36a6.81,6.81,0,0,0,3.4,5.9l16.76,9.68a6.84,6.84,0,0,0,6.81,0l16.76-9.68a6.81,6.81,0,0,0,3.4-5.9V89.58A6.79,6.79,0,0,0,148.86,83.69Z"/><g class="c"><path class="d" d="M113.12,98.13v-6.9h1.71v6.9Z"/><path class="d" d="M118.86,98.13V95.06c0-.35-.14-.59-.5-.59a1.22,1.22,0,0,0-.83.44v3.22H116v-4.9h1.33l.11.67a2.15,2.15,0,0,1,1.53-.77c.91,0,1.39.56,1.39,1.52v3.48Z"/><path class="d" d="M123.44,98.2c-1,0-1.78-.38-1.78-1.63V94.46H121V93.23h.65V91.77l1.5-.24v1.7h.93l.19,1.23h-1.12v1.87c0,.39.2.58.6.58a1.44,1.44,0,0,0,.37,0l.18,1.24A2.88,2.88,0,0,1,123.44,98.2Z"/><path class="d" d="M127.26,98.23a2.56,2.56,0,0,1-.21-5.1c1.51,0,2.17,1.12,2.17,2.54a3.68,3.68,0,0,1,0,.39h-3a1.08,1.08,0,0,0,1.21,1.07,3.18,3.18,0,0,0,1.61-.52l.15,1.07A3.55,3.55,0,0,1,127.26,98.23Zm-1-3h1.54c0-.74-.31-1.12-.77-1.12S126.28,94.47,126.24,95.23Z"/><path class="d" d="M131.54,95.41v2.72H130v-4.9h1.32l.16,1a1.73,1.73,0,0,1,1.43-1.07l.25,1.54A2.41,2.41,0,0,0,131.54,95.41Z"/><path class="d" d="M135.9,98.19a6,6,0,0,1-2.1-.35V91.15l1.51-.24v2.86a1.82,1.82,0,0,1,1.31-.64c1,0,1.76.76,1.76,2.42C138.38,97.37,137.41,98.19,135.9,98.19Zm.24-3.71a1.14,1.14,0,0,0-.83.47v1.93a1.47,1.47,0,0,0,.56.1c.58,0,1-.36,1-1.33S136.57,94.48,136.14,94.48Z"/><path class="d" d="M140,92.59a.81.81,0,0,1-.86-.81.86.86,0,0,1,1.72,0A.8.8,0,0,1,140,92.59Zm-.76,5.54v-4.9h1.52v4.9Z"/><path class="d" d="M143.88,98.2c-1,0-1.78-.38-1.78-1.63V94.46h-.65V93.23h.65V91.77l1.5-.24v1.7h.93l.19,1.23H143.6v1.87c0,.39.2.58.6.58a1.44,1.44,0,0,0,.37,0l.18,1.24A2.88,2.88,0,0,1,143.88,98.2Z"/><path class="d" d="M122.23,111.21l-2.72-4.12v4.12h-1.59v-6.89h1.66l2.54,3.86v-3.86h1.59v6.89Z"/><path class="d" d="M127,111.31a2.31,2.31,0,0,1-2.34-2.53,2.36,2.36,0,1,1,2.34,2.53Zm0-3.86c-.58,0-.89.52-.89,1.32s.32,1.33.89,1.33.9-.53.9-1.32S127.55,107.45,127,107.45Z"/><path class="d" d="M132,106.28a2.93,2.93,0,0,1,1,.17v-2.21l1.51-.24v7.21h-1.34l-.1-.64a1.86,1.86,0,0,1-1.41.74c-1,0-1.77-.75-1.77-2.4C129.91,107,130.9,106.28,132,106.28Zm.2,3.7a1.18,1.18,0,0,0,.84-.5v-1.87a1.5,1.5,0,0,0-.71-.14c-.5,0-.88.39-.88,1.33S131.75,110,132.18,110Z"/><path class="d" d="M137.85,111.31a2.29,2.29,0,0,1-2.52-2.52,2.31,2.31,0,0,1,2.31-2.57c1.51,0,2.17,1.12,2.17,2.54a3.68,3.68,0,0,1,0,.39h-3a1.08,1.08,0,0,0,1.21,1.07,3.18,3.18,0,0,0,1.61-.52l.15,1.06A3.55,3.55,0,0,1,137.85,111.31Zm-1-3h1.54c-.05-.74-.31-1.12-.77-1.12S136.87,107.56,136.83,108.32Z"/></g><path class="e" d="M74.44,60.56a25,25,0,0,0-10.6,17.89"/><path class="f" d="M76.36,59.36a11.68,11.68,0,0,1-3.66.27l1.52,1.13.44,1.85A11,11,0,0,1,76.36,59.36Z"/><path class="f" d="M63.71,80.72a11.31,11.31,0,0,0-1.56-3.33l1.74.77,1.82-.52A11.35,11.35,0,0,0,63.71,80.72Z"/><path class="e" d="M113.55,78.45A25,25,0,0,0,103,60.56"/><path class="f" d="M113.68,80.72a11.31,11.31,0,0,1,1.56-3.33l-1.74.77-1.82-.52A11.35,11.35,0,0,1,113.68,80.72Z"/><path class="f" d="M101,59.36a11.68,11.68,0,0,0,3.66.27l-1.52,1.13-.44,1.85A11,11,0,0,0,101,59.36Z"/><path class="e" d="M74,101.34a25,25,0,0,0,29.32,0"/><path class="f" d="M72.26,99.93a11.35,11.35,0,0,1,1.43,3.38l.59-1.8,1.61-1A11.19,11.19,0,0,1,72.26,99.93Z"/><path class="f" d="M105.13,99.93a11.35,11.35,0,0,0-1.43,3.38l-.59-1.8-1.61-1A11.19,11.19,0,0,0,105.13,99.93Z"/><path class="b" d="M68.86,83.69,52.1,74a6.84,6.84,0,0,0-6.81,0L28.53,83.69a6.79,6.79,0,0,0-3.4,5.89v19.36a6.81,6.81,0,0,0,3.4,5.9l16.76,9.68a6.84,6.84,0,0,0,6.81,0l16.76-9.68a6.81,6.81,0,0,0,3.4-5.9V89.58A6.79,6.79,0,0,0,68.86,83.69Z"/><g class="c"><path class="d" d="M33.12,98.13v-6.9h1.71v6.9Z"/><path class="d" d="M38.86,98.13V95.06c0-.35-.14-.59-.5-.59a1.22,1.22,0,0,0-.83.44v3.22H36v-4.9h1.33l.11.67A2.15,2.15,0,0,1,39,93.13c.91,0,1.39.56,1.39,1.52v3.48Z"/><path class="d" d="M43.44,98.2c-1,0-1.78-.38-1.78-1.63V94.46H41V93.23h.65V91.77l1.5-.24v1.7h.93l.19,1.23H43.16v1.87c0,.39.2.58.6.58a1.44,1.44,0,0,0,.37,0l.18,1.24A2.88,2.88,0,0,1,43.44,98.2Z"/><path class="d" d="M47.26,98.23a2.56,2.56,0,0,1-.21-5.1c1.51,0,2.17,1.12,2.17,2.54a3.68,3.68,0,0,1,0,.39h-3a1.08,1.08,0,0,0,1.21,1.07,3.18,3.18,0,0,0,1.61-.52l.15,1.07A3.55,3.55,0,0,1,47.26,98.23Zm-1-3h1.54c-.05-.74-.31-1.12-.77-1.12S46.28,94.47,46.24,95.23Z"/><path class="d" d="M51.54,95.41v2.72H50v-4.9h1.32l.16,1a1.73,1.73,0,0,1,1.43-1.07l.25,1.54A2.41,2.41,0,0,0,51.54,95.41Z"/><path class="d" d="M55.9,98.19a6,6,0,0,1-2.1-.35V91.15l1.51-.24v2.86a1.82,1.82,0,0,1,1.31-.64c1,0,1.76.76,1.76,2.42C58.38,97.37,57.41,98.19,55.9,98.19Zm.24-3.71a1.14,1.14,0,0,0-.83.47v1.93a1.47,1.47,0,0,0,.56.1c.58,0,1-.36,1-1.33S56.57,94.48,56.14,94.48Z"/><path class="d" d="M60,92.59a.81.81,0,0,1-.86-.81.86.86,0,0,1,1.72,0A.8.8,0,0,1,60,92.59Zm-.76,5.54v-4.9h1.52v4.9Z"/><path class="d" d="M63.88,98.2c-1.05,0-1.78-.38-1.78-1.63V94.46h-.65V93.23h.65V91.77l1.5-.24v1.7h.93l.19,1.23H63.6v1.87c0,.39.2.58.6.58a1.44,1.44,0,0,0,.37,0l.18,1.24A2.88,2.88,0,0,1,63.88,98.2Z"/><path class="d" d="M42.23,111.21l-2.72-4.12v4.12H37.92v-6.89h1.66l2.54,3.86v-3.86h1.59v6.89Z"/><path class="d" d="M47,111.31a2.31,2.31,0,0,1-2.34-2.53A2.36,2.36,0,1,1,47,111.31Zm0-3.86c-.58,0-.89.52-.89,1.32s.32,1.33.89,1.33.9-.53.9-1.32S47.55,107.45,47,107.45Z"/><path class="d" d="M52,106.28a2.93,2.93,0,0,1,1,.17v-2.21l1.51-.24v7.21H53.19l-.1-.64a1.86,1.86,0,0,1-1.41.74c-1,0-1.77-.75-1.77-2.4C49.91,107,50.9,106.28,52,106.28Zm.2,3.7a1.18,1.18,0,0,0,.84-.5v-1.87a1.5,1.5,0,0,0-.71-.14c-.5,0-.88.39-.88,1.33S51.75,110,52.18,110Z"/><path class="d" d="M57.85,111.31a2.29,2.29,0,0,1-2.52-2.52,2.31,2.31,0,0,1,2.31-2.57c1.51,0,2.17,1.12,2.17,2.54a3.68,3.68,0,0,1,0,.39h-3A1.08,1.08,0,0,0,58,110.22a3.18,3.18,0,0,0,1.61-.52l.15,1.06A3.55,3.55,0,0,1,57.85,111.31Zm-1-3h1.54c0-.74-.31-1.12-.77-1.12S56.87,107.56,56.83,108.32Z"/></g><path class="g" d="M319.82,140.27c1,0,1,2.5,0,2.55-16.55.8-32.61.6-49.13.6-1,0-1-1.86,0-1.94C287.18,140.06,303.34,140.27,319.82,140.27Z"/><path class="h" d="M268.56,140.41c5.88-4,8.67-6.22,9.32-15.84h33c.65,9.62,3.44,11.79,9.32,15.84Z"/><path class="i" d="M269,140.41c5.8-4,8.54-6.22,9.18-15.84h32.48c.65,9.62,3.39,11.79,9.18,15.84Z"/><path class="j" d="M269.35,140.41c5.7-4,8.4-6.22,9-15.84h32c.64,9.62,3.34,11.79,9,15.84Z"/><path class="k" d="M269.74,140.41c5.61-4,8.27-6.22,8.9-15.84h31.47c.62,9.62,3.28,11.79,8.89,15.84Z"/><path class="l" d="M270.14,140.41c5.52-4,8.13-6.22,8.75-15.84h31c.61,9.62,3.23,11.79,8.75,15.84Z"/><path class="m" d="M270.53,140.41c5.43-4,8-6.22,8.61-15.84h30.47c.6,9.62,3.17,11.79,8.6,15.84Z"/><path class="n" d="M270.93,140.41c5.34-4,7.87-6.22,8.46-15.84h30c.6,9.62,3.13,11.79,8.47,15.84Z"/><path class="o" d="M271.32,140.41c5.25-4,7.74-6.22,8.32-15.84H309.1c.59,9.62,3.07,11.79,8.33,15.84Z"/><path class="p" d="M271.72,140.41c5.16-4,7.6-6.22,8.18-15.84h29c.57,9.62,3,11.79,8.18,15.84Z"/><path class="q" d="M272.11,140.41c5.07-4,7.47-6.22,8-15.84H308.6c.56,9.62,3,11.79,8,15.84Z"/><path class="r" d="M272.5,140.41c5-4,7.35-6.22,7.9-15.84h28c.55,9.62,2.91,11.79,7.89,15.84Z"/><path class="s" d="M272.9,140.41c4.89-4,7.21-6.22,7.75-15.84h27.44c.55,9.62,2.87,11.79,7.76,15.84Z"/><path class="t" d="M273.29,140.41c4.81-4,7.08-6.22,7.61-15.84h26.94c.54,9.62,2.81,11.79,7.61,15.84Z"/><path class="u" d="M273.69,140.41c4.71-4,6.94-6.22,7.47-15.84h26.43c.52,9.62,2.76,11.79,7.47,15.84Z"/><path class="v" d="M274.08,140.41c4.63-4,6.81-6.22,7.33-15.84h25.93c.51,9.62,2.7,11.79,7.32,15.84Z"/><path class="w" d="M274.48,140.41c4.53-4,6.68-6.22,7.18-15.84h25.43c.5,9.62,2.65,11.79,7.18,15.84Z"/><path class="x" d="M274.87,140.41c4.44-4,6.55-6.22,7-15.84h24.92c.5,9.62,2.6,11.79,7.05,15.84Z"/><rect class="y" x="268.56" y="140.41" width="51.63" height="2.94"/><rect class="z" x="224.22" y="29.55" width="140.77" height="95.02" rx="5.28" ry="5.28"/><path class="aa" d="M229.5,29.92H359.71A5.3,5.3,0,0,1,365,35.2v73.91H224.22V35.2A5.3,5.3,0,0,1,229.5,29.92Z"/><path class="ab" d="M229.5,29.92h53.21l22.88,79.19H224.22V35.2A5.3,5.3,0,0,1,229.5,29.92Z"/><rect class="ac" x="224.22" y="107.94" width="140.77" height="1.16"/><rect class="ad" x="224.22" y="109.11" width="140.77" height="0.76"/><path class="ae" d="M293.26,110.56c35.95,0,66.45,9,66.45,13.84H229.49C229.49,119.53,257.31,110.56,293.26,110.56Z"/><path class="af" d="M293.34,111.31c34.68,0,64.06,8.45,64.06,13.07H231.8C231.8,119.76,258.67,111.31,293.34,111.31Z"/><path class="ag" d="M293.43,112.06c33.4,0,61.66,7.93,61.66,12.29h-121C234.12,120,260,112.06,293.43,112.06Z"/><path class="ah" d="M293.51,112.82c32.13,0,59.27,7.4,59.27,11.51H236.43C236.43,120.22,261.39,112.82,293.51,112.82Z"/><path class="ai" d="M293.6,113.57c30.84,0,56.87,6.89,56.87,10.74H238.74C238.74,120.46,262.75,113.57,293.6,113.57Z"/><path class="aj" d="M293.68,114.33c29.57,0,54.47,6.36,54.47,10H241.05C241.05,120.69,264.11,114.33,293.68,114.33Z"/><path class="ak" d="M293.76,115.08c28.3,0,52.08,5.84,52.08,9.18H243.36C243.36,120.92,265.47,115.08,293.76,115.08Z"/><path class="al" d="M293.85,115.83c27,0,49.68,5.33,49.68,8.41H245.68C245.68,121.16,266.83,115.83,293.85,115.83Z"/><path class="am" d="M293.93,116.59c25.74,0,47.29,4.8,47.29,7.62H248C248,121.39,268.19,116.59,293.93,116.59Z"/><path class="an" d="M294,117.34c24.46,0,44.89,4.28,44.89,6.85H250.3C250.3,121.62,269.55,117.34,294,117.34Z"/><path class="ao" d="M294.1,118.1c23.19,0,42.49,3.75,42.49,6.07h-84C252.61,121.85,270.91,118.1,294.1,118.1Z"/><path class="ap" d="M294.18,118.85c21.91,0,40.1,3.24,40.1,5.29H254.92C254.92,122.09,272.27,118.85,294.18,118.85Z"/><path class="aq" d="M294.27,119.6c20.63,0,37.7,2.72,37.7,4.52H257.24C257.24,122.32,273.63,119.6,294.27,119.6Z"/><path class="ar" d="M294.35,120.36c19.36,0,35.31,2.19,35.31,3.74H259.55C259.55,122.55,275,120.36,294.35,120.36Z"/><path class="as" d="M294.44,121.11c18.08,0,32.91,1.67,32.91,3H261.86C261.86,122.78,276.35,121.11,294.44,121.11Z"/><path class="at" d="M294.52,121.87c16.8,0,30.52,1.15,30.52,2.18H264.17C264.17,123,277.72,121.87,294.52,121.87Z"/><path class="au" d="M294.6,122.62c15.53,0,28.12.63,28.12,1.41H266.48C266.48,123.25,279.08,122.62,294.6,122.62Z"/><path class="av" d="M294.2,136.05c10.74,0,19.85,2.81,19.85,4.34H275.16C275.16,138.86,283.46,136.05,294.2,136.05Z"/><path class="aw" d="M294.23,136.29c10.35,0,19.13,2.64,19.13,4.09H275.85C275.85,138.93,283.87,136.29,294.23,136.29Z"/><path class="ax" d="M294.25,136.52c10,0,18.42,2.49,18.42,3.85H276.54C276.54,139,284.28,136.52,294.25,136.52Z"/><path class="ay" d="M294.28,136.76c9.59,0,17.7,2.32,17.7,3.61H277.23C277.23,139.08,284.68,136.76,294.28,136.76Z"/><path class="az" d="M294.3,137c9.22,0,17,2.16,17,3.37H277.92C277.92,139.15,285.09,137,294.3,137Z"/><path class="ba" d="M294.33,137.23c8.83,0,16.27,2,16.27,3.12h-32C278.61,139.22,285.5,137.23,294.33,137.23Z"/><path class="bb" d="M294.35,137.46c8.45,0,15.56,1.83,15.56,2.88H279.3C279.3,139.29,285.9,137.46,294.35,137.46Z"/><path class="bc" d="M294.38,137.69c8.07,0,14.84,1.68,14.84,2.65H280C280,139.37,286.31,137.69,294.38,137.69Z"/><path class="bd" d="M294.4,137.93c7.69,0,14.13,1.51,14.13,2.4H280.68C280.68,139.44,286.71,137.93,294.4,137.93Z"/><path class="be" d="M294.43,138.16c7.3,0,13.41,1.35,13.41,2.16H281.37C281.37,139.51,287.12,138.16,294.43,138.16Z"/><path class="bf" d="M294.45,138.4c6.93,0,12.7,1.18,12.7,1.91H282.06C282.06,139.58,287.53,138.4,294.45,138.4Z"/><path class="bg" d="M294.48,138.63c6.54,0,12,1,12,1.68h-23.7C282.75,139.65,287.93,138.63,294.48,138.63Z"/><path class="bh" d="M294.5,138.87c6.17,0,11.26.85,11.26,1.43H283.44C283.44,139.72,288.34,138.87,294.5,138.87Z"/><path class="bi" d="M294.53,139.1c5.78,0,10.54.7,10.54,1.19H284.13C284.13,139.8,288.75,139.1,294.53,139.1Z"/><path class="bj" d="M294.55,139.34c5.4,0,9.83.53,9.83.94H284.82C284.82,139.87,289.15,139.34,294.55,139.34Z"/><path class="bk" d="M294.58,139.57c5,0,9.11.37,9.11.7H285.51C285.51,139.94,289.56,139.57,294.58,139.57Z"/><path class="h" d="M294.6,139.8c4.64,0,8.4.21,8.4.47H286.2C286.2,140,290,139.8,294.6,139.8Z"/><rect class="bl" x="268.56" y="140.41" width="51.63" height="0.77"/><rect class="f" x="224.22" y="107.43" width="140.77" height="0.52"/><rect class="f" x="268.56" y="142.87" width="51.63" height="0.48"/><polygon class="bm" points="226.86 103.97 226.86 34.38 362.35 34.38 361.85 34.88 227.36 34.88 227.36 103.47 226.86 103.97"/><polygon class="bn" points="226.86 103.97 227.36 103.47 361.85 103.47 361.85 34.88 362.35 34.38 362.35 103.97 226.86 103.97"/><rect class="b" x="227.36" y="34.88" width="134.49" height="68.59"/><path class="d" d="M266.58,65.18v-6.9h1.71v6.9Z"/><path class="d" d="M272.32,65.18V62.11c0-.35-.14-.59-.5-.59A1.22,1.22,0,0,0,271,62v3.22h-1.51v-4.9h1.33l.11.67a2.15,2.15,0,0,1,1.53-.77c.91,0,1.39.56,1.39,1.52v3.48Z"/><path class="d" d="M276.9,65.25c-1,0-1.78-.38-1.78-1.63V61.51h-.65V60.28h.65V58.82l1.5-.24v1.7h.93l.19,1.23h-1.12v1.87c0,.39.2.58.6.58a1.44,1.44,0,0,0,.37-.05l.18,1.24A2.88,2.88,0,0,1,276.9,65.25Z"/><path class="d" d="M280.72,65.28a2.56,2.56,0,0,1-.21-5.1c1.51,0,2.17,1.12,2.17,2.54a3.68,3.68,0,0,1,0,.39h-3a1.08,1.08,0,0,0,1.21,1.07,3.18,3.18,0,0,0,1.61-.52l.15,1.07A3.55,3.55,0,0,1,280.72,65.28Zm-1-3h1.54c-.05-.74-.31-1.12-.77-1.12S279.74,61.52,279.7,62.28Z"/><path class="d" d="M285,62.46v2.72h-1.51v-4.9h1.32l.16,1a1.73,1.73,0,0,1,1.43-1.07l.25,1.54A2.41,2.41,0,0,0,285,62.46Z"/><path class="d" d="M289.36,65.24a6,6,0,0,1-2.1-.35V58.2l1.51-.24v2.86a1.82,1.82,0,0,1,1.31-.64c1,0,1.76.76,1.76,2.42C291.84,64.42,290.87,65.24,289.36,65.24Zm.24-3.71a1.14,1.14,0,0,0-.83.47v1.93a1.47,1.47,0,0,0,.56.1c.58,0,1-.36,1-1.33S290,61.53,289.6,61.53Z"/><path class="d" d="M293.46,59.64a.81.81,0,0,1-.86-.81.86.86,0,0,1,1.72,0A.8.8,0,0,1,293.46,59.64Zm-.76,5.54v-4.9h1.52v4.9Z"/><path class="d" d="M297.34,65.25c-1,0-1.78-.38-1.78-1.63V61.51h-.65V60.28h.65V58.82l1.5-.24v1.7H298l.19,1.23h-1.12v1.87c0,.39.2.58.6.58a1.44,1.44,0,0,0,.37-.05l.18,1.24A2.88,2.88,0,0,1,297.34,65.25Z"/><path class="d" d="M305.43,65.18l-2.72-4.13v4.13h-1.59v-6.9h1.66l2.54,3.86V58.28h1.58v6.9Z"/><path class="d" d="M310.16,65.28a2.32,2.32,0,0,1-2.34-2.54,2.36,2.36,0,1,1,2.34,2.54Zm0-3.87c-.58,0-.89.52-.89,1.32s.32,1.33.89,1.33.9-.53.9-1.32S310.75,61.41,310.17,61.41Z"/><path class="d" d="M315.18,60.24a2.93,2.93,0,0,1,1,.17V58.2l1.51-.24v7.22h-1.34l-.1-.64a1.89,1.89,0,0,1-1.41.74c-1,0-1.77-.76-1.77-2.41C313.11,61,314.1,60.24,315.18,60.24Zm.2,3.7a1.18,1.18,0,0,0,.84-.5V61.57a1.5,1.5,0,0,0-.71-.14c-.5,0-.88.39-.88,1.33S315,63.94,315.38,63.94Z"/><path class="d" d="M321.05,65.28a2.56,2.56,0,0,1-.21-5.1c1.51,0,2.17,1.12,2.17,2.54a3.68,3.68,0,0,1,0,.39h-3a1.08,1.08,0,0,0,1.21,1.07,3.18,3.18,0,0,0,1.61-.52l.15,1.07A3.55,3.55,0,0,1,321.05,65.28Zm-1-3h1.54c-.05-.74-.31-1.12-.77-1.12S320.07,61.52,320,62.28Z"/><line class="e" x1="198.48" y1="69.52" x2="221.96" y2="69.52"/><path class="f" d="M196.22,69.52a11,11,0,0,1,3.2,1.78l-.64-1.78.64-1.79A11.24,11.24,0,0,1,196.22,69.52Z"/><path class="f" d="M224.22,69.52A11,11,0,0,0,221,71.3l.65-1.78L221,67.73A11.3,11.3,0,0,0,224.22,69.52Z"/><path class="bo" d="M290.75,71.9a.6.6,0,0,0-.26,0,10.83,10.83,0,0,0-2.37,1.39.66.66,0,0,0,.81,1A9.49,9.49,0,0,1,291,73.16a.66.66,0,0,0-.26-1.26Z"/><path class="bo" d="M292.67,71.54a.67.67,0,0,0-.08.42.65.65,0,0,0,.74.56,9.26,9.26,0,0,1,2.41,0,.66.66,0,1,0,.16-1.31,11,11,0,0,0-2.75,0A.67.67,0,0,0,292.67,71.54Z"/><path class="bo" d="M304.38,77.82a.56.56,0,0,0-.05-.25,10.55,10.55,0,0,0-1.4-2.38.64.64,0,0,0-.92-.11.65.65,0,0,0-.12.92,9.49,9.49,0,0,1,1.23,2.08.65.65,0,0,0,.86.35A.66.66,0,0,0,304.38,77.82Z"/><path class="bo" d="M304.35,85.06a.68.68,0,0,0-.32-.28.66.66,0,0,0-.86.37,9.3,9.3,0,0,1-1.19,2.1.66.66,0,0,0,.13.92A.67.67,0,0,0,303,88a10.5,10.5,0,0,0,1.35-2.4A.65.65,0,0,0,304.35,85.06Z"/><path class="bo" d="M304.74,79.74a.62.62,0,0,0-.42-.09.66.66,0,0,0-.57.75,9.26,9.26,0,0,1,0,2.41.66.66,0,0,0,.57.74.68.68,0,0,0,.74-.58,10.55,10.55,0,0,0,0-2.75A.64.64,0,0,0,304.74,79.74Z"/><path class="bo" d="M296.52,91.16a.66.66,0,0,0-.66-.32,9.26,9.26,0,0,1-2.41,0,.66.66,0,0,0-.17,1.31,10.63,10.63,0,0,0,2.76,0,.66.66,0,0,0,.56-.75A.62.62,0,0,0,296.52,91.16Z"/><path class="bo" d="M287.28,75.37a.61.61,0,0,0-.17-.19.67.67,0,0,0-.93.13,10.85,10.85,0,0,0-1.36,2.39.66.66,0,0,0,.36.86.65.65,0,0,0,.86-.36,9.51,9.51,0,0,1,1.2-2.1A.67.67,0,0,0,287.28,75.37Z"/><path class="bo" d="M291.44,90.52a.57.57,0,0,0-.33-.28A9.44,9.44,0,0,1,289,89a.66.66,0,0,0-.8,1.06,10.92,10.92,0,0,0,2.4,1.36.67.67,0,0,0,.86-.36A.65.65,0,0,0,291.44,90.52Z"/><path class="bo" d="M287.35,87.43a.22.22,0,0,0-.05-.08,9.18,9.18,0,0,1-1.2-2.06.68.68,0,0,0-.87-.36.64.64,0,0,0-.36.85l0,0a10.62,10.62,0,0,0,1.37,2.34.67.67,0,0,0,.93.12A.65.65,0,0,0,287.35,87.43Z"/><path class="bo" d="M298,71.93a.68.68,0,0,0-.28.32.65.65,0,0,0,.36.86,9.65,9.65,0,0,1,2.1,1.19.67.67,0,0,0,.93-.13.65.65,0,0,0-.13-.92,10.75,10.75,0,0,0-2.4-1.36A.65.65,0,0,0,298,71.93Z"/><path class="bo" d="M301.36,89.48a.67.67,0,0,0-1.07-.52,9.49,9.49,0,0,1-2.08,1.23.66.66,0,0,0-.35.86.65.65,0,0,0,.87.35A10.49,10.49,0,0,0,301.1,90,.65.65,0,0,0,301.36,89.48Z"/><path class="bo" d="M285.45,83v-.09a9.55,9.55,0,0,1,0-2.39.66.66,0,0,0-.57-.74.63.63,0,0,0-.73.56v0a10.69,10.69,0,0,0,0,2.71.66.66,0,0,0,1.31-.09Z"/><circle class="bo" cx="294.6" cy="81.68" r="8.25"/><polygon class="bp" points="293.44 77.22 294.66 77.97 295.87 77.22 296.55 78.47 297.97 78.43 297.93 79.86 299.18 80.53 298.44 81.75 299.18 82.96 297.93 83.64 297.97 85.06 296.55 85.02 295.87 86.27 294.66 85.53 293.44 86.27 292.77 85.02 291.34 85.06 291.38 83.64 290.13 82.96 290.88 81.75 290.13 80.53 291.38 79.86 291.34 78.43 292.77 78.47 293.44 77.22"/><polygon class="bp" points="293.44 77.22 294.66 77.97 295.87 77.22 296.55 78.47 297.97 78.43 297.93 79.86 299.18 80.53 298.44 81.75 299.18 82.96 297.93 83.64 297.97 85.06 296.55 85.02 295.87 86.27 294.66 85.53 293.44 86.27 292.77 85.02 291.34 85.06 291.38 83.64 290.13 82.96 290.88 81.75 290.13 80.53 291.38 79.86 291.34 78.43 292.77 78.47 293.44 77.22"/><path class="bo" d="M124.84,63.32a.6.6,0,0,0-.26,0,10.71,10.71,0,0,0-2.37,1.4.66.66,0,0,0-.12.92.67.67,0,0,0,.93.12,9.08,9.08,0,0,1,2.08-1.22.67.67,0,0,0,.35-.87A.66.66,0,0,0,124.84,63.32Z"/><path class="bo" d="M126.76,63a.67.67,0,0,0-.08.42.65.65,0,0,0,.74.56,9.34,9.34,0,0,1,2.42,0,.65.65,0,0,0,.73-.57.67.67,0,0,0-.57-.74,10.62,10.62,0,0,0-2.76,0A.66.66,0,0,0,126.76,63Z"/><path class="bo" d="M138.47,69.25a.58.58,0,0,0-.05-.26,10.55,10.55,0,0,0-1.4-2.38.66.66,0,0,0-1,.81,9.49,9.49,0,0,1,1.23,2.08.66.66,0,0,0,1.26-.25Z"/><path class="bo" d="M138.44,76.49a.65.65,0,0,0-.32-.29.67.67,0,0,0-.86.37,9.09,9.09,0,0,1-1.19,2.1.66.66,0,0,0,.13.92.67.67,0,0,0,.93-.13,10.29,10.29,0,0,0,1.35-2.4A.64.64,0,0,0,138.44,76.49Z"/><path class="bo" d="M138.83,71.16a.67.67,0,0,0-.42-.08.65.65,0,0,0-.56.74,9.72,9.72,0,0,1,0,2.41.66.66,0,0,0,.57.74.67.67,0,0,0,.74-.58,10.55,10.55,0,0,0,0-2.75A.66.66,0,0,0,138.83,71.16Z"/><path class="bo" d="M130.61,82.58a.66.66,0,0,0-.66-.32,9.26,9.26,0,0,1-2.41,0,.67.67,0,0,0-.74.57.65.65,0,0,0,.57.74,10.62,10.62,0,0,0,2.76,0,.66.66,0,0,0,.56-.75A.75.75,0,0,0,130.61,82.58Z"/><path class="bo" d="M121.37,66.8a.65.65,0,0,0-.17-.2.67.67,0,0,0-.93.13,10.92,10.92,0,0,0-1.36,2.4.66.66,0,1,0,1.23.49,8.82,8.82,0,0,1,1.19-2.09A.67.67,0,0,0,121.37,66.8Z"/><path class="bo" d="M125.53,81.94a.68.68,0,0,0-.32-.28,9.65,9.65,0,0,1-2.1-1.19.65.65,0,0,0-.92.12.66.66,0,0,0,.12.93,10.53,10.53,0,0,0,2.4,1.36.66.66,0,0,0,.82-.94Z"/><path class="bo" d="M121.45,78.85a.35.35,0,0,1,0-.08,8.85,8.85,0,0,1-1.21-2.06.68.68,0,0,0-.87-.36.65.65,0,0,0-.36.85l0,0a10.78,10.78,0,0,0,1.37,2.34.66.66,0,0,0,1.1-.73Z"/><path class="bo" d="M132.09,63.35a.7.7,0,0,0-.28.33.67.67,0,0,0,.36.86,9.21,9.21,0,0,1,2.1,1.18.67.67,0,0,0,.93-.13.66.66,0,0,0-.13-.92,10.75,10.75,0,0,0-2.4-1.36A.65.65,0,0,0,132.09,63.35Z"/><path class="bo" d="M135.45,80.91a.68.68,0,0,0-.14-.41.66.66,0,0,0-.93-.11,9.45,9.45,0,0,1-2.08,1.22.66.66,0,0,0,.52,1.22,10.27,10.27,0,0,0,2.37-1.4A.66.66,0,0,0,135.45,80.91Z"/><path class="bo" d="M119.54,74.45v-.09a9.48,9.48,0,0,1,0-2.38.67.67,0,0,0-.57-.75.64.64,0,0,0-.73.56v0a10.69,10.69,0,0,0,0,2.71.66.66,0,0,0,1.31-.09Z"/><circle class="bo" cx="128.69" cy="73.1" r="8.25"/><polygon class="bp" points="127.53 68.64 128.75 69.39 129.96 68.64 130.64 69.89 132.06 69.86 132.02 71.28 133.27 71.96 132.53 73.17 133.27 74.38 132.02 75.06 132.06 76.48 130.64 76.44 129.96 77.69 128.75 76.95 127.53 77.69 126.86 76.44 125.44 76.48 125.47 75.06 124.22 74.38 124.97 73.17 124.22 71.96 125.47 71.28 125.44 69.86 126.86 69.89 127.53 68.64"/><path class="bo" d="M84.84,3.32a.6.6,0,0,0-.26.05,10.71,10.71,0,0,0-2.37,1.4.66.66,0,0,0-.12.92.67.67,0,0,0,.93.12A9.08,9.08,0,0,1,85.1,4.59a.67.67,0,0,0,.35-.87A.66.66,0,0,0,84.84,3.32Z"/><path class="bo" d="M86.76,3a.67.67,0,0,0-.08.42.65.65,0,0,0,.74.56,9.34,9.34,0,0,1,2.42,0,.65.65,0,0,0,.73-.57A.67.67,0,0,0,90,2.61a10.62,10.62,0,0,0-2.76,0A.66.66,0,0,0,86.76,3Z"/><path class="bo" d="M98.47,9.25a.58.58,0,0,0,0-.26A10.55,10.55,0,0,0,97,6.61a.66.66,0,0,0-1,.81A9.49,9.49,0,0,1,97.21,9.5a.66.66,0,0,0,1.26-.25Z"/><path class="bo" d="M98.44,16.49a.65.65,0,0,0-.32-.29.67.67,0,0,0-.86.37,9.09,9.09,0,0,1-1.19,2.1.66.66,0,0,0,.13.92.67.67,0,0,0,.93-.13,10.29,10.29,0,0,0,1.35-2.4A.64.64,0,0,0,98.44,16.49Z"/><path class="bo" d="M98.83,11.16a.67.67,0,0,0-.42-.08.65.65,0,0,0-.56.74,9.72,9.72,0,0,1,0,2.41.66.66,0,0,0,.57.74.67.67,0,0,0,.74-.58,10.55,10.55,0,0,0,0-2.75A.66.66,0,0,0,98.83,11.16Z"/><path class="bo" d="M90.61,22.58a.66.66,0,0,0-.66-.32,9.26,9.26,0,0,1-2.41,0,.67.67,0,0,0-.74.57.65.65,0,0,0,.57.74,10.62,10.62,0,0,0,2.76,0,.66.66,0,0,0,.56-.75A.75.75,0,0,0,90.61,22.58Z"/><path class="bo" d="M81.37,6.8a.65.65,0,0,0-.17-.2.67.67,0,0,0-.93.13,10.92,10.92,0,0,0-1.36,2.4.66.66,0,0,0,1.23.49,8.82,8.82,0,0,1,1.19-2.09A.67.67,0,0,0,81.37,6.8Z"/><path class="bo" d="M85.53,21.94a.68.68,0,0,0-.32-.28,9.65,9.65,0,0,1-2.1-1.19.65.65,0,0,0-.92.12.66.66,0,0,0,.12.93,10.53,10.53,0,0,0,2.4,1.36.66.66,0,0,0,.82-.94Z"/><path class="bo" d="M81.45,18.85a.35.35,0,0,1,0-.08,8.85,8.85,0,0,1-1.21-2.06.68.68,0,0,0-.87-.36.65.65,0,0,0-.36.85l0,0a10.78,10.78,0,0,0,1.37,2.34.66.66,0,0,0,1.1-.73Z"/><path class="bo" d="M92.09,3.35a.7.7,0,0,0-.28.33.67.67,0,0,0,.36.86,9.21,9.21,0,0,1,2.1,1.18.67.67,0,0,0,.93-.13.66.66,0,0,0-.13-.92,10.75,10.75,0,0,0-2.4-1.36A.65.65,0,0,0,92.09,3.35Z"/><path class="bo" d="M95.45,20.91a.68.68,0,0,0-.14-.41.66.66,0,0,0-.93-.11,9.45,9.45,0,0,1-2.08,1.22.66.66,0,0,0,.52,1.22,10.27,10.27,0,0,0,2.37-1.4A.66.66,0,0,0,95.45,20.91Z"/><path class="bo" d="M79.54,14.45v-.09a9.48,9.48,0,0,1,0-2.38.67.67,0,0,0-.57-.75.64.64,0,0,0-.73.56v0a10.69,10.69,0,0,0,0,2.71.66.66,0,0,0,1.31-.09Z"/><circle class="bo" cx="88.69" cy="13.1" r="8.25"/><polygon class="bp" points="87.53 8.64 88.75 9.39 89.96 8.64 90.64 9.89 92.06 9.86 92.02 11.28 93.27 11.96 92.53 13.17 93.27 14.38 92.02 15.06 92.06 16.48 90.64 16.44 89.96 17.69 88.75 16.95 87.53 17.69 86.86 16.44 85.44 16.48 85.47 15.06 84.22 14.38 84.97 13.17 84.22 11.96 85.47 11.28 85.44 9.86 86.86 9.89 87.53 8.64"/><path class="bo" d="M44.84,62.9a.63.63,0,0,0-.26.05,11.07,11.07,0,0,0-2.37,1.39.66.66,0,0,0,.81,1,9.49,9.49,0,0,1,2.08-1.23.66.66,0,0,0-.26-1.26Z"/><path class="bo" d="M46.76,62.54a.67.67,0,0,0-.08.42.65.65,0,0,0,.74.56,9.34,9.34,0,0,1,2.42,0,.65.65,0,0,0,.73-.58.65.65,0,0,0-.57-.73,11.08,11.08,0,0,0-2.76,0A.67.67,0,0,0,46.76,62.54Z"/><path class="bo" d="M58.47,68.82a.56.56,0,0,0,0-.25A10.55,10.55,0,0,0,57,66.19a.64.64,0,0,0-.92-.11A.65.65,0,0,0,56,67a9.49,9.49,0,0,1,1.23,2.08.65.65,0,0,0,.86.35A.66.66,0,0,0,58.47,68.82Z"/><path class="bo" d="M58.44,76.06a.68.68,0,0,0-.32-.28.66.66,0,0,0-.86.37,9.3,9.3,0,0,1-1.19,2.1.66.66,0,0,0,.13.92.67.67,0,0,0,.93-.13,10.5,10.5,0,0,0,1.35-2.4A.65.65,0,0,0,58.44,76.06Z"/><path class="bo" d="M58.83,70.74a.61.61,0,0,0-.42-.09.66.66,0,0,0-.56.75,9.72,9.72,0,0,1,0,2.41.66.66,0,0,0,.57.74.68.68,0,0,0,.74-.58,10.55,10.55,0,0,0,0-2.75A.64.64,0,0,0,58.83,70.74Z"/><path class="bo" d="M50.61,82.16a.66.66,0,0,0-.66-.32,9.26,9.26,0,0,1-2.41,0,.66.66,0,0,0-.17,1.31,10.62,10.62,0,0,0,2.76,0,.66.66,0,0,0,.56-.75A.62.62,0,0,0,50.61,82.16Z"/><path class="bo" d="M41.37,66.37a.61.61,0,0,0-.17-.19.67.67,0,0,0-.93.13,10.85,10.85,0,0,0-1.36,2.39.66.66,0,0,0,1.23.5,9.09,9.09,0,0,1,1.19-2.1A.67.67,0,0,0,41.37,66.37Z"/><path class="bo" d="M45.53,81.52a.59.59,0,0,0-.32-.28,9.29,9.29,0,0,1-2.1-1.2.66.66,0,0,0-.92.13.67.67,0,0,0,.12.93,10.92,10.92,0,0,0,2.4,1.36.66.66,0,0,0,.86-.36A.65.65,0,0,0,45.53,81.52Z"/><path class="bo" d="M41.45,78.43l-.05-.08a8.85,8.85,0,0,1-1.21-2.06.68.68,0,0,0-.87-.36.64.64,0,0,0-.36.85l0,0a11,11,0,0,0,1.37,2.34.66.66,0,0,0,1.1-.73Z"/><path class="bo" d="M52.09,62.93a.68.68,0,0,0-.28.32.66.66,0,0,0,.36.86,9.65,9.65,0,0,1,2.1,1.19.67.67,0,0,0,.93-.13.65.65,0,0,0-.13-.92,10.75,10.75,0,0,0-2.4-1.36A.65.65,0,0,0,52.09,62.93Z"/><path class="bo" d="M55.45,80.48A.67.67,0,0,0,54.38,80a9.49,9.49,0,0,1-2.08,1.23.66.66,0,1,0,.52,1.21A10.27,10.27,0,0,0,55.19,81,.65.65,0,0,0,55.45,80.48Z"/><path class="bo" d="M39.54,74a.27.27,0,0,0,0-.09,9.55,9.55,0,0,1,0-2.39.66.66,0,0,0-.57-.74.63.63,0,0,0-.73.56v0a10.69,10.69,0,0,0,0,2.71.65.65,0,0,0,.74.56A.64.64,0,0,0,39.54,74Z"/><circle class="bo" cx="48.69" cy="72.68" r="8.25"/><polygon class="bp" points="47.53 68.22 48.75 68.97 49.96 68.22 50.64 69.47 52.06 69.43 52.02 70.86 53.27 71.53 52.53 72.75 53.27 73.96 52.02 74.64 52.06 76.06 50.64 76.02 49.96 77.27 48.75 76.53 47.53 77.27 46.86 76.02 45.44 76.06 45.47 74.64 44.22 73.96 44.97 72.75 44.22 71.53 45.47 70.86 45.44 69.43 46.86 69.47 47.53 68.22"/><path class="bo" d="M437.6,35.89a2.53,2.53,0,0,0-1,.21,42,42,0,0,0-9.5,5.58,2.64,2.64,0,0,0,3.24,4.17A36.87,36.87,0,0,1,438.63,41a2.64,2.64,0,0,0-1-5.07Z"/><path class="bo" d="M445.28,34.46a2.57,2.57,0,0,0-.33,1.69,2.63,2.63,0,0,0,3,2.24,36.68,36.68,0,0,1,9.65-.08,2.64,2.64,0,0,0,.64-5.25,42.79,42.79,0,0,0-11,.1A2.64,2.64,0,0,0,445.28,34.46Z"/><path class="bo" d="M492.13,59.6a2.64,2.64,0,0,0-.21-1,42.42,42.42,0,0,0-5.59-9.5,2.64,2.64,0,0,0-4.16,3.24,37,37,0,0,1,4.89,8.32,2.64,2.64,0,0,0,5.07-1Z"/><path class="bo" d="M492,88.56a2.67,2.67,0,0,0-1.3-1.13,2.63,2.63,0,0,0-3.43,1.46,37.62,37.62,0,0,1-4.75,8.4,2.64,2.64,0,0,0,4.22,3.17,42.37,42.37,0,0,0,5.42-9.59A2.63,2.63,0,0,0,492,88.56Z"/><path class="bo" d="M493.55,67.25a2.63,2.63,0,0,0-3.93,2.65,37.56,37.56,0,0,1,.08,9.65,2.64,2.64,0,0,0,5.24.64,41.92,41.92,0,0,0-.1-11A2.6,2.6,0,0,0,493.55,67.25Z"/><path class="bo" d="M460.68,113a2.65,2.65,0,0,0-2.65-1.29,36.6,36.6,0,0,1-9.64,0,2.64,2.64,0,0,0-.67,5.24,42,42,0,0,0,11,0,2.64,2.64,0,0,0,2.25-3A2.59,2.59,0,0,0,460.68,113Z"/><path class="bo" d="M423.72,49.8A2.68,2.68,0,0,0,423,49a2.64,2.64,0,0,0-3.7.51,42.44,42.44,0,0,0-5.44,9.59,2.64,2.64,0,0,0,4.89,2,36.77,36.77,0,0,1,4.76-8.39A2.66,2.66,0,0,0,423.72,49.8Z"/><path class="bo" d="M440.35,110.38a2.65,2.65,0,0,0-1.29-1.13,37,37,0,0,1-8.38-4.77,2.64,2.64,0,1,0-3.19,4.21,42.41,42.41,0,0,0,9.58,5.45,2.64,2.64,0,0,0,3.28-3.76Z"/><path class="bo" d="M424,98a2.23,2.23,0,0,0-.2-.3A37.11,37.11,0,0,1,419,89.47,2.68,2.68,0,0,0,415.51,88a2.59,2.59,0,0,0-1.42,3.41l.06.15a42.72,42.72,0,0,0,5.5,9.36A2.64,2.64,0,0,0,424,98Z"/><path class="bo" d="M466.6,36a2.61,2.61,0,0,0-1.13,1.29,2.65,2.65,0,0,0,1.46,3.44,37,37,0,0,1,8.4,4.75,2.64,2.64,0,0,0,3.17-4.22,42.41,42.41,0,0,0-9.59-5.43A2.63,2.63,0,0,0,466.6,36Z"/><path class="bo" d="M480,106.24a2.59,2.59,0,0,0-.56-1.62,2.64,2.64,0,0,0-3.7-.46,37.22,37.22,0,0,1-8.31,4.9,2.64,2.64,0,1,0,2.06,4.86,42.08,42.08,0,0,0,9.5-5.6A2.64,2.64,0,0,0,480,106.24Z"/><path class="bo" d="M416.41,80.43a2.17,2.17,0,0,0,0-.36,37.22,37.22,0,0,1-.06-9.55,2.68,2.68,0,0,0-2.29-3,2.59,2.59,0,0,0-2.94,2.24,1,1,0,0,1,0,.16,42.93,42.93,0,0,0,.08,10.86,2.64,2.64,0,0,0,5.25-.36Z"/><circle class="bo" cx="453.01" cy="75.03" r="33"/><polygon class="bp" points="452.01 80.87 453.22 81.61 454.44 80.87 455.11 82.12 456.53 82.08 456.5 83.5 457.75 84.18 457 85.39 457.75 86.6 456.5 87.28 456.53 88.7 455.11 88.67 454.44 89.92 453.22 89.17 452.01 89.92 451.33 88.67 449.91 88.7 449.95 87.28 448.7 86.6 449.44 85.39 448.7 84.18 449.95 83.5 449.91 82.08 451.33 82.12 452.01 80.87"/><path class="d" d="M432.82,70.53h-2.31v-6.9h2.35c1.57,0,2.35.67,2.35,1.79a1.54,1.54,0,0,1-1,1.46,1.6,1.6,0,0,1,1.25,1.66C435.46,69.87,434.46,70.53,432.82,70.53Zm-.08-5.67h-.61v1.56h.57c.64,0,1-.31,1-.81S433.4,64.86,432.74,64.86Zm0,2.66h-.61V69.3h.63c.69,0,1.09-.29,1.09-.88S433.47,67.52,432.74,67.52Z"/><path class="d" d="M436.36,70.53v-7l1.52-.24v7.22Z"/><path class="d" d="M441.05,70.63a2.32,2.32,0,0,1-2.34-2.54,2.36,2.36,0,1,1,2.34,2.54Zm0-3.87c-.58,0-.89.52-.89,1.32s.32,1.33.89,1.33.9-.53.9-1.32S441.64,66.76,441.06,66.76Z"/><path class="d" d="M446.35,70.62a2.27,2.27,0,0,1-2.37-2.5,2.34,2.34,0,0,1,2.44-2.57,2.88,2.88,0,0,1,1.45.37l-.2,1.29a2,2,0,0,0-1.1-.36c-.62,0-1.06.41-1.06,1.23a1.09,1.09,0,0,0,1.1,1.24,2,2,0,0,0,1.12-.37l.18,1.24A2.84,2.84,0,0,1,446.35,70.62Z"/><path class="d" d="M450.25,68.24v2.29h-1.51v-7l1.51-.24v4.32l1.29-2h1.66l-1.56,2.25,1.6,2.5-1.58.22Z"/><path class="d" d="M455.84,70.62a2.27,2.27,0,0,1-2.37-2.5,2.34,2.34,0,0,1,2.44-2.57,2.88,2.88,0,0,1,1.45.37l-.2,1.29a2,2,0,0,0-1.1-.36c-.62,0-1.06.41-1.06,1.23a1.09,1.09,0,0,0,1.1,1.24,2,2,0,0,0,1.12-.37l.18,1.24A2.84,2.84,0,0,1,455.84,70.62Z"/><path class="d" d="M461.07,70.53V67.46c0-.35-.14-.59-.5-.59a1.22,1.22,0,0,0-.83.44v3.22h-1.51v-7l1.51-.24v2.93a2.07,2.07,0,0,1,1.46-.71c.91,0,1.39.56,1.39,1.52v3.48Z"/><path class="d" d="M466.33,70.53l-.1-.61a2,2,0,0,1-1.54.71,1.24,1.24,0,0,1-1.33-1.36c0-1.15.88-1.69,2.8-1.86v-.09c0-.43-.24-.62-.74-.62a3.85,3.85,0,0,0-1.58.37l-.18-1.14a5.08,5.08,0,0,1,2-.38c1.35,0,2,.45,2,1.7v3.28Zm-.17-2.39c-1,.16-1.31.5-1.31.93a.44.44,0,0,0,.48.48,1.27,1.27,0,0,0,.83-.37Z"/><path class="d" d="M469.46,65a.81.81,0,0,1-.86-.81.86.86,0,0,1,1.72,0A.8.8,0,0,1,469.46,65Zm-.76,5.54v-4.9h1.52v4.9Z"/><path class="d" d="M474.13,70.53V67.46c0-.35-.14-.59-.5-.59a1.22,1.22,0,0,0-.83.44v3.22h-1.51v-4.9h1.33l.11.67a2.15,2.15,0,0,1,1.53-.77c.91,0,1.39.56,1.39,1.52v3.48Z"/><path class="d" d="M441.43,96.11a2.23,2.23,0,0,1-2.32-2.49,2.3,2.3,0,0,1,2.37-2.51,2.43,2.43,0,0,1,1.28.32l-.17,1.08a1.63,1.63,0,0,0-1-.4c-.76,0-1.24.58-1.24,1.5s.51,1.5,1.26,1.5a2,2,0,0,0,1.1-.37l.16,1A2.67,2.67,0,0,1,441.43,96.11Z"/><path class="d" d="M444.84,96.1a1.79,1.79,0,1,1,1.66-1.79A1.64,1.64,0,0,1,444.84,96.1Zm0-2.71c-.41,0-.62.36-.62.92s.22.93.62.93.63-.37.63-.92S445.26,93.39,444.85,93.39Z"/><path class="d" d="M448.9,96h-1.06l-1.18-3.36,1.14-.13.63,2.16.62-2.11h1Z"/><path class="d" d="M452,96.1a1.79,1.79,0,0,1-.14-3.57c1.05,0,1.52.78,1.52,1.78a1.87,1.87,0,0,1,0,.27h-2.07a.76.76,0,0,0,.85.75,2.16,2.16,0,0,0,1.12-.37l.11.75A2.48,2.48,0,0,1,452,96.1Zm-.71-2.1h1.08c0-.52-.22-.79-.54-.79S451.32,93.47,451.29,94Z"/><path class="d" d="M455.93,96V93.88c0-.25-.1-.41-.35-.41a.85.85,0,0,0-.58.3V96h-1.06V92.6h.93l.08.47a1.51,1.51,0,0,1,1.07-.54c.64,0,1,.39,1,1.06V96Z"/><path class="d" d="M459.61,96l-.07-.43a1.41,1.41,0,0,1-1.08.5.87.87,0,0,1-.93-.95c0-.81.62-1.19,2-1.31v-.06c0-.3-.16-.43-.52-.43a2.54,2.54,0,0,0-1.1.26l-.13-.8a3.6,3.6,0,0,1,1.4-.27c.94,0,1.41.32,1.41,1.19V96Zm-.12-1.67c-.72.11-.91.35-.91.65a.3.3,0,0,0,.33.33.87.87,0,0,0,.58-.26Z"/><path class="d" d="M463.24,96V93.88c0-.25-.1-.41-.35-.41a.85.85,0,0,0-.58.3V96h-1.06V92.6h.93l.08.47a1.51,1.51,0,0,1,1.07-.54c.64,0,1,.39,1,1.06V96Z"/><path class="d" d="M466.44,96.08c-.73,0-1.24-.27-1.24-1.14V93.46h-.46V92.6h.46v-1l1.05-.16V92.6h.65l.13.86h-.78v1.31c0,.27.14.4.42.4a1.09,1.09,0,0,0,.26,0l.12.87A2,2,0,0,1,466.44,96.08Z"/><line class="bq" x1="301.1" y1="90" x2="302.59" y2="90.22"/><line class="br" x1="304.53" y1="90.51" x2="425.03" y2="108.33"/><line class="bq" x1="426" y1="108.47" x2="427.49" y2="108.69"/><line class="bq" x1="300.98" y1="73.25" x2="302.43" y2="72.88"/><line class="bs" x1="304.37" y1="72.4" x2="424.65" y2="42.29"/><line class="bq" x1="425.62" y1="42.05" x2="427.07" y2="41.68"/></svg>