<svg xmlns="http://www.w3.org/2000/svg" viewBox="0 0 260.5 96.38"><defs><style>.a{fill:none;stroke:#010101;stroke-miterlimit:10;stroke-width:0.5px;}.b,.d{fill:#010101;}.c{fill:#662d91;}.d{opacity:0.1;}.e{fill:#fff;}.f{fill:#231f20;}.g{fill:#6ac28f;}.h{fill:#1791ff;}.i{fill:#f37763;}.j{opacity:0.75;}.k{fill:#f8eb30;}</style></defs><title>covenant-anatomy</title><path class="a" d="M97.73,6.14H12.25a12,12,0,0,0-12,12v67.5a12,12,0,0,0,12,12h236a12,12,0,0,0,12-12V18.14a12,12,0,0,0-12-12H162.77" transform="translate(0 -1.51)"/><path class="b" d="M116.38,10.28c-2.47,0-4-1.65-4-4.27s1.57-4.29,4.07-4.29a4.22,4.22,0,0,1,2.18.54l-.29,1.85a2.78,2.78,0,0,0-1.78-.67c-1.3,0-2.13,1-2.13,2.56s.88,2.57,2.17,2.57a3.49,3.49,0,0,0,1.89-.64l.26,1.72A4.67,4.67,0,0,1,116.38,10.28Z" transform="translate(0 -1.51)"/><path class="b" d="M122.24,10.26a2.78,2.78,0,0,1-2.81-3,2.83,2.83,0,1,1,5.65,0A2.81,2.81,0,0,1,122.24,10.26Zm0-4.64c-.7,0-1.07.62-1.07,1.58s.39,1.6,1.07,1.6,1.08-.64,1.08-1.59S123,5.62,122.25,5.62Z" transform="translate(0 -1.51)"/><path class="b" d="M129.19,10.16h-1.81l-2-5.75,1.94-.23,1.09,3.7,1.06-3.62h1.77Z" transform="translate(0 -1.51)"/><path class="b" d="M134.51,10.26a2.75,2.75,0,0,1-3-3,2.78,2.78,0,0,1,2.77-3.09c1.81,0,2.61,1.35,2.61,3.05,0,.18,0,.37,0,.47h-3.55a1.3,1.3,0,0,0,1.45,1.28,3.82,3.82,0,0,0,1.93-.62l.18,1.28A4.22,4.22,0,0,1,134.51,10.26Zm-1.22-3.6h1.85c-.06-.89-.37-1.34-.93-1.34S133.34,5.75,133.29,6.66Z" transform="translate(0 -1.51)"/><path class="b" d="M141.25,10.14V6.46c0-.42-.17-.71-.6-.71a1.45,1.45,0,0,0-1,.53v3.86h-1.81V4.26h1.59l.14.81a2.56,2.56,0,0,1,1.83-.93c1.09,0,1.67.67,1.67,1.83v4.17Z" transform="translate(0 -1.51)"/><path class="b" d="M147.56,10.14l-.12-.73a2.46,2.46,0,0,1-1.85.85A1.49,1.49,0,0,1,144,8.63c0-1.38,1.05-2,3.35-2.23V6.29c0-.52-.28-.74-.88-.74a4.55,4.55,0,0,0-1.9.44l-.21-1.37a6.16,6.16,0,0,1,2.38-.45c1.62,0,2.42.54,2.42,2v3.93Zm-.21-2.87c-1.23.19-1.57.6-1.57,1.12a.53.53,0,0,0,.58.57,1.5,1.5,0,0,0,1-.44Z" transform="translate(0 -1.51)"/><path class="b" d="M153.77,10.14V6.46c0-.42-.16-.71-.6-.71a1.44,1.44,0,0,0-1,.53v3.86h-1.81V4.26H152l.13.81a2.6,2.6,0,0,1,1.84-.93c1.09,0,1.67.67,1.67,1.83v4.17Z" transform="translate(0 -1.51)"/><path class="b" d="M159.27,10.22c-1.26,0-2.14-.45-2.14-2V5.74h-.77V4.26h.77V2.51l1.8-.29v2h1.12l.23,1.48h-1.35V8a.63.63,0,0,0,.72.7,2.13,2.13,0,0,0,.45-.06l.21,1.48A3.21,3.21,0,0,1,159.27,10.22Z" transform="translate(0 -1.51)"/><path class="c" d="M188.49,36.13V82.9a4.28,4.28,0,0,1-4.26,4.26H141.71a4.27,4.27,0,0,1-4.25-4.26V23.38a4.27,4.27,0,0,1,4.25-4.26h29.77a4.23,4.23,0,0,1,3,1.25l12.76,12.76A4.23,4.23,0,0,1,188.49,36.13Z" transform="translate(0 -1.51)"/><path class="d" d="M187.91,34a4.45,4.45,0,0,0-.67-.88L174.48,20.37a4.45,4.45,0,0,0-.88-.67,4.27,4.27,0,0,0-2.12,3.68v8.5a4.26,4.26,0,0,0,4.25,4.25h8.5A4.27,4.27,0,0,0,187.91,34Z" transform="translate(0 -1.51)"/><path class="e" d="M141.86,38.59a1,1,0,0,1,.88.42l-.25.23a.71.71,0,0,0-.61-.32.94.94,0,0,0,0,1.87.71.71,0,0,0,.61-.32l.25.23a1,1,0,0,1-.88.42,1.27,1.27,0,0,1,0-2.53Z" transform="translate(0 -1.51)"/><path class="e" d="M143.13,39.85a1.2,1.2,0,1,1,1.19,1.27A1.18,1.18,0,0,1,143.13,39.85Zm2,0a.81.81,0,1,0-.81.94A.84.84,0,0,0,145.13,39.85Z" transform="translate(0 -1.51)"/><path class="e" d="M147.76,39.48c0-.42-.22-.56-.54-.56a.92.92,0,0,0-.72.38v1.76h-.37V38.65h.37V39a1.2,1.2,0,0,1,.86-.41.68.68,0,0,1,.77.78v1.69h-.37Z" transform="translate(0 -1.51)"/><path class="e" d="M148.87,40.47a1.07,1.07,0,0,0,.79.35c.37,0,.57-.17.57-.4s-.29-.35-.62-.43-.87-.21-.87-.71.32-.69.9-.69a1.18,1.18,0,0,1,.89.35l-.17.26a.93.93,0,0,0-.72-.31c-.33,0-.54.15-.54.37s.28.31.59.38.91.22.91.75-.33.73-.95.73a1.3,1.3,0,0,1-1-.38Z" transform="translate(0 -1.51)"/><path class="e" d="M151.28,40.56V39h-.4v-.33h.4V38h.38v.66h.49V39h-.49v1.5c0,.18.08.31.24.31a.39.39,0,0,0,.26-.1l.11.28a.62.62,0,0,1-.45.15A.49.49,0,0,1,151.28,40.56Z" transform="translate(0 -1.51)"/><path class="e" d="M154,38.65h.37V39a1,1,0,0,1,.81-.44V39H155a.9.9,0,0,0-.66.38v1.71H154Z" transform="translate(0 -1.51)"/><path class="e" d="M156.67,38.59a1.17,1.17,0,0,1,1.16,1.29V40h-2a.85.85,0,0,0,.87.83,1.08,1.08,0,0,0,.75-.3l.18.24a1.32,1.32,0,0,1-1,.37,1.27,1.27,0,0,1,0-2.53Zm-.8,1.11h1.59a.79.79,0,0,0-.8-.8A.8.8,0,0,0,155.87,39.7Z" transform="translate(0 -1.51)"/><path class="e" d="M160.18,40.7a1,1,0,0,1-.81.42,1.28,1.28,0,0,1,0-2.53,1,1,0,0,1,.81.42V37.73h.38v3.33h-.38Zm0-1.39a.89.89,0,0,0-.72-.39c-.49,0-.78.4-.78.94s.29.93.78.93a.88.88,0,0,0,.72-.38Z" transform="translate(0 -1.51)"/><path class="e" d="M162.94,40.72a1.19,1.19,0,0,1-.86.4.68.68,0,0,1-.77-.77v-1.7h.37v1.59c0,.42.22.55.54.55a.92.92,0,0,0,.72-.37V38.65h.37v2.41h-.37Z" transform="translate(0 -1.51)"/><path class="e" d="M165.13,38.59A1,1,0,0,1,166,39l-.25.23a.71.71,0,0,0-.61-.32.94.94,0,0,0,0,1.87.71.71,0,0,0,.61-.32l.25.23a1,1,0,0,1-.88.42,1.27,1.27,0,0,1,0-2.53Z" transform="translate(0 -1.51)"/><path class="e" d="M167.59,38.59a1.17,1.17,0,0,1,1.16,1.29V40h-2a.85.85,0,0,0,.87.83,1.08,1.08,0,0,0,.75-.3l.18.24a1.32,1.32,0,0,1-1,.37,1.27,1.27,0,0,1,0-2.53Zm-.8,1.11h1.59a.79.79,0,0,0-.8-.8A.8.8,0,0,0,166.79,39.7Z" transform="translate(0 -1.51)"/><path class="e" d="M169.35,38.65h.38V39a1,1,0,0,1,.8-.44V39h-.15a.88.88,0,0,0-.65.38v1.71h-.38Z" transform="translate(0 -1.51)"/><path class="e" d="M172.06,38.78h2.21V39h-2.21Zm0,1h2.21V40h-2.21Z" transform="translate(0 -1.51)"/><path class="e" d="M143.22,45.85a3.77,3.77,0,0,1,.7-2.21l.23.17a4.24,4.24,0,0,0,0,4.07l-.23.18A3.8,3.8,0,0,1,143.22,45.85Z" transform="translate(0 -1.51)"/><path class="e" d="M144.6,46.47a1.07,1.07,0,0,0,.79.35c.37,0,.57-.17.57-.4s-.29-.35-.62-.43-.87-.21-.87-.71.32-.69.9-.69a1.18,1.18,0,0,1,.89.35l-.17.26a.93.93,0,0,0-.72-.31c-.33,0-.54.15-.54.37s.28.31.59.38.91.22.91.75-.33.73-1,.73a1.3,1.3,0,0,1-1-.38Z" transform="translate(0 -1.51)"/><path class="e" d="M147,46.56V45h-.4v-.33h.4V44h.38v.66h.49V45h-.49v1.5c0,.18.08.31.24.31a.39.39,0,0,0,.26-.1L148,47a.62.62,0,0,1-.45.15A.49.49,0,0,1,147,46.56Z" transform="translate(0 -1.51)"/><path class="e" d="M149.92,46.79a1,1,0,0,1-.8.33.81.81,0,0,1-.85-.8.79.79,0,0,1,.85-.79,1,1,0,0,1,.8.33v-.44c0-.32-.26-.51-.61-.51a1,1,0,0,0-.74.34l-.18-.26a1.27,1.27,0,0,1,1-.4c.51,0,.93.23.93.81v1.66h-.37Zm0-.69a.82.82,0,0,0-.67-.3.53.53,0,1,0,0,1.05.82.82,0,0,0,.67-.3Z" transform="translate(0 -1.51)"/><path class="e" d="M151.12,46.56V45h-.4v-.33h.4V44h.37v.66H152V45h-.49v1.5c0,.18.08.31.25.31a.38.38,0,0,0,.25-.1l.11.28a.6.6,0,0,1-.45.15A.49.49,0,0,1,151.12,46.56Z" transform="translate(0 -1.51)"/><path class="e" d="M153.56,44.59a1.17,1.17,0,0,1,1.16,1.29V46h-1.95a.85.85,0,0,0,.87.83,1.07,1.07,0,0,0,.74-.3l.18.24a1.3,1.3,0,0,1-1,.37,1.27,1.27,0,0,1,0-2.53Zm-.79,1.11h1.58a.77.77,0,0,0-.79-.8A.8.8,0,0,0,152.77,45.7Z" transform="translate(0 -1.51)"/><path class="e" d="M155.2,47.54a.74.74,0,0,0,.33-.46h-.07a.24.24,0,0,1-.24-.26.27.27,0,0,1,.26-.27.34.34,0,0,1,.32.38,1,1,0,0,1-.41.76Z" transform="translate(0 -1.51)"/><path class="e" d="M159.24,46.79a1,1,0,0,1-.8.33.8.8,0,0,1-.84-.8.78.78,0,0,1,.84-.79,1,1,0,0,1,.8.33v-.44c0-.32-.26-.51-.61-.51a1,1,0,0,0-.74.34l-.17-.26a1.26,1.26,0,0,1,1-.4c.51,0,.94.23.94.81v1.66h-.38Zm0-.69a.8.8,0,0,0-.66-.3.53.53,0,1,0,0,1.05.8.8,0,0,0,.66-.3Z" transform="translate(0 -1.51)"/><path class="e" d="M161.43,44.59a1.05,1.05,0,0,1,.89.42l-.25.23a.73.73,0,0,0-.62-.32.94.94,0,0,0,0,1.87.73.73,0,0,0,.62-.32l.25.23a1.05,1.05,0,0,1-.89.42,1.27,1.27,0,0,1,0-2.53Z" transform="translate(0 -1.51)"/><path class="e" d="M162.92,46.56V45h-.4v-.33h.4V44h.37v.66h.49V45h-.49v1.5c0,.18.08.31.25.31a.38.38,0,0,0,.25-.1l.11.28a.6.6,0,0,1-.45.15A.49.49,0,0,1,162.92,46.56Z" transform="translate(0 -1.51)"/><path class="e" d="M164.25,44a.25.25,0,1,1,.25.25A.25.25,0,0,1,164.25,44Zm.06.66h.38v2.41h-.38Z" transform="translate(0 -1.51)"/><path class="e" d="M165.3,45.85a1.2,1.2,0,1,1,1.19,1.27A1.18,1.18,0,0,1,165.3,45.85Zm2,0a.81.81,0,1,0-1.6,0,.81.81,0,1,0,1.6,0Z" transform="translate(0 -1.51)"/><path class="e" d="M169.93,45.48c0-.42-.22-.56-.54-.56a.92.92,0,0,0-.72.38v1.76h-.37V44.65h.37V45a1.2,1.2,0,0,1,.86-.41.68.68,0,0,1,.77.78v1.69h-.37Z" transform="translate(0 -1.51)"/><path class="e" d="M170.76,43.81l.23-.17a3.79,3.79,0,0,1,0,4.42l-.23-.18a4.17,4.17,0,0,0,0-4.07Z" transform="translate(0 -1.51)"/><path class="e" d="M173.35,44.78h2.21V45h-2.21Zm0,1h2.21V46h-2.21Z" transform="translate(0 -1.51)"/><path class="e" d="M175.85,46.3l1.88-.91-1.88-.91v-.32l2.2,1.1v.26l-2.2,1.09Z" transform="translate(0 -1.51)"/><path class="e" d="M179.77,47.34v-1c0-.18-.08-.34-.26-.34v-.25c.18,0,.26-.16.26-.35v-1a.65.65,0,0,1,.63-.68h.3V44h-.3a.36.36,0,0,0-.33.4v1a.43.43,0,0,1-.23.44.43.43,0,0,1,.23.44v1.06a.37.37,0,0,0,.33.4h.3V48h-.3A.64.64,0,0,1,179.77,47.34Z" transform="translate(0 -1.51)"/><path class="e" d="M144.18,49.63h.3l-1.19,3.53H143Z" transform="translate(0 -1.51)"/><path class="e" d="M145.66,49.63h.3l-1.19,3.53h-.29Z" transform="translate(0 -1.51)"/><path class="e" d="M147.82,52.56a.29.29,0,0,1,.28.28.28.28,0,0,1-.28.27.27.27,0,0,1-.27-.27A.28.28,0,0,1,147.82,52.56Z" transform="translate(0 -1.51)"/><path class="e" d="M149,52.56a.29.29,0,0,1,.28.28.28.28,0,0,1-.28.27.27.27,0,0,1-.27-.27A.28.28,0,0,1,149,52.56Z" transform="translate(0 -1.51)"/><path class="e" d="M150.12,52.56a.29.29,0,0,1,.28.28.28.28,0,0,1-.28.27.27.27,0,0,1-.27-.27A.28.28,0,0,1,150.12,52.56Z" transform="translate(0 -1.51)"/><path class="e" d="M140.81,59.74a.37.37,0,0,0,.33-.4V58.28a.42.42,0,0,1,.23-.44.42.42,0,0,1-.23-.44v-1a.36.36,0,0,0-.33-.4h-.31v-.28h.31a.64.64,0,0,1,.62.68v1c0,.19.09.35.26.35V58c-.17,0-.26.16-.26.34v1a.64.64,0,0,1-.62.67h-.31v-.27Z" transform="translate(0 -1.51)"/><path class="f" d="M153.49,71.52a2.29,2.29,0,0,0,1.69.72c.62,0,.93-.29.93-.6s-.46-.53-1.08-.68c-.87-.2-2-.43-2-1.63,0-.88.77-1.6,2-1.6a3,3,0,0,1,2.08.74l-.63.83a2.27,2.27,0,0,0-1.53-.58c-.51,0-.78.22-.78.54s.45.47,1.06.62c.88.2,2,.46,2,1.64,0,1-.7,1.72-2.13,1.72a3.11,3.11,0,0,1-2.27-.85Z" transform="translate(0 -1.51)"/><path class="f" d="M162.8,70.7c0-.36-.16-.62-.58-.62a1,1,0,0,0-.8.45v2.61h-1V70.7c0-.36-.16-.62-.58-.62a1.06,1.06,0,0,0-.8.46v2.6h-1V69.28h1v.5a1.7,1.7,0,0,1,1.27-.6,1,1,0,0,1,1.07.71,1.61,1.61,0,0,1,1.32-.71,1,1,0,0,1,1.14,1.17v2.79h-1Z" transform="translate(0 -1.51)"/><path class="f" d="M167.14,72.74a1.6,1.6,0,0,1-1.22.5A1.29,1.29,0,0,1,164.57,72a1.23,1.23,0,0,1,1.35-1.24,1.54,1.54,0,0,1,1.22.48v-.54c0-.39-.33-.65-.85-.65a1.63,1.63,0,0,0-1.12.46l-.39-.68a2.51,2.51,0,0,1,1.69-.61c.88,0,1.69.35,1.69,1.47v2.49h-1Zm0-1a1,1,0,0,0-.81-.33c-.41,0-.73.21-.73.58s.32.57.73.57a1,1,0,0,0,.81-.34Z" transform="translate(0 -1.51)"/><path class="f" d="M169.17,69.28h1v.53a1.63,1.63,0,0,1,1.23-.62v1l-.28,0a1.29,1.29,0,0,0-.95.43v2.55h-1Z" transform="translate(0 -1.51)"/><path class="f" d="M172.25,72.18v-2h-.64v-.89h.64V68.22h1v1.06h.78v.89h-.78v1.74c0,.24.13.42.35.42a.52.52,0,0,0,.35-.11l.22.77a1.3,1.3,0,0,1-.85.25A1,1,0,0,1,172.25,72.18Z" transform="translate(0 -1.51)"/><path class="f" d="M148.07,79.58a2.7,2.7,0,0,1,2.8-2.76,2.45,2.45,0,0,1,2.27,1.3l-1,.48a1.48,1.48,0,0,0-1.3-.77,1.75,1.75,0,0,0,0,3.5,1.47,1.47,0,0,0,1.3-.78l1,.47a2.45,2.45,0,0,1-2.27,1.31A2.69,2.69,0,0,1,148.07,79.58Z" transform="translate(0 -1.51)"/><path class="f" d="M153.55,80.3a2,2,0,1,1,2,2A2,2,0,0,1,153.55,80.3Zm3,0a1,1,0,1,0-2,0,1,1,0,1,0,2,0Z" transform="translate(0 -1.51)"/><path class="f" d="M161,79.9a.63.63,0,0,0-.71-.72,1.11,1.11,0,0,0-.88.46v2.6h-1V78.38h1v.5a1.76,1.76,0,0,1,1.35-.6A1.13,1.13,0,0,1,162,79.51v2.73h-1Z" transform="translate(0 -1.51)"/><path class="f" d="M163.23,81.28v-2h-.64v-.88h.64V77.32h1v1.06H165v.88h-.78V81c0,.24.13.42.35.42a.52.52,0,0,0,.35-.11l.22.77a1.28,1.28,0,0,1-.85.24A1,1,0,0,1,163.23,81.28Z" transform="translate(0 -1.51)"/><path class="f" d="M165.73,78.38h1v.53a1.63,1.63,0,0,1,1.23-.62v1a1.14,1.14,0,0,0-.28,0,1.25,1.25,0,0,0-.95.43v2.55h-1Z" transform="translate(0 -1.51)"/><path class="f" d="M170.93,81.84a1.59,1.59,0,0,1-1.22.49,1.28,1.28,0,0,1-1.35-1.27,1.23,1.23,0,0,1,1.35-1.24,1.54,1.54,0,0,1,1.22.48v-.54c0-.39-.34-.65-.85-.65a1.62,1.62,0,0,0-1.13.46l-.38-.68a2.51,2.51,0,0,1,1.69-.61c.88,0,1.68.35,1.68,1.47v2.49h-1Zm0-1a1,1,0,0,0-.82-.33c-.4,0-.72.21-.72.58s.32.57.72.57a1,1,0,0,0,.82-.34Z" transform="translate(0 -1.51)"/><path class="f" d="M174.75,78.28a1.77,1.77,0,0,1,1.53.71l-.66.61a1,1,0,0,0-.82-.42,1.13,1.13,0,0,0,0,2.25,1,1,0,0,0,.82-.41l.66.61a1.79,1.79,0,0,1-1.53.7,2,2,0,1,1,0-4Z" transform="translate(0 -1.51)"/><path class="f" d="M177.15,81.28v-2h-.64v-.88h.64V77.32h1v1.06H179v.88h-.78V81c0,.24.13.42.35.42a.52.52,0,0,0,.35-.11l.22.77a1.28,1.28,0,0,1-.85.24A1,1,0,0,1,177.15,81.28Z" transform="translate(0 -1.51)"/><path class="e" d="M153,71a2.29,2.29,0,0,0,1.69.72c.62,0,.93-.29.93-.6s-.46-.53-1.08-.68c-.87-.2-2-.43-2-1.63,0-.88.77-1.6,2-1.6a3,3,0,0,1,2.08.74l-.63.83a2.27,2.27,0,0,0-1.53-.58c-.51,0-.78.22-.78.54s.45.47,1.06.62c.88.2,2,.46,2,1.64,0,1-.7,1.72-2.13,1.72a3.11,3.11,0,0,1-2.27-.85Z" transform="translate(0 -1.51)"/><path class="e" d="M162.3,70.2c0-.36-.16-.62-.58-.62a1,1,0,0,0-.8.45v2.61h-1V70.2c0-.36-.16-.62-.58-.62a1.06,1.06,0,0,0-.8.46v2.6h-1V68.78h1v.5a1.7,1.7,0,0,1,1.27-.6,1,1,0,0,1,1.07.71,1.61,1.61,0,0,1,1.32-.71,1,1,0,0,1,1.14,1.17v2.79h-1Z" transform="translate(0 -1.51)"/><path class="e" d="M166.64,72.24a1.6,1.6,0,0,1-1.22.5,1.29,1.29,0,0,1-1.35-1.28,1.23,1.23,0,0,1,1.35-1.24,1.54,1.54,0,0,1,1.22.48v-.54c0-.39-.33-.65-.85-.65a1.63,1.63,0,0,0-1.12.46l-.39-.68a2.51,2.51,0,0,1,1.69-.61c.88,0,1.69.35,1.69,1.47v2.49h-1Zm0-1a1,1,0,0,0-.81-.33c-.41,0-.73.21-.73.58s.32.57.73.57a1,1,0,0,0,.81-.34Z" transform="translate(0 -1.51)"/><path class="e" d="M168.67,68.78h1v.53a1.63,1.63,0,0,1,1.23-.62v1l-.28,0a1.29,1.29,0,0,0-.95.43v2.55h-1Z" transform="translate(0 -1.51)"/><path class="e" d="M171.75,71.68v-2h-.64v-.89h.64V67.72h1v1.06h.78v.89h-.78v1.74c0,.24.13.42.35.42a.52.52,0,0,0,.35-.11l.22.77a1.3,1.3,0,0,1-.85.25A1,1,0,0,1,171.75,71.68Z" transform="translate(0 -1.51)"/><path class="e" d="M147.57,79.08a2.7,2.7,0,0,1,2.8-2.76,2.45,2.45,0,0,1,2.27,1.3l-1,.48a1.48,1.48,0,0,0-1.3-.77,1.75,1.75,0,0,0,0,3.5,1.47,1.47,0,0,0,1.3-.78l1,.47a2.45,2.45,0,0,1-2.27,1.31A2.69,2.69,0,0,1,147.57,79.08Z" transform="translate(0 -1.51)"/><path class="e" d="M153.05,79.8a2,2,0,1,1,2,2A2,2,0,0,1,153.05,79.8Zm3,0a1,1,0,1,0-2,0,1,1,0,1,0,2,0Z" transform="translate(0 -1.51)"/><path class="e" d="M160.5,79.4a.63.63,0,0,0-.71-.72,1.11,1.11,0,0,0-.88.46v2.6h-1V77.88h1v.5a1.76,1.76,0,0,1,1.35-.6A1.13,1.13,0,0,1,161.52,79v2.73h-1Z" transform="translate(0 -1.51)"/><path class="e" d="M162.73,80.78v-2h-.64v-.88h.64V76.82h1v1.06h.78v.88h-.78v1.75c0,.24.13.42.35.42a.52.52,0,0,0,.35-.11l.22.77a1.28,1.28,0,0,1-.85.24A1,1,0,0,1,162.73,80.78Z" transform="translate(0 -1.51)"/><path class="e" d="M165.23,77.88h1v.53a1.63,1.63,0,0,1,1.23-.62v1a1.14,1.14,0,0,0-.28,0,1.25,1.25,0,0,0-.95.43v2.55h-1Z" transform="translate(0 -1.51)"/><path class="e" d="M170.43,81.34a1.59,1.59,0,0,1-1.22.49,1.28,1.28,0,0,1-1.35-1.27,1.23,1.23,0,0,1,1.35-1.24,1.54,1.54,0,0,1,1.22.48v-.54c0-.39-.34-.65-.85-.65a1.62,1.62,0,0,0-1.13.46l-.38-.68a2.51,2.51,0,0,1,1.69-.61c.88,0,1.68.35,1.68,1.47v2.49h-1Zm0-1a1,1,0,0,0-.82-.33c-.4,0-.72.21-.72.58s.32.57.72.57a1,1,0,0,0,.82-.34Z" transform="translate(0 -1.51)"/><path class="e" d="M174.25,77.78a1.77,1.77,0,0,1,1.53.71l-.66.61a1,1,0,0,0-.82-.42,1.13,1.13,0,0,0,0,2.25,1,1,0,0,0,.82-.41l.66.61a1.79,1.79,0,0,1-1.53.7,2,2,0,1,1,0-4Z" transform="translate(0 -1.51)"/><path class="e" d="M176.65,80.78v-2H176v-.88h.64V76.82h1v1.06h.78v.88h-.78v1.75c0,.24.13.42.35.42a.52.52,0,0,0,.35-.11l.22.77a1.28,1.28,0,0,1-.85.24A1,1,0,0,1,176.65,80.78Z" transform="translate(0 -1.51)"/><path class="g" d="M123.49,36.13V82.9a4.28,4.28,0,0,1-4.26,4.26H76.71a4.27,4.27,0,0,1-4.25-4.26V23.38a4.27,4.27,0,0,1,4.25-4.26h29.77a4.23,4.23,0,0,1,3,1.25l12.76,12.76A4.23,4.23,0,0,1,123.49,36.13Z" transform="translate(0 -1.51)"/><path class="d" d="M122.91,34a4.45,4.45,0,0,0-.67-.88L109.48,20.37a4.45,4.45,0,0,0-.88-.67,4.27,4.27,0,0,0-2.12,3.68v8.5a4.26,4.26,0,0,0,4.25,4.25h8.5A4.27,4.27,0,0,0,122.91,34Z" transform="translate(0 -1.51)"/><path class="e" d="M76.86,38.59a1,1,0,0,1,.88.42l-.25.23a.71.71,0,0,0-.61-.32.94.94,0,0,0,0,1.87.71.71,0,0,0,.61-.32l.25.23a1,1,0,0,1-.88.42,1.27,1.27,0,0,1,0-2.53Z" transform="translate(0 -1.51)"/><path class="e" d="M78.13,39.85a1.2,1.2,0,1,1,1.19,1.27A1.18,1.18,0,0,1,78.13,39.85Zm2,0a.81.81,0,1,0-1.6,0,.81.81,0,1,0,1.6,0Z" transform="translate(0 -1.51)"/><path class="e" d="M82.76,39.48c0-.42-.22-.56-.54-.56a.92.92,0,0,0-.72.38v1.76h-.37V38.65h.37V39a1.2,1.2,0,0,1,.86-.41.68.68,0,0,1,.77.78v1.69h-.37Z" transform="translate(0 -1.51)"/><path class="e" d="M83.87,40.47a1.07,1.07,0,0,0,.79.35c.37,0,.57-.17.57-.4s-.29-.35-.62-.43-.87-.21-.87-.71.32-.69.9-.69a1.18,1.18,0,0,1,.89.35l-.17.26a.93.93,0,0,0-.72-.31c-.33,0-.54.15-.54.37s.28.31.59.38.91.22.91.75-.33.73-.95.73a1.3,1.3,0,0,1-1-.38Z" transform="translate(0 -1.51)"/><path class="e" d="M86.28,40.56V39h-.4v-.33h.4V38h.38v.66h.49V39h-.49v1.5c0,.18.08.31.24.31a.39.39,0,0,0,.26-.1l.11.28a.62.62,0,0,1-.45.15A.49.49,0,0,1,86.28,40.56Z" transform="translate(0 -1.51)"/><path class="e" d="M90,38.59a1.05,1.05,0,0,1,.89.42l-.25.23a.73.73,0,0,0-.62-.32.94.94,0,0,0,0,1.87.73.73,0,0,0,.62-.32l.25.23a1.05,1.05,0,0,1-.89.42,1.27,1.27,0,0,1,0-2.53Z" transform="translate(0 -1.51)"/><path class="e" d="M91.44,38.65h.38V39a1,1,0,0,1,.8-.44V39h-.15a.88.88,0,0,0-.65.38v1.71h-.38Z" transform="translate(0 -1.51)"/><path class="e" d="M94.14,38.59a1.17,1.17,0,0,1,1.16,1.29V40h-2a.85.85,0,0,0,.87.83,1.07,1.07,0,0,0,.74-.3l.18.24a1.3,1.3,0,0,1-1,.37,1.27,1.27,0,0,1,0-2.53Zm-.79,1.11h1.58a.77.77,0,0,0-.79-.8A.8.8,0,0,0,93.35,39.7Z" transform="translate(0 -1.51)"/><path class="e" d="M97.42,40.79a1,1,0,0,1-.8.33.81.81,0,0,1-.85-.8.79.79,0,0,1,.85-.79,1,1,0,0,1,.8.33v-.44c0-.32-.26-.51-.61-.51a1,1,0,0,0-.74.34L95.89,39a1.27,1.27,0,0,1,1-.4c.51,0,.93.23.93.81v1.66h-.37Zm0-.69a.82.82,0,0,0-.67-.3.53.53,0,1,0,0,1.05.82.82,0,0,0,.67-.3Z" transform="translate(0 -1.51)"/><path class="e" d="M98.62,40.56V39h-.4v-.33h.4V38H99v.66h.49V39H99v1.5c0,.18.08.31.25.31a.38.38,0,0,0,.25-.1l.11.28a.6.6,0,0,1-.45.15A.49.49,0,0,1,98.62,40.56Z" transform="translate(0 -1.51)"/><path class="e" d="M99.87,39.85a1.2,1.2,0,1,1,2.4,0,1.2,1.2,0,1,1-2.4,0Zm2,0a.81.81,0,1,0-.8.94A.84.84,0,0,0,101.87,39.85Z" transform="translate(0 -1.51)"/><path class="e" d="M102.87,38.65h.38V39a1,1,0,0,1,.8-.44V39h-.15a.88.88,0,0,0-.65.38v1.71h-.38Z" transform="translate(0 -1.51)"/><path class="e" d="M104.51,40.47a1.07,1.07,0,0,0,.79.35c.37,0,.57-.17.57-.4s-.29-.35-.62-.43-.87-.21-.87-.71.32-.69.9-.69a1.18,1.18,0,0,1,.89.35l-.17.26a.93.93,0,0,0-.72-.31c-.33,0-.54.15-.54.37s.28.31.59.38.91.22.91.75-.33.73-.95.73a1.3,1.3,0,0,1-1-.38Z" transform="translate(0 -1.51)"/><path class="e" d="M107.91,38.78h2.2V39h-2.2Zm0,1h2.2V40h-2.2Z" transform="translate(0 -1.51)"/><path class="e" d="M111.83,41.34v-1c0-.18-.08-.34-.26-.34v-.25c.18,0,.26-.16.26-.35v-1a.65.65,0,0,1,.63-.68h.3V38h-.3a.36.36,0,0,0-.33.4v1a.43.43,0,0,1-.23.44.43.43,0,0,1,.23.44v1.06a.37.37,0,0,0,.33.4h.3V42h-.3A.64.64,0,0,1,111.83,41.34Z" transform="translate(0 -1.51)"/><path class="e" d="M79.88,46.79a1,1,0,0,1-.8.33.8.8,0,0,1-.84-.8.78.78,0,0,1,.84-.79,1,1,0,0,1,.8.33v-.44c0-.32-.26-.51-.61-.51a1,1,0,0,0-.74.34L78.36,45a1.26,1.26,0,0,1,1-.4c.51,0,.94.23.94.81v1.66h-.38Zm0-.69a.8.8,0,0,0-.66-.3.53.53,0,1,0,0,1.05.8.8,0,0,0,.66-.3Z" transform="translate(0 -1.51)"/><path class="e" d="M82.07,44.59A1.05,1.05,0,0,1,83,45l-.25.23a.73.73,0,0,0-.62-.32.94.94,0,0,0,0,1.87.73.73,0,0,0,.62-.32l.25.23a1.05,1.05,0,0,1-.89.42,1.27,1.27,0,0,1,0-2.53Z" transform="translate(0 -1.51)"/><path class="e" d="M83.56,46.56V45h-.4v-.33h.4V44h.37v.66h.49V45h-.49v1.5c0,.18.08.31.25.31a.38.38,0,0,0,.25-.1l.11.28a.6.6,0,0,1-.45.15A.49.49,0,0,1,83.56,46.56Z" transform="translate(0 -1.51)"/><path class="e" d="M84.89,44a.25.25,0,1,1,.25.25A.25.25,0,0,1,84.89,44Zm.06.66h.38v2.41H85Z" transform="translate(0 -1.51)"/><path class="e" d="M85.94,45.85a1.2,1.2,0,1,1,1.19,1.27A1.18,1.18,0,0,1,85.94,45.85Zm2,0a.81.81,0,1,0-1.6,0,.81.81,0,1,0,1.6,0Z" transform="translate(0 -1.51)"/><path class="e" d="M90.57,45.48c0-.42-.22-.56-.54-.56a.92.92,0,0,0-.72.38v1.76h-.37V44.65h.37V45a1.2,1.2,0,0,1,.86-.41.68.68,0,0,1,.77.78v1.69h-.37Z" transform="translate(0 -1.51)"/><path class="e" d="M92.21,44.28l-.54.56-.25-.25.84-.86h.36v3.33h-.41Z" transform="translate(0 -1.51)"/><path class="e" d="M93.59,44.61a.28.28,0,0,1,.27.28.27.27,0,0,1-.27.27.28.28,0,0,1-.28-.27A.29.29,0,0,1,93.59,44.61Zm0,2a.28.28,0,0,1,.27.28.27.27,0,0,1-.27.27.28.28,0,0,1-.28-.27A.29.29,0,0,1,93.59,46.56Z" transform="translate(0 -1.51)"/><path class="e" d="M95.67,45.85a3.78,3.78,0,0,1,.71-2.21l.22.17a4.24,4.24,0,0,0,0,4.07l-.22.18A3.81,3.81,0,0,1,95.67,45.85Z" transform="translate(0 -1.51)"/><path class="e" d="M98.58,46.79a1,1,0,0,1-.8.33.81.81,0,0,1-.85-.8.79.79,0,0,1,.85-.79,1,1,0,0,1,.8.33v-.44c0-.32-.26-.51-.61-.51a1,1,0,0,0-.74.34L97.05,45a1.27,1.27,0,0,1,1-.4c.51,0,.93.23.93.81v1.66h-.37Zm0-.69a.82.82,0,0,0-.67-.3.53.53,0,1,0,0,1.05.82.82,0,0,0,.67-.3Z" transform="translate(0 -1.51)"/><path class="e" d="M99.7,44.65h.38V45a1,1,0,0,1,.8-.44V45h-.15a.88.88,0,0,0-.65.38v1.71H99.7Z" transform="translate(0 -1.51)"/><path class="e" d="M101.54,47.4a.92.92,0,0,0,.78.33.69.69,0,0,0,.78-.72v-.35a1,1,0,0,1-.81.43,1.26,1.26,0,0,1,0-2.5,1,1,0,0,1,.81.42v-.36h.37V47c0,.8-.56,1-1.15,1a1.22,1.22,0,0,1-1-.36Zm1.56-2.09a.89.89,0,0,0-.72-.39c-.49,0-.78.39-.78.92s.29.92.78.92a.89.89,0,0,0,.72-.39Z" transform="translate(0 -1.51)"/><path class="e" d="M104.21,46.47a1.07,1.07,0,0,0,.79.35c.37,0,.57-.17.57-.4s-.29-.35-.62-.43-.87-.21-.87-.71.32-.69.9-.69a1.18,1.18,0,0,1,.89.35l-.17.26a.93.93,0,0,0-.72-.31c-.33,0-.54.15-.54.37s.28.31.59.38.91.22.91.75-.33.73-1,.73a1.3,1.3,0,0,1-1-.38Z" transform="translate(0 -1.51)"/><path class="e" d="M106.75,46.56a.28.28,0,0,1,.27.28.27.27,0,0,1-.27.27.28.28,0,0,1-.28-.27A.29.29,0,0,1,106.75,46.56Z" transform="translate(0 -1.51)"/><path class="e" d="M107.9,46.56a.28.28,0,0,1,.27.28.27.27,0,0,1-.27.27.28.28,0,0,1-.28-.27A.29.29,0,0,1,107.9,46.56Z" transform="translate(0 -1.51)"/><path class="e" d="M109.05,46.56a.28.28,0,0,1,.27.28.27.27,0,0,1-.27.27.28.28,0,0,1-.28-.27A.29.29,0,0,1,109.05,46.56Z" transform="translate(0 -1.51)"/><path class="e" d="M109.71,43.81l.22-.17a3.79,3.79,0,0,1,0,4.42l-.22-.18a4.24,4.24,0,0,0,0-4.07Z" transform="translate(0 -1.51)"/><path class="e" d="M112.3,44.78h2.2V45h-2.2Zm0,1h2.2V46h-2.2Z" transform="translate(0 -1.51)"/><path class="e" d="M114.79,46.3l1.88-.91-1.88-.91v-.32l2.21,1.1v.26l-2.21,1.09Z" transform="translate(0 -1.51)"/><path class="e" d="M118.72,47.34v-1c0-.18-.09-.34-.26-.34v-.25c.17,0,.26-.16.26-.35v-1a.64.64,0,0,1,.62-.68h.31V44h-.31a.36.36,0,0,0-.33.4v1a.42.42,0,0,1-.23.44.42.42,0,0,1,.23.44v1.06a.37.37,0,0,0,.33.4h.31V48h-.31A.64.64,0,0,1,118.72,47.34Z" transform="translate(0 -1.51)"/><path class="e" d="M81.76,49.63h.3l-1.19,3.53h-.29Z" transform="translate(0 -1.51)"/><path class="e" d="M83.24,49.63h.3l-1.19,3.53h-.29Z" transform="translate(0 -1.51)"/><path class="e" d="M84.11,52.56a.29.29,0,0,1,.28.28.28.28,0,0,1-.28.27.27.27,0,0,1-.27-.27A.28.28,0,0,1,84.11,52.56Z" transform="translate(0 -1.51)"/><path class="e" d="M85.26,52.56a.29.29,0,0,1,.28.28.28.28,0,0,1-.28.27.27.27,0,0,1-.27-.27A.28.28,0,0,1,85.26,52.56Z" transform="translate(0 -1.51)"/><path class="e" d="M86.41,52.56a.29.29,0,0,1,.28.28.28.28,0,0,1-.28.27.27.27,0,0,1-.27-.27A.28.28,0,0,1,86.41,52.56Z" transform="translate(0 -1.51)"/><path class="e" d="M78.39,59.74a.37.37,0,0,0,.33-.4V58.28a.42.42,0,0,1,.23-.44.42.42,0,0,1-.23-.44v-1a.36.36,0,0,0-.33-.4h-.31v-.28h.31a.64.64,0,0,1,.62.68v1c0,.19.09.35.26.35V58c-.17,0-.26.16-.26.34v1a.64.64,0,0,1-.62.67h-.31v-.27Z" transform="translate(0 -1.51)"/><path class="e" d="M79.58,59.54a.74.74,0,0,0,.33-.46h-.07a.24.24,0,0,1-.24-.26.27.27,0,0,1,.26-.27.34.34,0,0,1,.32.38,1,1,0,0,1-.41.76Z" transform="translate(0 -1.51)"/><path class="e" d="M75.81,65.74a.37.37,0,0,0,.33-.4V64.28a.42.42,0,0,1,.23-.44.42.42,0,0,1-.23-.44v-1a.36.36,0,0,0-.33-.4H75.5v-.28h.31a.64.64,0,0,1,.62.68v1c0,.19.09.35.26.35V64c-.17,0-.26.16-.26.34v1a.64.64,0,0,1-.62.67H75.5v-.27Z" transform="translate(0 -1.51)"/><path class="f" d="M79.05,72.22H76.67l-.34.92H75.09l2.06-5.33h1.42l2.06,5.33H79.39Zm-2.08-1h1.77l-.88-2.45Z" transform="translate(0 -1.51)"/><path class="f" d="M82.9,69.18a1.8,1.8,0,0,1,1.53.71l-.67.61a1,1,0,0,0-.81-.42,1.13,1.13,0,0,0,0,2.25,1,1,0,0,0,.81-.41l.67.61a1.8,1.8,0,0,1-1.53.71,2,2,0,1,1,0-4.06Z" transform="translate(0 -1.51)"/><path class="f" d="M85.29,72.18v-2h-.64v-.89h.64V68.22h1v1.06h.78v.89h-.78v1.74c0,.24.13.42.35.42a.54.54,0,0,0,.35-.11l.22.77a1.3,1.3,0,0,1-.85.25A1,1,0,0,1,85.29,72.18Z" transform="translate(0 -1.51)"/><path class="f" d="M87.69,68.1a.61.61,0,0,1,.61-.6.61.61,0,1,1,0,1.21A.61.61,0,0,1,87.69,68.1Zm.11,1.18h1v3.86h-1Z" transform="translate(0 -1.51)"/><path class="f" d="M89.57,71.21a2,2,0,1,1,2,2A2,2,0,0,1,89.57,71.21Zm3,0a1,1,0,1,0-2,0,1,1,0,1,0,2,0Z" transform="translate(0 -1.51)"/><path class="f" d="M97,70.8a.63.63,0,0,0-.71-.72,1.11,1.11,0,0,0-.88.46v2.6h-1V69.28h1v.5a1.79,1.79,0,0,1,1.35-.6A1.13,1.13,0,0,1,98,70.41v2.73H97Z" transform="translate(0 -1.51)"/><path class="f" d="M102.35,68.81h-1.56v-1H105v1h-1.55v4.33h-1.14Z" transform="translate(0 -1.51)"/><path class="f" d="M105.64,73.8a.5.5,0,0,0,.53-.28l.15-.32-1.57-3.92h1.09l1,2.68,1-2.68H109l-1.82,4.49a1.4,1.4,0,0,1-1.46.94,2.84,2.84,0,0,1-.5-.06l.15-.91A.87.87,0,0,0,105.64,73.8Z" transform="translate(0 -1.51)"/><path class="f" d="M109.41,74.61V69.28h1v.49a1.49,1.49,0,0,1,1.19-.59c1,0,1.71.74,1.71,2s-.72,2-1.71,2a1.49,1.49,0,0,1-1.19-.6v2Zm1.88-4.53a1.14,1.14,0,0,0-.87.45v1.36a1.16,1.16,0,0,0,.87.44,1.14,1.14,0,0,0,0-2.25Z" transform="translate(0 -1.51)"/><path class="f" d="M115.84,69.18a1.93,1.93,0,0,1,1.93,2.13v.22H114.9a1,1,0,0,0,1.11.9,1.56,1.56,0,0,0,1-.39l.45.66a2.37,2.37,0,0,1-1.59.54,2,2,0,0,1-.06-4.06Zm-1,1.66h1.9a.9.9,0,0,0-1-.85A.91.91,0,0,0,114.89,70.84Z" transform="translate(0 -1.51)"/><path class="f" d="M118.61,71.92a2.19,2.19,0,0,0,1.34.53c.44,0,.65-.15.65-.39s-.34-.37-.78-.46c-.66-.12-1.52-.28-1.52-1.2,0-.65.57-1.22,1.58-1.22a2.48,2.48,0,0,1,1.56.53l-.4.7a1.66,1.66,0,0,0-1.15-.45c-.37,0-.61.13-.61.36s.31.33.74.41c.66.13,1.55.31,1.55,1.27,0,.71-.6,1.24-1.67,1.24a2.65,2.65,0,0,1-1.73-.6Z" transform="translate(0 -1.51)"/><path class="f" d="M84.39,82.24H83.1c-.12-.1-.25-.25-.4-.4a2.37,2.37,0,0,1-1.45.49c-1,0-1.77-.51-1.77-1.54a1.72,1.72,0,0,1,1.15-1.54,2.63,2.63,0,0,1-.35-1.14,1.38,1.38,0,0,1,1.52-1.28c.76,0,1.41.41,1.41,1.12s-.66,1.16-1.31,1.47l.45.57c.15.19.31.37.46.55a4.61,4.61,0,0,0,.49-1l.81.38a7.36,7.36,0,0,1-.74,1.29Zm-2.24-1c-.24-.27-.46-.52-.59-.68s-.36-.45-.53-.7a1,1,0,0,0-.47.82.81.81,0,0,0,.83.84A1.27,1.27,0,0,0,82.15,81.26Zm-.62-2.42c.45-.21.79-.44.79-.83a.43.43,0,0,0-.46-.45.55.55,0,0,0-.56.57A1.51,1.51,0,0,0,81.53,78.84Z" transform="translate(0 -1.51)"/><path class="f" d="M86.79,79.58a2.7,2.7,0,0,1,2.79-2.76,2.48,2.48,0,0,1,2.28,1.3l-1,.48a1.45,1.45,0,0,0-1.3-.77,1.75,1.75,0,0,0,0,3.5,1.44,1.44,0,0,0,1.3-.78l1,.47a2.48,2.48,0,0,1-2.28,1.31A2.69,2.69,0,0,1,86.79,79.58Z" transform="translate(0 -1.51)"/><path class="f" d="M92.51,78.38h1v.53a1.63,1.63,0,0,1,1.23-.62v1a1.14,1.14,0,0,0-.28,0,1.29,1.29,0,0,0-1,.43v2.55h-1Z" transform="translate(0 -1.51)"/><path class="f" d="M97.15,78.28a1.93,1.93,0,0,1,1.93,2.13v.22H96.21a1,1,0,0,0,1.11.9,1.58,1.58,0,0,0,1-.39l.45.66a2.37,2.37,0,0,1-1.59.53,2,2,0,1,1-.06-4Zm-1,1.66H98.1a.9.9,0,0,0-.95-.85A.93.93,0,0,0,96.19,79.94Z" transform="translate(0 -1.51)"/><path class="f" d="M102.14,81.84a1.62,1.62,0,0,1-1.23.49,1.28,1.28,0,0,1-1.34-1.27,1.23,1.23,0,0,1,1.34-1.24,1.56,1.56,0,0,1,1.23.48v-.54c0-.39-.34-.65-.85-.65a1.61,1.61,0,0,0-1.13.46l-.38-.68a2.51,2.51,0,0,1,1.68-.61c.88,0,1.69.35,1.69,1.47v2.49h-1Zm0-1a1,1,0,0,0-.82-.33c-.4,0-.73.21-.73.58s.33.57.73.57a1,1,0,0,0,.82-.34Z" transform="translate(0 -1.51)"/><path class="f" d="M104.36,81.28v-2h-.64v-.88h.64V77.32h1v1.06h.78v.88h-.78V81c0,.24.12.42.35.42a.54.54,0,0,0,.35-.11l.21.77a1.27,1.27,0,0,1-.84.24A1,1,0,0,1,104.36,81.28Z" transform="translate(0 -1.51)"/><path class="f" d="M106.62,80.3a2,2,0,1,1,2,2A2,2,0,0,1,106.62,80.3Zm3,0a1,1,0,1,0-1,1.13A1,1,0,0,0,109.65,80.3Z" transform="translate(0 -1.51)"/><path class="f" d="M111.46,78.38h1v.53a1.63,1.63,0,0,1,1.23-.62v1a1.1,1.1,0,0,0-.28,0,1.29,1.29,0,0,0-1,.43v2.55h-1Z" transform="translate(0 -1.51)"/><path class="f" d="M114.44,81a2.19,2.19,0,0,0,1.34.53c.44,0,.64-.15.64-.39s-.33-.37-.77-.46c-.67-.12-1.52-.28-1.52-1.2,0-.65.57-1.22,1.58-1.22a2.37,2.37,0,0,1,1.55.53l-.4.69a1.65,1.65,0,0,0-1.14-.44c-.37,0-.61.13-.61.36s.31.33.74.41c.66.13,1.55.31,1.55,1.27,0,.71-.6,1.23-1.67,1.23a2.64,2.64,0,0,1-1.73-.59Z" transform="translate(0 -1.51)"/><path class="e" d="M78.55,71.72H76.17l-.34.92H74.59l2.06-5.33h1.42l2.06,5.33H78.89Zm-2.08-1h1.77l-.88-2.45Z" transform="translate(0 -1.51)"/><path class="e" d="M82.4,68.68a1.8,1.8,0,0,1,1.53.71l-.67.61a1,1,0,0,0-.81-.42,1.13,1.13,0,0,0,0,2.25,1,1,0,0,0,.81-.41l.67.61a1.8,1.8,0,0,1-1.53.71,2,2,0,1,1,0-4.06Z" transform="translate(0 -1.51)"/><path class="e" d="M84.79,71.68v-2h-.64v-.89h.64V67.72h1v1.06h.78v.89h-.78v1.74c0,.24.13.42.35.42a.54.54,0,0,0,.35-.11l.22.77a1.3,1.3,0,0,1-.85.25A1,1,0,0,1,84.79,71.68Z" transform="translate(0 -1.51)"/><path class="e" d="M87.19,67.6a.61.61,0,0,1,.61-.6.61.61,0,1,1,0,1.21A.61.61,0,0,1,87.19,67.6Zm.11,1.18h1v3.86h-1Z" transform="translate(0 -1.51)"/><path class="e" d="M89.07,70.71a2,2,0,1,1,2,2A2,2,0,0,1,89.07,70.71Zm3,0a1,1,0,1,0-2,0,1,1,0,1,0,2,0Z" transform="translate(0 -1.51)"/><path class="e" d="M96.52,70.3a.63.63,0,0,0-.71-.72,1.11,1.11,0,0,0-.88.46v2.6h-1V68.78h1v.5a1.79,1.79,0,0,1,1.35-.6,1.13,1.13,0,0,1,1.26,1.23v2.73h-1Z" transform="translate(0 -1.51)"/><path class="e" d="M101.85,68.31h-1.56v-1h4.25v1H103v4.33h-1.14Z" transform="translate(0 -1.51)"/><path class="e" d="M105.14,73.3a.5.5,0,0,0,.53-.28l.15-.32-1.57-3.92h1.09l1,2.68,1-2.68h1.1l-1.82,4.49a1.4,1.4,0,0,1-1.46.94,2.84,2.84,0,0,1-.5-.06l.15-.91A.87.87,0,0,0,105.14,73.3Z" transform="translate(0 -1.51)"/><path class="e" d="M108.91,74.11V68.78h1v.49a1.49,1.49,0,0,1,1.19-.59c1,0,1.71.74,1.71,2s-.72,2-1.71,2a1.49,1.49,0,0,1-1.19-.6v2Zm1.88-4.53a1.14,1.14,0,0,0-.87.45v1.36a1.16,1.16,0,0,0,.87.44,1.14,1.14,0,0,0,0-2.25Z" transform="translate(0 -1.51)"/><path class="e" d="M115.34,68.68a1.93,1.93,0,0,1,1.93,2.13V71H114.4a1,1,0,0,0,1.11.9,1.56,1.56,0,0,0,1-.39l.45.66a2.37,2.37,0,0,1-1.59.54,2,2,0,0,1-.06-4.06Zm-1,1.66h1.9a.9.9,0,0,0-1-.85A.91.91,0,0,0,114.39,70.34Z" transform="translate(0 -1.51)"/><path class="e" d="M118.11,71.42a2.19,2.19,0,0,0,1.34.53c.44,0,.65-.15.65-.39s-.34-.37-.78-.46c-.66-.12-1.52-.28-1.52-1.2,0-.65.57-1.22,1.58-1.22a2.48,2.48,0,0,1,1.56.53l-.4.7a1.66,1.66,0,0,0-1.15-.45c-.37,0-.61.13-.61.36s.31.33.74.41c.66.13,1.55.31,1.55,1.27,0,.71-.6,1.24-1.67,1.24a2.65,2.65,0,0,1-1.73-.6Z" transform="translate(0 -1.51)"/><path class="e" d="M83.89,81.74H82.6c-.12-.1-.25-.25-.4-.4a2.37,2.37,0,0,1-1.45.49c-1,0-1.77-.51-1.77-1.54a1.72,1.72,0,0,1,1.15-1.54,2.63,2.63,0,0,1-.35-1.14,1.38,1.38,0,0,1,1.52-1.28c.76,0,1.41.41,1.41,1.12s-.66,1.16-1.31,1.47l.45.57c.15.19.31.37.46.55a4.61,4.61,0,0,0,.49-1l.81.38a7.36,7.36,0,0,1-.74,1.29Zm-2.24-1c-.24-.27-.46-.52-.59-.68s-.36-.45-.53-.7a1,1,0,0,0-.47.82.81.81,0,0,0,.83.84A1.27,1.27,0,0,0,81.65,80.76ZM81,78.34c.45-.21.79-.44.79-.83a.43.43,0,0,0-.46-.45.55.55,0,0,0-.56.57A1.51,1.51,0,0,0,81,78.34Z" transform="translate(0 -1.51)"/><path class="e" d="M86.29,79.08a2.7,2.7,0,0,1,2.79-2.76,2.48,2.48,0,0,1,2.28,1.3l-1,.48a1.45,1.45,0,0,0-1.3-.77,1.75,1.75,0,0,0,0,3.5,1.44,1.44,0,0,0,1.3-.78l1,.47a2.48,2.48,0,0,1-2.28,1.31A2.69,2.69,0,0,1,86.29,79.08Z" transform="translate(0 -1.51)"/><path class="e" d="M92,77.88h1v.53a1.63,1.63,0,0,1,1.23-.62v1a1.14,1.14,0,0,0-.28,0,1.29,1.29,0,0,0-1,.43v2.55H92Z" transform="translate(0 -1.51)"/><path class="e" d="M96.65,77.78a1.93,1.93,0,0,1,1.93,2.13v.22H95.71a1,1,0,0,0,1.11.9,1.58,1.58,0,0,0,1-.39l.45.66a2.37,2.37,0,0,1-1.59.53,2,2,0,1,1-.06-4Zm-1,1.66H97.6a.9.9,0,0,0-.95-.85A.93.93,0,0,0,95.69,79.44Z" transform="translate(0 -1.51)"/><path class="e" d="M101.64,81.34a1.62,1.62,0,0,1-1.23.49,1.28,1.28,0,0,1-1.34-1.27,1.23,1.23,0,0,1,1.34-1.24,1.56,1.56,0,0,1,1.23.48v-.54c0-.39-.34-.65-.85-.65a1.61,1.61,0,0,0-1.13.46l-.38-.68a2.51,2.51,0,0,1,1.68-.61c.88,0,1.69.35,1.69,1.47v2.49h-1Zm0-1a1,1,0,0,0-.82-.33c-.4,0-.73.21-.73.58s.33.57.73.57a1,1,0,0,0,.82-.34Z" transform="translate(0 -1.51)"/><path class="e" d="M103.86,80.78v-2h-.64v-.88h.64V76.82h1v1.06h.78v.88h-.78v1.75c0,.24.12.42.35.42a.54.54,0,0,0,.35-.11l.21.77a1.27,1.27,0,0,1-.84.24A1,1,0,0,1,103.86,80.78Z" transform="translate(0 -1.51)"/><path class="e" d="M106.12,79.8a2,2,0,1,1,2,2A2,2,0,0,1,106.12,79.8Zm3,0a1,1,0,1,0-1,1.13A1,1,0,0,0,109.15,79.8Z" transform="translate(0 -1.51)"/><path class="e" d="M111,77.88h1v.53a1.63,1.63,0,0,1,1.23-.62v1a1.1,1.1,0,0,0-.28,0,1.29,1.29,0,0,0-1,.43v2.55h-1Z" transform="translate(0 -1.51)"/><path class="e" d="M113.94,80.52a2.19,2.19,0,0,0,1.34.53c.44,0,.64-.15.64-.39s-.33-.37-.77-.46c-.67-.12-1.52-.28-1.52-1.2,0-.65.57-1.22,1.58-1.22a2.37,2.37,0,0,1,1.55.53l-.4.69a1.65,1.65,0,0,0-1.14-.44c-.37,0-.61.13-.61.36s.31.33.74.41c.66.13,1.55.31,1.55,1.27,0,.71-.6,1.23-1.67,1.23a2.64,2.64,0,0,1-1.73-.59Z" transform="translate(0 -1.51)"/><path class="h" d="M58.49,36.13V82.9a4.28,4.28,0,0,1-4.26,4.26H11.71A4.27,4.27,0,0,1,7.46,82.9V23.38a4.27,4.27,0,0,1,4.25-4.26H41.48a4.23,4.23,0,0,1,3,1.25L57.24,33.13A4.23,4.23,0,0,1,58.49,36.13Z" transform="translate(0 -1.51)"/><path class="d" d="M57.91,34a4.45,4.45,0,0,0-.67-.88L44.48,20.37a4.45,4.45,0,0,0-.88-.67,4.27,4.27,0,0,0-2.12,3.68v8.5a4.26,4.26,0,0,0,4.25,4.25h8.5A4.27,4.27,0,0,0,57.91,34Z" transform="translate(0 -1.51)"/><path class="e" d="M11.86,38.59a1,1,0,0,1,.88.42l-.25.23a.71.71,0,0,0-.61-.32.94.94,0,0,0,0,1.87.71.71,0,0,0,.61-.32l.25.23a1,1,0,0,1-.88.42,1.27,1.27,0,0,1,0-2.53Z" transform="translate(0 -1.51)"/><path class="e" d="M13.13,39.85a1.2,1.2,0,1,1,1.19,1.27A1.18,1.18,0,0,1,13.13,39.85Zm2,0a.81.81,0,1,0-.81.94A.84.84,0,0,0,15.13,39.85Z" transform="translate(0 -1.51)"/><path class="e" d="M17.76,39.48c0-.42-.22-.56-.54-.56a.92.92,0,0,0-.72.38v1.76h-.37V38.65h.37V39a1.2,1.2,0,0,1,.86-.41.68.68,0,0,1,.77.78v1.69h-.37Z" transform="translate(0 -1.51)"/><path class="e" d="M18.87,40.47a1.07,1.07,0,0,0,.79.35c.37,0,.57-.17.57-.4s-.29-.35-.62-.43-.87-.21-.87-.71.32-.69.9-.69a1.18,1.18,0,0,1,.89.35l-.17.26a.93.93,0,0,0-.72-.31c-.33,0-.54.15-.54.37s.28.31.59.38.91.22.91.75-.33.73-1,.73a1.3,1.3,0,0,1-1-.38Z" transform="translate(0 -1.51)"/><path class="e" d="M21.28,40.56V39h-.4v-.33h.4V38h.38v.66h.49V39h-.49v1.5c0,.18.08.31.24.31a.39.39,0,0,0,.26-.1l.11.28a.62.62,0,0,1-.45.15A.49.49,0,0,1,21.28,40.56Z" transform="translate(0 -1.51)"/><path class="e" d="M24,40.47a1.09,1.09,0,0,0,.8.35c.37,0,.57-.17.57-.4s-.3-.35-.62-.43-.88-.21-.88-.71.33-.69.9-.69a1.22,1.22,0,0,1,.9.35l-.18.26a.92.92,0,0,0-.72-.31c-.33,0-.53.15-.53.37s.27.31.59.38.9.22.9.75-.32.73-.95.73a1.27,1.27,0,0,1-1-.38Z" transform="translate(0 -1.51)"/><path class="e" d="M26.37,40.56V39H26v-.33h.4V38h.37v.66h.49V39h-.49v1.5c0,.18.08.31.25.31a.38.38,0,0,0,.25-.1l.11.28a.6.6,0,0,1-.45.15A.49.49,0,0,1,26.37,40.56Z" transform="translate(0 -1.51)"/><path class="e" d="M29.27,40.79a1,1,0,0,1-.8.33.8.8,0,0,1-.84-.8.78.78,0,0,1,.84-.79,1,1,0,0,1,.8.33v-.44c0-.32-.26-.51-.61-.51a1,1,0,0,0-.74.34L27.75,39a1.26,1.26,0,0,1,1-.4c.51,0,.94.23.94.81v1.66h-.38Zm0-.69a.8.8,0,0,0-.66-.3.53.53,0,1,0,0,1.05.8.8,0,0,0,.66-.3Z" transform="translate(0 -1.51)"/><path class="e" d="M30.47,40.56V39h-.4v-.33h.4V38h.38v.66h.49V39h-.49v1.5c0,.18.08.31.24.31a.39.39,0,0,0,.26-.1l.11.28a.62.62,0,0,1-.45.15A.49.49,0,0,1,30.47,40.56Z" transform="translate(0 -1.51)"/><path class="e" d="M32.92,38.59a1.17,1.17,0,0,1,1.16,1.29V40h-2a.85.85,0,0,0,.87.83,1.08,1.08,0,0,0,.75-.3l.18.24a1.32,1.32,0,0,1-1,.37,1.27,1.27,0,0,1,0-2.53Zm-.8,1.11h1.59a.79.79,0,0,0-.8-.8A.8.8,0,0,0,32.12,39.7Z" transform="translate(0 -1.51)"/><path class="e" d="M35.74,38.78H38V39H35.74Zm0,1H38V40H35.74Z" transform="translate(0 -1.51)"/><path class="e" d="M39.67,41.34v-1c0-.18-.09-.34-.26-.34v-.25c.17,0,.26-.16.26-.35v-1a.64.64,0,0,1,.62-.68h.31V38h-.31a.36.36,0,0,0-.33.4v1a.42.42,0,0,1-.23.44.42.42,0,0,1,.23.44v1.06a.37.37,0,0,0,.33.4h.31V42h-.31A.65.65,0,0,1,39.67,41.34Z" transform="translate(0 -1.51)"/><path class="e" d="M14.18,43.63h.3l-1.19,3.53H13Z" transform="translate(0 -1.51)"/><path class="e" d="M15.66,43.63H16l-1.19,3.53h-.29Z" transform="translate(0 -1.51)"/><path class="e" d="M17.82,46.56a.29.29,0,0,1,.28.28.28.28,0,0,1-.28.27.27.27,0,0,1-.27-.27A.28.28,0,0,1,17.82,46.56Z" transform="translate(0 -1.51)"/><path class="e" d="M19,46.56a.29.29,0,0,1,.28.28.28.28,0,0,1-.28.27.27.27,0,0,1-.27-.27A.28.28,0,0,1,19,46.56Z" transform="translate(0 -1.51)"/><path class="e" d="M20.12,46.56a.29.29,0,0,1,.28.28.28.28,0,0,1-.28.27.27.27,0,0,1-.27-.27A.28.28,0,0,1,20.12,46.56Z" transform="translate(0 -1.51)"/><path class="e" d="M10.81,53.74a.37.37,0,0,0,.33-.4V52.28a.42.42,0,0,1,.23-.44.42.42,0,0,1-.23-.44v-1a.36.36,0,0,0-.33-.4H10.5v-.28h.31a.64.64,0,0,1,.62.68v1c0,.19.09.35.26.35V52c-.17,0-.26.16-.26.34v1a.64.64,0,0,1-.62.68H10.5v-.28Z" transform="translate(0 -1.51)"/><path class="f" d="M24,67.81h1.14v5.33H24Z" transform="translate(0 -1.51)"/><path class="f" d="M28.81,70.8c0-.53-.28-.71-.72-.71a1.1,1.1,0,0,0-.88.45v2.6h-1V69.28h1v.5a1.8,1.8,0,0,1,1.36-.6,1.12,1.12,0,0,1,1.25,1.23v2.73h-1Z" transform="translate(0 -1.51)"/><path class="f" d="M30.73,68.1a.61.61,0,1,1,.6.61A.61.61,0,0,1,30.73,68.1Zm.1,1.18h1v3.86h-1Z" transform="translate(0 -1.51)"/><path class="f" d="M33.05,72.18v-2h-.64v-.89h.64V68.22h1v1.06h.78v.89h-.78v1.74c0,.24.13.42.35.42a.52.52,0,0,0,.35-.11L35,73a1.3,1.3,0,0,1-.85.25A1,1,0,0,1,33.05,72.18Z" transform="translate(0 -1.51)"/><path class="f" d="M35.45,68.1a.61.61,0,0,1,.61-.6.61.61,0,1,1,0,1.21A.61.61,0,0,1,35.45,68.1Zm.11,1.18h1v3.86h-1Z" transform="translate(0 -1.51)"/><path class="f" d="M39.9,72.74a1.6,1.6,0,0,1-1.22.5A1.29,1.29,0,0,1,37.33,72a1.23,1.23,0,0,1,1.35-1.24,1.52,1.52,0,0,1,1.22.48v-.54c0-.39-.33-.65-.85-.65a1.63,1.63,0,0,0-1.12.46l-.39-.68a2.57,2.57,0,0,1,1.69-.61c.88,0,1.69.35,1.69,1.47v2.49h-1Zm0-1a1,1,0,0,0-.81-.33c-.4,0-.73.21-.73.58s.33.57.73.57a1,1,0,0,0,.81-.34Z" transform="translate(0 -1.51)"/><path class="f" d="M41.93,67.81h1v5.33h-1Z" transform="translate(0 -1.51)"/><path class="f" d="M24.81,80.62a2.32,2.32,0,0,0,1.7.72c.62,0,.93-.29.93-.6s-.47-.53-1.08-.68c-.87-.19-2-.44-2-1.63,0-.88.76-1.6,2-1.6a3,3,0,0,1,2.08.74l-.63.83a2.29,2.29,0,0,0-1.53-.58c-.51,0-.78.22-.78.54s.44.47,1.06.62c.88.2,2,.46,2,1.64,0,1-.7,1.72-2.14,1.72a3.08,3.08,0,0,1-2.26-.85Z" transform="translate(0 -1.51)"/><path class="f" d="M29.45,81.28v-2h-.64v-.89h.64V77.32h1v1.06h.78v.89h-.78V81c0,.24.13.42.35.42a.52.52,0,0,0,.35-.11l.22.77a1.28,1.28,0,0,1-.85.25A1,1,0,0,1,29.45,81.28Z" transform="translate(0 -1.51)"/><path class="f" d="M34.27,81.84a1.6,1.6,0,0,1-1.22.5,1.29,1.29,0,0,1-1.35-1.28,1.23,1.23,0,0,1,1.35-1.24,1.54,1.54,0,0,1,1.22.48v-.54c0-.39-.34-.65-.85-.65a1.67,1.67,0,0,0-1.13.46l-.38-.68a2.51,2.51,0,0,1,1.69-.61c.88,0,1.68.35,1.68,1.47v2.49h-1Zm0-1a1,1,0,0,0-.82-.33c-.4,0-.72.21-.72.58s.32.57.72.57a1,1,0,0,0,.82-.34Z" transform="translate(0 -1.51)"/><path class="f" d="M36.49,81.28v-2h-.63v-.89h.63V77.32h1v1.06h.78v.89h-.78V81c0,.24.13.42.35.42a.52.52,0,0,0,.35-.11l.22.77a1.3,1.3,0,0,1-.85.25A1,1,0,0,1,36.49,81.28Z" transform="translate(0 -1.51)"/><path class="f" d="M40.75,78.28a1.93,1.93,0,0,1,1.93,2.13v.22H39.81a1.05,1.05,0,0,0,1.12.9,1.58,1.58,0,0,0,1-.39l.44.66a2.37,2.37,0,0,1-1.59.54,2,2,0,0,1-.06-4.06ZM39.8,80h1.9a.89.89,0,0,0-1-.86A.93.93,0,0,0,39.8,80Z" transform="translate(0 -1.51)"/><path class="e" d="M23.53,67.31h1.14v5.33H23.53Z" transform="translate(0 -1.51)"/><path class="e" d="M28.31,70.3c0-.53-.28-.71-.72-.71a1.1,1.1,0,0,0-.88.45v2.6h-1V68.78h1v.5a1.8,1.8,0,0,1,1.36-.6,1.12,1.12,0,0,1,1.25,1.23v2.73h-1Z" transform="translate(0 -1.51)"/><path class="e" d="M30.23,67.6a.61.61,0,1,1,.6.61A.61.61,0,0,1,30.23,67.6Zm.1,1.18h1v3.86h-1Z" transform="translate(0 -1.51)"/><path class="e" d="M32.55,71.68v-2h-.64v-.89h.64V67.72h1v1.06h.78v.89h-.78v1.74c0,.24.13.42.35.42a.52.52,0,0,0,.35-.11l.22.77a1.3,1.3,0,0,1-.85.25A1,1,0,0,1,32.55,71.68Z" transform="translate(0 -1.51)"/><path class="e" d="M35,67.6a.61.61,0,0,1,.61-.6.61.61,0,1,1,0,1.21A.61.61,0,0,1,35,67.6Zm.11,1.18h1v3.86h-1Z" transform="translate(0 -1.51)"/><path class="e" d="M39.4,72.24a1.6,1.6,0,0,1-1.22.5,1.29,1.29,0,0,1-1.35-1.28,1.23,1.23,0,0,1,1.35-1.24,1.52,1.52,0,0,1,1.22.48v-.54c0-.39-.33-.65-.85-.65a1.63,1.63,0,0,0-1.12.46L37,69.29a2.57,2.57,0,0,1,1.69-.61c.88,0,1.69.35,1.69,1.47v2.49h-1Zm0-1a1,1,0,0,0-.81-.33c-.4,0-.73.21-.73.58s.33.57.73.57a1,1,0,0,0,.81-.34Z" transform="translate(0 -1.51)"/><path class="e" d="M41.43,67.31h1v5.33h-1Z" transform="translate(0 -1.51)"/><path class="e" d="M24.31,80.12a2.32,2.32,0,0,0,1.7.72c.62,0,.93-.29.93-.6s-.47-.53-1.08-.68c-.87-.19-2-.44-2-1.63,0-.88.76-1.6,2-1.6a3,3,0,0,1,2.08.74l-.63.83a2.29,2.29,0,0,0-1.53-.58c-.51,0-.78.22-.78.54s.44.47,1.06.62c.88.2,2,.46,2,1.64,0,1-.7,1.72-2.14,1.72A3.08,3.08,0,0,1,23.69,81Z" transform="translate(0 -1.51)"/><path class="e" d="M29,80.78v-2h-.64v-.89H29V76.82h1v1.06h.78v.89H30v1.74c0,.24.13.42.35.42a.52.52,0,0,0,.35-.11l.22.77a1.28,1.28,0,0,1-.85.25A1,1,0,0,1,29,80.78Z" transform="translate(0 -1.51)"/><path class="e" d="M33.77,81.34a1.6,1.6,0,0,1-1.22.5,1.29,1.29,0,0,1-1.35-1.28,1.23,1.23,0,0,1,1.35-1.24,1.54,1.54,0,0,1,1.22.48v-.54c0-.39-.34-.65-.85-.65a1.67,1.67,0,0,0-1.13.46l-.38-.68a2.51,2.51,0,0,1,1.69-.61c.88,0,1.68.35,1.68,1.47v2.49h-1Zm0-1A1,1,0,0,0,33,80c-.4,0-.72.21-.72.58s.32.57.72.57a1,1,0,0,0,.82-.34Z" transform="translate(0 -1.51)"/><path class="e" d="M36,80.78v-2h-.63v-.89H36V76.82h1v1.06h.78v.89H37v1.74c0,.24.13.42.35.42a.52.52,0,0,0,.35-.11l.22.77a1.3,1.3,0,0,1-.85.25A1,1,0,0,1,36,80.78Z" transform="translate(0 -1.51)"/><path class="e" d="M40.25,77.78a1.93,1.93,0,0,1,1.93,2.13v.22H39.31a1.05,1.05,0,0,0,1.12.9,1.58,1.58,0,0,0,1-.39l.44.66a2.37,2.37,0,0,1-1.59.54,2,2,0,0,1-.06-4.06Zm-1,1.67h1.9a.89.89,0,0,0-1-.86A.93.93,0,0,0,39.3,79.45Z" transform="translate(0 -1.51)"/><path class="i" d="M253.49,36.13V82.9a4.28,4.28,0,0,1-4.26,4.26H206.71a4.27,4.27,0,0,1-4.25-4.26V23.38a4.27,4.27,0,0,1,4.25-4.26h29.77a4.23,4.23,0,0,1,3,1.25l12.76,12.76A4.23,4.23,0,0,1,253.49,36.13Z" transform="translate(0 -1.51)"/><path class="d" d="M252.91,34a4.45,4.45,0,0,0-.67-.88L239.48,20.37a4.45,4.45,0,0,0-.88-.67,4.27,4.27,0,0,0-2.12,3.68v8.5a4.26,4.26,0,0,0,4.25,4.25h8.5A4.27,4.27,0,0,0,252.91,34Z" transform="translate(0 -1.51)"/><g class="j"><path class="e" d="M205.9,39h-.4v-.33h.4v-.19a.69.69,0,0,1,.7-.78.66.66,0,0,1,.36.08l-.09.28a.48.48,0,0,0-.22,0c-.24,0-.38.17-.38.47v.19h.49V39h-.49v2.08h-.37Z" transform="translate(0 -1.51)"/><path class="e" d="M208.84,40.72a1.19,1.19,0,0,1-.86.4.68.68,0,0,1-.77-.77v-1.7h.37v1.59c0,.42.22.55.54.55a.92.92,0,0,0,.72-.37V38.65h.37v2.41h-.37Z" transform="translate(0 -1.51)"/><path class="e" d="M211.59,39.48c0-.42-.21-.56-.54-.56a.92.92,0,0,0-.71.38v1.76H210V38.65h.38V39a1.2,1.2,0,0,1,.86-.41.68.68,0,0,1,.77.78v1.69h-.38Z" transform="translate(0 -1.51)"/><path class="e" d="M213.78,38.59a1.05,1.05,0,0,1,.89.42l-.25.23a.73.73,0,0,0-.62-.32.94.94,0,0,0,0,1.87.73.73,0,0,0,.62-.32l.25.23a1.05,1.05,0,0,1-.89.42,1.27,1.27,0,0,1,0-2.53Z" transform="translate(0 -1.51)"/><path class="e" d="M215.27,40.56V39h-.4v-.33h.4V38h.37v.66h.49V39h-.49v1.5c0,.18.08.31.25.31a.38.38,0,0,0,.25-.1l.11.28a.6.6,0,0,1-.45.15A.49.49,0,0,1,215.27,40.56Z" transform="translate(0 -1.51)"/><path class="e" d="M216.6,38a.25.25,0,1,1,.25.25A.25.25,0,0,1,216.6,38Zm.06.66H217v2.41h-.38Z" transform="translate(0 -1.51)"/><path class="e" d="M217.65,39.85a1.2,1.2,0,1,1,1.19,1.27A1.18,1.18,0,0,1,217.65,39.85Zm2,0a.81.81,0,1,0-1.6,0,.81.81,0,1,0,1.6,0Z" transform="translate(0 -1.51)"/><path class="e" d="M222.28,39.48c0-.42-.22-.56-.54-.56a.92.92,0,0,0-.72.38v1.76h-.37V38.65H221V39a1.2,1.2,0,0,1,.86-.41.68.68,0,0,1,.77.78v1.69h-.37Z" transform="translate(0 -1.51)"/><path class="e" d="M223.79,38.54l-.48.32-.11-.2.51-.26-.51-.26.11-.2.48.31,0-.57H224l0,.57.48-.31.12.2-.51.26.51.26-.12.2-.48-.32,0,.58h-.23Z" transform="translate(0 -1.51)"/><path class="e" d="M226.39,38.65h.38V39a1,1,0,0,1,.8-.44V39h-.15a.88.88,0,0,0-.65.38v1.71h-.38Z" transform="translate(0 -1.51)"/><path class="e" d="M227.9,39.85a1.2,1.2,0,1,1,1.2,1.27A1.18,1.18,0,0,1,227.9,39.85Zm2,0a.81.81,0,1,0-1.61,0,.81.81,0,1,0,1.61,0Z" transform="translate(0 -1.51)"/><path class="e" d="M230.76,39.85a1.2,1.2,0,1,1,2.4,0,1.2,1.2,0,1,1-2.4,0Zm2,0a.81.81,0,1,0-.8.94A.84.84,0,0,0,232.76,39.85Z" transform="translate(0 -1.51)"/><path class="e" d="M233.84,40.56V39h-.4v-.33h.4V38h.37v.66h.49V39h-.49v1.5c0,.18.08.31.25.31a.38.38,0,0,0,.25-.1l.11.28a.6.6,0,0,1-.45.15A.49.49,0,0,1,233.84,40.56Z" transform="translate(0 -1.51)"/><path class="e" d="M235.29,40.28a1.42,1.42,0,0,0,1.05.47c.6,0,.79-.32.79-.57s-.41-.51-.85-.63-1.13-.29-1.13-.95.49-.92,1.15-.92a1.6,1.6,0,0,1,1.19.46l-.26.31a1.26,1.26,0,0,0-1-.4c-.4,0-.69.21-.69.53s.39.43.81.55,1.17.31,1.17,1c0,.49-.33,1-1.23,1a1.64,1.64,0,0,1-1.28-.53Z" transform="translate(0 -1.51)"/><path class="e" d="M239.67,40.79a1,1,0,0,1-.8.33.8.8,0,0,1-.84-.8.78.78,0,0,1,.84-.79,1,1,0,0,1,.8.33v-.44c0-.32-.26-.51-.61-.51a1,1,0,0,0-.74.34l-.17-.26a1.26,1.26,0,0,1,1-.4c.51,0,.94.23.94.81v1.66h-.38Zm0-.69a.8.8,0,0,0-.66-.3.53.53,0,1,0,0,1.05.8.8,0,0,0,.66-.3Z" transform="translate(0 -1.51)"/><path class="e" d="M241,41.4a.93.93,0,0,0,.79.33.68.68,0,0,0,.77-.72v-.35a1,1,0,0,1-.81.43c-.63,0-1.07-.47-1.07-1.25a1.1,1.1,0,0,1,1.07-1.25,1,1,0,0,1,.81.42v-.36h.38V41c0,.8-.56,1-1.15,1a1.28,1.28,0,0,1-1-.35Zm1.56-2.09a.88.88,0,0,0-.72-.39c-.48,0-.77.39-.77.92s.29.92.77.92a.88.88,0,0,0,.72-.39Z" transform="translate(0 -1.51)"/><path class="e" d="M245.18,40.79a1,1,0,0,1-.8.33.81.81,0,0,1-.85-.8.79.79,0,0,1,.85-.79,1,1,0,0,1,.8.33v-.44c0-.32-.26-.51-.61-.51a1,1,0,0,0-.74.34l-.18-.26a1.27,1.27,0,0,1,1-.4c.51,0,.93.23.93.81v1.66h-.37Zm0-.69a.82.82,0,0,0-.67-.3.53.53,0,1,0,0,1.05.82.82,0,0,0,.67-.3Z" transform="translate(0 -1.51)"/><path class="e" d="M246.15,39.85a3.77,3.77,0,0,1,.7-2.21l.23.17a4.24,4.24,0,0,0,0,4.07l-.23.18A3.8,3.8,0,0,1,246.15,39.85Z" transform="translate(0 -1.51)"/><path class="e" d="M247.25,37.81l.23-.17a3.79,3.79,0,0,1,0,4.42l-.23-.18a4.17,4.17,0,0,0,0-4.07Z" transform="translate(0 -1.51)"/><path class="e" d="M250,41.34v-1c0-.18-.08-.34-.26-.34v-.25c.18,0,.26-.16.26-.35v-1a.65.65,0,0,1,.63-.68h.3V38h-.3a.36.36,0,0,0-.33.4v1a.43.43,0,0,1-.23.44.43.43,0,0,1,.23.44v1.06a.37.37,0,0,0,.33.4h.3V42h-.3A.65.65,0,0,1,250,41.34Z" transform="translate(0 -1.51)"/><path class="e" d="M209.18,43.63h.3l-1.19,3.53H208Z" transform="translate(0 -1.51)"/><path class="e" d="M210.66,43.63h.3l-1.19,3.53h-.29Z" transform="translate(0 -1.51)"/><path class="e" d="M212.82,46.56a.29.29,0,0,1,.28.28.28.28,0,0,1-.28.27.27.27,0,0,1-.27-.27A.28.28,0,0,1,212.82,46.56Z" transform="translate(0 -1.51)"/><path class="e" d="M214,46.56a.29.29,0,0,1,.28.28.28.28,0,0,1-.28.27.27.27,0,0,1-.27-.27A.28.28,0,0,1,214,46.56Z" transform="translate(0 -1.51)"/><path class="e" d="M215.12,46.56a.29.29,0,0,1,.28.28.28.28,0,0,1-.28.27.27.27,0,0,1-.27-.27A.28.28,0,0,1,215.12,46.56Z" transform="translate(0 -1.51)"/><path class="e" d="M205.81,53.74a.37.37,0,0,0,.33-.4V52.28a.42.42,0,0,1,.23-.44.42.42,0,0,1-.23-.44v-1a.36.36,0,0,0-.33-.4h-.31v-.28h.31a.64.64,0,0,1,.62.68v1c0,.19.09.35.26.35V52c-.17,0-.26.16-.26.34v1a.64.64,0,0,1-.62.68h-.31v-.28Z" transform="translate(0 -1.51)"/></g><path class="f" d="M222.57,71.23h-.83v1.91h-1.13V67.81h2.49a1.66,1.66,0,0,1,1.79,1.72,1.53,1.53,0,0,1-1.17,1.58l1.2,2h-1.3Zm.36-2.45h-1.19v1.47h1.19a.73.73,0,0,0,.8-.73A.74.74,0,0,0,222.93,68.78Z" transform="translate(0 -1.51)"/><path class="f" d="M225.24,71.21a2,2,0,1,1,2,2A2,2,0,0,1,225.24,71.21Zm3,0a1,1,0,1,0-1,1.12A1,1,0,0,0,228.27,71.21Z" transform="translate(0 -1.51)"/><path class="f" d="M229.83,71.21a2,2,0,1,1,2,2A2,2,0,0,1,229.83,71.21Zm3,0a1,1,0,1,0-1,1.12A1,1,0,0,0,232.86,71.21Z" transform="translate(0 -1.51)"/><path class="f" d="M234.87,72.18v-2h-.64v-.89h.64V68.22h1v1.06h.79v.89h-.79v1.74c0,.24.13.42.36.42a.54.54,0,0,0,.35-.11l.21.77a1.28,1.28,0,0,1-.85.25A1,1,0,0,1,234.87,72.18Z" transform="translate(0 -1.51)"/><path class="f" d="M220.17,80.62a2.32,2.32,0,0,0,1.7.72c.62,0,.93-.29.93-.6s-.47-.53-1.08-.68c-.87-.19-2-.44-2-1.63,0-.88.76-1.6,2-1.6a3,3,0,0,1,2.08.74l-.63.83a2.29,2.29,0,0,0-1.53-.58c-.51,0-.78.22-.78.54s.44.47,1.06.62c.88.2,2,.46,2,1.64,0,1-.7,1.72-2.14,1.72a3.08,3.08,0,0,1-2.26-.85Z" transform="translate(0 -1.51)"/><path class="f" d="M227,81.84a1.6,1.6,0,0,1-1.22.5,1.28,1.28,0,0,1-1.34-1.28,1.22,1.22,0,0,1,1.34-1.24,1.52,1.52,0,0,1,1.22.48v-.54c0-.39-.33-.65-.84-.65a1.65,1.65,0,0,0-1.13.46l-.39-.68a2.53,2.53,0,0,1,1.69-.61c.88,0,1.69.35,1.69,1.47v2.49h-1Zm0-1a1,1,0,0,0-.81-.33c-.4,0-.73.21-.73.58s.33.57.73.57a1,1,0,0,0,.81-.34Z" transform="translate(0 -1.51)"/><path class="f" d="M229.41,82.5a1.55,1.55,0,0,0,1.21.47.94.94,0,0,0,1.06-1v-.39a1.5,1.5,0,0,1-1.19.6c-1,0-1.7-.67-1.7-2a1.73,1.73,0,0,1,1.7-2,1.48,1.48,0,0,1,1.19.59v-.49h1V82c0,1.47-1.14,1.83-2.09,1.83a2.35,2.35,0,0,1-1.66-.58Zm2.27-2.88a1.09,1.09,0,0,0-.87-.43,1.06,1.06,0,0,0,0,2.12,1.1,1.1,0,0,0,.87-.44Z" transform="translate(0 -1.51)"/><path class="f" d="M236,81.84a1.62,1.62,0,0,1-1.23.5,1.29,1.29,0,0,1-1.34-1.28,1.23,1.23,0,0,1,1.34-1.24,1.55,1.55,0,0,1,1.23.48v-.54c0-.39-.34-.65-.85-.65a1.65,1.65,0,0,0-1.13.46l-.38-.68a2.51,2.51,0,0,1,1.69-.61c.88,0,1.68.35,1.68,1.47v2.49h-1Zm0-1a1,1,0,0,0-.82-.33c-.4,0-.73.21-.73.58s.33.57.73.57a1,1,0,0,0,.82-.34Z" transform="translate(0 -1.51)"/><path class="e" d="M222.07,70.73h-.83v1.91h-1.13V67.31h2.49A1.66,1.66,0,0,1,224.39,69a1.53,1.53,0,0,1-1.17,1.58l1.2,2h-1.3Zm.36-2.45h-1.19v1.47h1.19a.73.73,0,0,0,.8-.73A.74.74,0,0,0,222.43,68.28Z" transform="translate(0 -1.51)"/><path class="e" d="M224.74,70.71a2,2,0,1,1,2,2A2,2,0,0,1,224.74,70.71Zm3,0a1,1,0,1,0-1,1.12A1,1,0,0,0,227.77,70.71Z" transform="translate(0 -1.51)"/><path class="e" d="M229.33,70.71a2,2,0,1,1,2,2A2,2,0,0,1,229.33,70.71Zm3,0a1,1,0,1,0-1,1.12A1,1,0,0,0,232.36,70.71Z" transform="translate(0 -1.51)"/><path class="e" d="M234.37,71.68v-2h-.64v-.89h.64V67.72h1v1.06h.79v.89h-.79v1.74c0,.24.13.42.36.42a.54.54,0,0,0,.35-.11l.21.77a1.28,1.28,0,0,1-.85.25A1,1,0,0,1,234.37,71.68Z" transform="translate(0 -1.51)"/><path class="e" d="M219.67,80.12a2.32,2.32,0,0,0,1.7.72c.62,0,.93-.29.93-.6s-.47-.53-1.08-.68c-.87-.19-2-.44-2-1.63,0-.88.76-1.6,2-1.6a3,3,0,0,1,2.08.74l-.63.83a2.29,2.29,0,0,0-1.53-.58c-.51,0-.78.22-.78.54s.44.47,1.06.62c.88.2,2,.46,2,1.64,0,1-.7,1.72-2.14,1.72a3.08,3.08,0,0,1-2.26-.85Z" transform="translate(0 -1.51)"/><path class="e" d="M226.51,81.34a1.6,1.6,0,0,1-1.22.5A1.28,1.28,0,0,1,224,80.56a1.22,1.22,0,0,1,1.34-1.24,1.52,1.52,0,0,1,1.22.48v-.54c0-.39-.33-.65-.84-.65a1.65,1.65,0,0,0-1.13.46l-.39-.68a2.53,2.53,0,0,1,1.69-.61c.88,0,1.69.35,1.69,1.47v2.49h-1Zm0-1a1,1,0,0,0-.81-.33c-.4,0-.73.21-.73.58s.33.57.73.57a1,1,0,0,0,.81-.34Z" transform="translate(0 -1.51)"/><path class="e" d="M228.91,82a1.55,1.55,0,0,0,1.21.47.94.94,0,0,0,1.06-1v-.39a1.5,1.5,0,0,1-1.19.6c-1,0-1.7-.67-1.7-2a1.73,1.73,0,0,1,1.7-2,1.48,1.48,0,0,1,1.19.59v-.49h1v3.6c0,1.47-1.14,1.83-2.09,1.83a2.35,2.35,0,0,1-1.66-.58Zm2.27-2.88a1.09,1.09,0,0,0-.87-.43,1.06,1.06,0,0,0,0,2.12,1.1,1.1,0,0,0,.87-.44Z" transform="translate(0 -1.51)"/><path class="e" d="M235.54,81.34a1.62,1.62,0,0,1-1.23.5A1.29,1.29,0,0,1,233,80.56a1.23,1.23,0,0,1,1.34-1.24,1.55,1.55,0,0,1,1.23.48v-.54c0-.39-.34-.65-.85-.65a1.65,1.65,0,0,0-1.13.46l-.38-.68a2.51,2.51,0,0,1,1.69-.61c.88,0,1.68.35,1.68,1.47v2.49h-1Zm0-1a1,1,0,0,0-.82-.33c-.4,0-.73.21-.73.58s.33.57.73.57a1,1,0,0,0,.82-.34Z" transform="translate(0 -1.51)"/><polygon class="k" points="103.7 0 104.92 0.74 106.13 0 106.81 1.25 108.23 1.21 108.19 2.63 109.44 3.31 108.7 4.52 109.44 5.74 108.19 6.41 108.23 7.83 106.81 7.8 106.13 9.05 104.92 8.3 103.7 9.05 103.03 7.8 101.61 7.83 101.64 6.41 100.39 5.74 101.14 4.52 100.39 3.31 101.64 2.63 101.61 1.21 103.03 1.25 103.7 0"/></svg>