<svg xmlns="http://www.w3.org/2000/svg" viewBox="0 0 250.52 84.65"><defs><style>.a{fill:#1791ff;}.b{fill:#b3b2b3;}.c{fill:#6ac28f;}.d{fill:#fff;}</style></defs><title>covenant-chains</title><path class="a" d="M192.87,3.26a2.64,2.64,0,0,0-1,.21,42.42,42.42,0,0,0-9.5,5.59,2.64,2.64,0,0,0,3.24,4.16,37.4,37.4,0,0,1,8.32-4.89,2.64,2.64,0,0,0-1-5.07Z"/><path class="a" d="M200.54,1.84a2.6,2.6,0,0,0-.32,1.68,2.64,2.64,0,0,0,3,2.25,37.11,37.11,0,0,1,9.65-.09,2.64,2.64,0,1,0,.63-5.24,42.36,42.36,0,0,0-11,.1A2.67,2.67,0,0,0,200.54,1.84Z"/><path class="a" d="M234.44,9.48a2.56,2.56,0,0,0-.69-.78,42.44,42.44,0,0,0-9.59-5.44,2.64,2.64,0,0,0-2,4.89,37.44,37.44,0,0,1,8.4,4.76,2.64,2.64,0,0,0,3.87-3.43Z"/><path class="a" d="M247.4,27a2.71,2.71,0,0,0-.21-1,42.64,42.64,0,0,0-5.59-9.5,2.64,2.64,0,1,0-4.16,3.25A37.56,37.56,0,0,1,242.33,28a2.64,2.64,0,0,0,5.07-1Z"/><path class="a" d="M249.87,48.6a2.58,2.58,0,0,0,.34-1,42.35,42.35,0,0,0-.09-11,2.64,2.64,0,1,0-5.23.73A37.56,37.56,0,0,1,245,47a2.64,2.64,0,0,0,4.9,1.64Z"/><path class="a" d="M247.28,55.93a2.65,2.65,0,0,0-4.74.34,37.29,37.29,0,0,1-4.74,8.39A2.64,2.64,0,1,0,242,67.84a42.47,42.47,0,0,0,5.43-9.6A2.63,2.63,0,0,0,247.28,55.93Z"/><path class="a" d="M235,72.3a2.73,2.73,0,0,0-.21-.3,2.63,2.63,0,0,0-3.7-.46,37.71,37.71,0,0,1-4.23,2.85,37.11,37.11,0,0,1-4.09,2l-.14.06a2.64,2.64,0,1,0,2.08,4.85l.1,0A41,41,0,0,0,229.45,79a41.39,41.39,0,0,0,4.84-3.26A2.64,2.64,0,0,0,235,72.3Z"/><path class="a" d="M215.94,80.33A2.64,2.64,0,0,0,213.3,79a36.6,36.6,0,0,1-9.64,0,2.64,2.64,0,1,0-.67,5.24,42,42,0,0,0,11-.06,2.64,2.64,0,0,0,2.25-3A2.61,2.61,0,0,0,215.94,80.33Z"/><path class="a" d="M179,17.18a2.64,2.64,0,0,0-4.39-.27,42,42,0,0,0-5.45,9.58,2.64,2.64,0,1,0,4.89,2,37.24,37.24,0,0,1,4.77-8.39A2.64,2.64,0,0,0,179,17.18Z"/><path class="a" d="M195.62,77.75a2.68,2.68,0,0,0-1.29-1.12,37.19,37.19,0,0,1-8.39-4.77,2.64,2.64,0,1,0-3.18,4.21,42.51,42.51,0,0,0,9.57,5.45,2.64,2.64,0,0,0,3.29-3.77Z"/><path class="a" d="M179.29,65.38a2.73,2.73,0,0,0-.21-.3,37.23,37.23,0,0,1-4.82-8.23,2.68,2.68,0,0,0-3.48-1.45,2.59,2.59,0,0,0-1.43,3.4s.06.14.07.15a42.52,42.52,0,0,0,5.49,9.37,2.64,2.64,0,0,0,4.38-2.94Z"/><circle class="a" cx="208.28" cy="42.4" r="33"/><path class="a" d="M157.6,42.36A2.64,2.64,0,0,0,160.24,45h2.67a4.11,4.11,0,0,1,3.17,2s.14.32.42.91a2.64,2.64,0,0,0,4.76-2.28l-.37-.79a9.23,9.23,0,0,0-8-5.17h-2.67A2.64,2.64,0,0,0,157.6,42.36Z"/><path class="b" d="M149.68,45h-1.32a2.64,2.64,0,0,1,0-5.28h1.32a2.64,2.64,0,0,1,0,5.28ZM137.8,45h-1.32a2.64,2.64,0,1,1,0-5.28h1.32a2.64,2.64,0,0,1,0,5.28Zm-11.88,0H124.6a2.64,2.64,0,0,1,0-5.28h1.32a2.64,2.64,0,1,1,0,5.28ZM114,45h-1.32a2.64,2.64,0,0,1,0-5.28H114A2.64,2.64,0,1,1,114,45Zm-11.88,0h-1.32a2.64,2.64,0,0,1,0-5.28h1.32a2.64,2.64,0,0,1,0,5.28Z"/><path class="c" d="M26.83,3.13a2.64,2.64,0,0,0-1,.21,42.42,42.42,0,0,0-9.5,5.59,2.64,2.64,0,0,0,3.24,4.17,37.06,37.06,0,0,1,8.32-4.9,2.64,2.64,0,0,0-1-5.07Z"/><path class="c" d="M34.5,1.71a2.65,2.65,0,0,0,2.66,3.93,37,37,0,0,1,9.64-.09A2.64,2.64,0,0,0,47.44.31a42.8,42.8,0,0,0-11,.1A2.67,2.67,0,0,0,34.5,1.71Z"/><path class="c" d="M81.36,26.84a2.62,2.62,0,0,0-.21-1,42.2,42.2,0,0,0-5.59-9.5,2.64,2.64,0,0,0-4.16,3.24,37.4,37.4,0,0,1,4.89,8.32,2.64,2.64,0,0,0,5.07-1Z"/><path class="c" d="M81.24,55.8a2.65,2.65,0,0,0-4.74.34,37.29,37.29,0,0,1-4.74,8.39A2.64,2.64,0,1,0,76,67.71a42.41,42.41,0,0,0,5.43-9.59A2.69,2.69,0,0,0,81.24,55.8Z"/><path class="c" d="M49.9,80.2a2.64,2.64,0,0,0-2.64-1.3,36.6,36.6,0,0,1-9.64,0A2.64,2.64,0,1,0,37,84.19a41.56,41.56,0,0,0,11-.06A2.63,2.63,0,0,0,49.9,80.2Z"/><path class="c" d="M13,17.05a2.59,2.59,0,0,0-.7-.78,2.64,2.64,0,0,0-3.7.51,42.59,42.59,0,0,0-5.44,9.58,2.64,2.64,0,0,0,4.89,2A37.24,37.24,0,0,1,12.77,20,2.64,2.64,0,0,0,13,17.05Z"/><path class="c" d="M29.57,77.62a2.61,2.61,0,0,0-1.28-1.12,37.19,37.19,0,0,1-8.39-4.77,2.64,2.64,0,0,0-3.19,4.21,42.41,42.41,0,0,0,9.58,5.45,2.64,2.64,0,0,0,3.28-3.77Z"/><path class="c" d="M13.25,65.25A2.73,2.73,0,0,0,13,65a37.23,37.23,0,0,1-4.82-8.23,2.68,2.68,0,0,0-3.48-1.45,2.6,2.6,0,0,0-1.43,3.4s.06.14.07.15a42.52,42.52,0,0,0,5.49,9.37,2.64,2.64,0,0,0,4.38-2.94Z"/><path class="c" d="M55.82,3.27A2.65,2.65,0,0,0,56.16,8a37.29,37.29,0,0,1,8.39,4.74,2.64,2.64,0,1,0,3.18-4.21,42.41,42.41,0,0,0-9.59-5.43A2.65,2.65,0,0,0,55.82,3.27Z"/><path class="c" d="M69.25,73.49A2.65,2.65,0,0,0,65,71.41a36.77,36.77,0,0,1-8.31,4.9,2.64,2.64,0,0,0,2.07,4.86,42.39,42.39,0,0,0,9.49-5.6A2.63,2.63,0,0,0,69.25,73.49Z"/><path class="c" d="M5.64,47.68c0-.12,0-.24,0-.36a37.22,37.22,0,0,1-.06-9.55,2.68,2.68,0,0,0-2.29-3A2.59,2.59,0,0,0,.33,37s0,.15,0,.16A42.92,42.92,0,0,0,.39,48a2.64,2.64,0,0,0,5.25-.35Z"/><circle class="c" cx="42.24" cy="42.28" r="33"/><path class="c" d="M92.92,42.32a2.64,2.64,0,0,0-2.64-2.64H87.62a4.06,4.06,0,0,1-3.17-2L84,36.72A2.64,2.64,0,0,0,79.26,39c.24.49.36.77.37.79a9.24,9.24,0,0,0,8,5.17h2.66A2.64,2.64,0,0,0,92.92,42.32Z"/><path class="d" d="M22.41,45.72c-2.47,0-4-1.65-4-4.26s1.56-4.29,4.06-4.29a4.22,4.22,0,0,1,2.18.54l-.29,1.84a2.87,2.87,0,0,0-1.79-.67c-1.29,0-2.12,1-2.12,2.56S21.37,44,22.66,44a3.45,3.45,0,0,0,1.88-.64l.27,1.72A4.67,4.67,0,0,1,22.41,45.72Z"/><path class="d" d="M28.26,45.7a2.78,2.78,0,0,1-2.81-3.05,2.83,2.83,0,1,1,5.64,0A2.81,2.81,0,0,1,28.26,45.7Zm0-4.64c-.7,0-1.07.62-1.07,1.58s.38,1.59,1.07,1.59,1.08-.63,1.08-1.58S29,41.06,28.27,41.06Z"/><path class="d" d="M35.19,45.6H33.38l-2-5.75,1.94-.23,1.09,3.7,1.06-3.61h1.77Z"/><path class="d" d="M40.51,45.7a2.75,2.75,0,0,1-3-3,2.78,2.78,0,0,1,2.77-3.08c1.81,0,2.6,1.34,2.6,3a2.91,2.91,0,0,1,0,.47H39.29a1.3,1.3,0,0,0,1.45,1.28,3.88,3.88,0,0,0,1.93-.62L42.85,45A4.35,4.35,0,0,1,40.51,45.7Zm-1.22-3.6h1.84c-.06-.88-.37-1.34-.92-1.34S39.34,41.19,39.29,42.1Z"/><path class="d" d="M47.23,45.58V41.9c0-.42-.17-.71-.6-.71a1.47,1.47,0,0,0-1,.53v3.86H43.83V39.71h1.59l.13.8a2.57,2.57,0,0,1,1.84-.92c1.09,0,1.66.67,1.66,1.82v4.17Z"/><path class="d" d="M53.53,45.58l-.12-.73a2.44,2.44,0,0,1-1.84.85A1.49,1.49,0,0,1,50,44.07c0-1.38,1.06-2,3.36-2.23v-.11c0-.51-.29-.74-.89-.74a4.66,4.66,0,0,0-1.89.44l-.22-1.36a6,6,0,0,1,2.39-.46c1.61,0,2.42.54,2.42,2v3.93Zm-.2-2.87c-1.24.2-1.57.6-1.57,1.12a.53.53,0,0,0,.57.57,1.52,1.52,0,0,0,1-.44Z"/><path class="d" d="M59.74,45.58V41.9c0-.42-.17-.71-.6-.71a1.51,1.51,0,0,0-1,.53v3.86H56.33V39.71h1.6l.13.8a2.57,2.57,0,0,1,1.83-.92c1.09,0,1.67.67,1.67,1.82v4.17Z"/><path class="d" d="M65.22,45.66c-1.25,0-2.13-.45-2.13-1.95V41.18h-.78V39.71h.78V38l1.8-.29v2H66l.23,1.47H64.89v2.24a.63.63,0,0,0,.72.7,2,2,0,0,0,.44-.06l.21,1.48A3.52,3.52,0,0,1,65.22,45.66Z"/><path class="d" d="M188.66,45.72c-2.47,0-4-1.65-4-4.26s1.57-4.29,4.07-4.29a4.15,4.15,0,0,1,2.17.54l-.28,1.84a2.87,2.87,0,0,0-1.79-.67c-1.29,0-2.12,1-2.12,2.56s.88,2.57,2.17,2.57a3.45,3.45,0,0,0,1.88-.64l.26,1.72A4.6,4.6,0,0,1,188.66,45.72Z"/><path class="d" d="M194.51,45.7a2.78,2.78,0,0,1-2.81-3.05,2.83,2.83,0,1,1,5.64,0A2.81,2.81,0,0,1,194.51,45.7Zm0-4.64c-.7,0-1.07.62-1.07,1.58s.38,1.59,1.07,1.59,1.07-.63,1.07-1.58S195.21,41.06,194.52,41.06Z"/><path class="d" d="M201.44,45.6h-1.81l-2-5.75,1.94-.23,1.09,3.7,1-3.61h1.78Z"/><path class="d" d="M206.76,45.7a2.75,2.75,0,0,1-3-3,2.78,2.78,0,0,1,2.77-3.08c1.81,0,2.6,1.34,2.6,3,0,.18,0,.37,0,.47h-3.54A1.3,1.3,0,0,0,207,44.38a3.88,3.88,0,0,0,1.93-.62l.17,1.28A4.29,4.29,0,0,1,206.76,45.7Zm-1.22-3.6h1.84c-.06-.88-.37-1.34-.92-1.34S205.59,41.19,205.54,42.1Z"/><path class="d" d="M213.48,45.58V41.9c0-.42-.17-.71-.6-.71a1.47,1.47,0,0,0-1,.53v3.86h-1.81V39.71h1.59l.13.8a2.57,2.57,0,0,1,1.83-.92c1.1,0,1.67.67,1.67,1.82v4.17Z"/><path class="d" d="M219.78,45.58l-.12-.73a2.44,2.44,0,0,1-1.84.85,1.49,1.49,0,0,1-1.6-1.63c0-1.38,1.06-2,3.36-2.23v-.11c0-.51-.29-.74-.89-.74a4.66,4.66,0,0,0-1.89.44l-.22-1.36a6,6,0,0,1,2.39-.46c1.61,0,2.42.54,2.42,2v3.93Zm-.2-2.87c-1.24.2-1.57.6-1.57,1.12a.53.53,0,0,0,.57.57,1.52,1.52,0,0,0,1-.44Z"/><path class="d" d="M226,45.58V41.9c0-.42-.17-.71-.6-.71a1.51,1.51,0,0,0-1,.53v3.86h-1.81V39.71h1.6l.13.8a2.57,2.57,0,0,1,1.83-.92c1.09,0,1.67.67,1.67,1.82v4.17Z"/><path class="d" d="M231.47,45.66c-1.26,0-2.13-.45-2.13-1.95V41.18h-.78V39.71h.78V38l1.8-.29v2h1.11l.23,1.47h-1.34v2.24a.63.63,0,0,0,.72.7,2,2,0,0,0,.44-.06l.21,1.48A3.52,3.52,0,0,1,231.47,45.66Z"/></svg>