<svg xmlns="http://www.w3.org/2000/svg" viewBox="0 0 390.58 252.7"><defs><style>.a{fill:#1791ff;}.b{fill:#fff;}.c{fill:#fe7862;}.d{fill:#56d695;}.e{fill:#b3b3b3;}.f{fill:#2b388f;}</style></defs><title>covenant-city</title><path class="a" d="M130.61,128.17a2,2,0,0,1,.85,1,2,2,0,0,1-1.1,2.6,28.1,28.1,0,0,0-6.36,3.6,2,2,0,0,1-2.41-3.2,32.14,32.14,0,0,1,7.27-4.1A2,2,0,0,1,130.61,128.17Z"/><path class="a" d="M120.44,181.36a2,2,0,0,1,3.23-1.57,28.5,28.5,0,0,0,6.3,3.71,2,2,0,1,1-1.57,3.68,32.37,32.37,0,0,1-7.19-4.24A2,2,0,0,1,120.44,181.36Z"/><path class="a" d="M134.73,187.43c0-.09,0-.18,0-.28a2,2,0,0,1,2.26-1.7,27.58,27.58,0,0,0,3.85.27,28.4,28.4,0,0,0,3.45-.21l.12,0a2,2,0,0,1,.48,4h-.08a31.47,31.47,0,0,1-4,.25,31,31,0,0,1-4.41-.31A2,2,0,0,1,134.73,187.43Z"/><path class="a" d="M150.24,185.5a2,2,0,0,1,1.25-1.85,28.26,28.26,0,0,0,6.34-3.62,2,2,0,1,1,2.42,3.18,31.85,31.85,0,0,1-7.26,4.14,2,2,0,0,1-2.75-1.85Z"/><path class="a" d="M150.57,130.07a2.16,2.16,0,0,1,.15-.78,2,2,0,0,1,2.63-1.06,32.52,32.52,0,0,1,7.2,4.22,2,2,0,0,1-2.46,3.16,28.08,28.08,0,0,0-6.3-3.7A2,2,0,0,1,150.57,130.07Z"/><path class="a" d="M168.63,161.81a1.37,1.37,0,0,1,0-.28,28.21,28.21,0,0,0,0-7.23,2,2,0,0,1,1.74-2.27,2,2,0,0,1,2.22,1.7s0,.11,0,.12a32.4,32.4,0,0,1-.06,8.23,2,2,0,0,1-4-.27Z"/><circle class="a" cx="140.9" cy="157.72" r="25"/><path class="b" d="M136.42,154.82a2.9,2.9,0,0,1-3-3.23,3,3,0,0,1,3.08-3.25,3.23,3.23,0,0,1,1.65.41l-.22,1.4a2.16,2.16,0,0,0-1.35-.51c-1,0-1.61.74-1.61,1.94s.67,1.95,1.65,1.95A2.59,2.59,0,0,0,138,153l.2,1.3A3.5,3.5,0,0,1,136.42,154.82Z"/><path class="b" d="M139.71,149.69a.75.75,0,1,1,.78-.74A.74.74,0,0,1,139.71,149.69Zm-.69,5v-4.45h1.38v4.45Z"/><path class="b" d="M143.23,154.78c-.95,0-1.62-.35-1.62-1.48v-1.92H141v-1.11h.59v-1.33l1.37-.22v1.55h.84l.17,1.11h-1v1.7a.47.47,0,0,0,.54.53,1.21,1.21,0,0,0,.34-.05l.16,1.13A2.76,2.76,0,0,1,143.23,154.78Z"/><path class="b" d="M144.65,156.31l-.18-1.1a1.94,1.94,0,0,0,.55.07.79.79,0,0,0,.79-.55l-1.62-4.35,1.47-.18.86,2.84.8-2.77h1.35l-1.59,4.55c-.4,1.16-.94,1.55-1.89,1.55A2,2,0,0,1,144.65,156.31Z"/><path class="b" d="M122.58,164.63h-2.1v-6.27h2.14c1.42,0,2.13.61,2.13,1.63a1.38,1.38,0,0,1-.91,1.32,1.47,1.47,0,0,1,1.14,1.51C125,164,124.07,164.63,122.58,164.63Zm-.07-5.15H122v1.42h.52c.58,0,.89-.29.89-.74S123.11,159.48,122.51,159.48Zm0,2.41H122v1.62h.58c.62,0,1-.26,1-.8S123.17,161.89,122.51,161.89Z"/><path class="b" d="M125.79,164.63v-6.34l1.38-.22v6.56Z"/><path class="b" d="M130.05,164.72a2.1,2.1,0,0,1-2.13-2.31,2.15,2.15,0,1,1,2.13,2.31Zm0-3.52c-.53,0-.81.48-.81,1.2s.29,1.21.81,1.21.82-.48.82-1.2S130.58,161.2,130.06,161.2Z"/><path class="b" d="M134.86,164.71a2.06,2.06,0,0,1-2.15-2.27,2.12,2.12,0,0,1,2.21-2.33,2.63,2.63,0,0,1,1.32.33l-.18,1.17a1.77,1.77,0,0,0-1-.32c-.56,0-1,.37-1,1.11s.44,1.13,1,1.13a1.75,1.75,0,0,0,1-.34l.16,1.13A2.58,2.58,0,0,1,134.86,164.71Z"/><path class="b" d="M138.4,162.55v2.08H137v-6.34l1.37-.22V162l1.17-1.81h1.51l-1.42,2,1.45,2.27-1.43.2Z"/><path class="b" d="M143.47,164.71a2.06,2.06,0,0,1-2.15-2.27,2.12,2.12,0,0,1,2.21-2.33,2.6,2.6,0,0,1,1.32.33l-.18,1.17a1.77,1.77,0,0,0-1-.32c-.56,0-1,.37-1,1.11s.44,1.13,1,1.13a1.74,1.74,0,0,0,1-.34l.17,1.13A2.61,2.61,0,0,1,143.47,164.71Z"/><path class="b" d="M148.22,164.63v-2.79c0-.32-.13-.54-.46-.54a1.12,1.12,0,0,0-.75.4v2.93h-1.37v-6.34l1.37-.22v2.66a1.88,1.88,0,0,1,1.33-.64c.82,0,1.26.51,1.26,1.38v3.16Z"/><path class="b" d="M153,164.63l-.09-.56a1.85,1.85,0,0,1-1.4.65,1.13,1.13,0,0,1-1.21-1.24c0-1,.8-1.53,2.55-1.69v-.08c0-.39-.22-.56-.67-.56a3.49,3.49,0,0,0-1.44.34l-.16-1a4.58,4.58,0,0,1,1.8-.34c1.23,0,1.84.41,1.84,1.54v3Zm-.15-2.17c-.94.14-1.19.45-1.19.84a.4.4,0,0,0,.43.44,1.16,1.16,0,0,0,.76-.34Z"/><path class="b" d="M155.83,159.6a.74.74,0,0,1-.78-.74.74.74,0,0,1,.78-.75.73.73,0,0,1,.78.75A.72.72,0,0,1,155.83,159.6Zm-.69,5v-4.45h1.38v4.45Z"/><path class="b" d="M160.07,164.63v-2.79c0-.32-.13-.54-.45-.54a1.14,1.14,0,0,0-.76.4v2.93h-1.37v-4.45h1.21l.1.61a1.94,1.94,0,0,1,1.39-.7c.82,0,1.26.51,1.26,1.38v3.16Z"/><path class="a" d="M109.39,162.41a2,2,0,0,1-.25-.76,32,32,0,0,1,.07-8.35,2,2,0,0,1,4,.56,27.88,27.88,0,0,0-.06,7.3,2,2,0,0,1-1.74,2.23A2,2,0,0,1,109.39,162.41Z"/><path class="a" d="M107.68,176.89a2,2,0,0,1,.74-2.73l1.74-1a3.11,3.11,0,0,0,1.31-2.55s0-.26-.07-.75a2,2,0,0,1,4-.31c0,.41,0,.64,0,.66a7,7,0,0,1-3.28,6.42l-1.74,1A2,2,0,0,1,107.68,176.89Z"/><path class="c" d="M224.74,240.54a2,2,0,0,1-.6-.53,32.38,32.38,0,0,1-4.12-7.27,2,2,0,0,1,3.71-1.5,28.1,28.1,0,0,0,3.6,6.36,2,2,0,0,1-2.59,2.94Z"/><path class="c" d="M229.23,244.38a2,2,0,0,1,3.23-1.57,28.5,28.5,0,0,0,6.3,3.71,2,2,0,0,1-1.56,3.68A32.6,32.6,0,0,1,230,246,2,2,0,0,1,229.23,244.38Z"/><path class="c" d="M254.37,252.2a2.16,2.16,0,0,1-.75.26,32.42,32.42,0,0,1-8.35-.07,2,2,0,1,1,.55-4,28.84,28.84,0,0,0,7.31.06,2,2,0,0,1,1.24,3.71Z"/><path class="c" d="M280.39,226.59a2.07,2.07,0,0,1-1.28.25,2,2,0,0,1-1.7-2.26,28,28,0,0,0,.06-7.31,2,2,0,1,1,4-.48,31.9,31.9,0,0,1-.07,8.34A2,2,0,0,1,280.39,226.59Z"/><path class="c" d="M269.07,198.72a2,2,0,0,1-2.23-.16,28.39,28.39,0,0,0-6.3-3.68,2,2,0,1,1,1.54-3.69,32,32,0,0,1,7.22,4.21,2,2,0,0,1,.35,2.81A2.15,2.15,0,0,1,269.07,198.72Z"/><path class="c" d="M220.9,226.15a1.9,1.9,0,0,1-.75.25,2,2,0,0,1-2.23-1.74,32.42,32.42,0,0,1,.06-8.35,2,2,0,0,1,4,.55,28.39,28.39,0,0,0-.05,7.31A2,2,0,0,1,220.9,226.15Z"/><path class="c" d="M254.76,192.71a2.06,2.06,0,0,1-1.27.25,28,28,0,0,0-7.31-.05,2,2,0,1,1-.5-4A32,32,0,0,1,254,189a2,2,0,0,1,1.71,2.26A2,2,0,0,1,254.76,192.71Z"/><path class="c" d="M239.36,194.64l-.25.12a27.72,27.72,0,0,0-6.28,3.57A2,2,0,0,1,230,198a2,2,0,0,1,.36-2.78l.1-.07a32.1,32.1,0,0,1,7.15-4.07,2,2,0,0,1,1.76,3.59Z"/><circle class="c" cx="249.68" cy="220.69" r="25"/><path class="b" d="M237.88,210.77a5.11,5.11,0,0,1-2.18-.48l.22-1.32a4.55,4.55,0,0,0,2,.58c.45,0,.76-.19.76-.56s-.19-.52-1.07-.86c-1.25-.48-1.79-.89-1.79-1.92a1.89,1.89,0,0,1,2.14-1.85,4,4,0,0,1,1.89.41l-.24,1.31a3.49,3.49,0,0,0-1.63-.51c-.48,0-.7.2-.7.49s.17.48.95.78c1.37.49,1.91,1,1.91,2C240.13,210.17,239.13,210.77,237.88,210.77Z"/><path class="b" d="M242.94,210.78a2.08,2.08,0,0,1-2.29-2.29,2.1,2.1,0,0,1,2.1-2.34c1.37,0,2,1,2,2.31a2.87,2.87,0,0,1,0,.35H242a1,1,0,0,0,1.1,1,2.9,2.9,0,0,0,1.46-.48l.14,1A3.29,3.29,0,0,1,242.94,210.78Zm-.93-2.72h1.4c0-.67-.28-1-.7-1S242.05,207.37,242,208.06Z"/><path class="b" d="M246.82,208.22v2.47h-1.37v-4.44h1.2l.15.88a1.58,1.58,0,0,1,1.29-1l.23,1.4A2.24,2.24,0,0,0,246.82,208.22Z"/><path class="b" d="M251.38,210.71H250l-1.53-4.36,1.47-.17.83,2.81.8-2.74h1.34Z"/><path class="b" d="M254.18,205.66a.74.74,0,1,1,.78-.73A.72.72,0,0,1,254.18,205.66Zm-.69,5v-4.44h1.38v4.44Z"/><path class="b" d="M257.78,210.78a2.07,2.07,0,0,1-2.16-2.27,2.13,2.13,0,0,1,2.22-2.34,2.63,2.63,0,0,1,1.32.34l-.18,1.17a1.78,1.78,0,0,0-1-.33c-.57,0-1,.37-1,1.12a1,1,0,0,0,1,1.13,1.82,1.82,0,0,0,1-.34l.16,1.13A2.58,2.58,0,0,1,257.78,210.78Z"/><path class="b" d="M261.93,210.78a2.32,2.32,0,0,1-.19-4.63c1.37,0,2,1,2,2.31a2.87,2.87,0,0,1,0,.35H261a1,1,0,0,0,1.1,1,2.9,2.9,0,0,0,1.46-.48l.13,1A3.29,3.29,0,0,1,261.93,210.78Zm-.92-2.72h1.4c-.05-.67-.29-1-.7-1S261,207.37,261,208.06Z"/><path class="b" d="M233.69,214.34h2c1.52,0,2.46.68,2.46,2s-1,2.15-2.53,2.15h-.4v2.08h-1.55Zm1.93,1.17h-.39v1.85h.36c.69,0,1.07-.3,1.07-1S236.31,215.51,235.62,215.51Z"/><path class="b" d="M240.17,218.14v2.47H238.8v-4.45H240l.14.88a1.58,1.58,0,0,1,1.3-1l.23,1.39A2.2,2.2,0,0,0,240.17,218.14Z"/><path class="b" d="M244.05,220.7a2.1,2.1,0,0,1-2.13-2.31,2.15,2.15,0,1,1,2.13,2.31Zm0-3.52c-.53,0-.81.48-.81,1.2s.29,1.21.81,1.21.81-.48.81-1.2S244.58,217.18,244.06,217.18Z"/><path class="b" d="M249.3,220.62h-1.37l-1.52-4.35,1.47-.18.82,2.81.8-2.74h1.34Z"/><path class="b" d="M252.1,215.58a.74.74,0,0,1-.78-.74.74.74,0,0,1,.78-.75.73.73,0,0,1,.78.75A.72.72,0,0,1,252.1,215.58Zm-.69,5v-4.45h1.38v4.45Z"/><path class="b" d="M255.44,216.12a2.74,2.74,0,0,1,.95.15v-2l1.37-.22v6.56h-1.22l-.09-.59a1.72,1.72,0,0,1-1.28.68c-.91,0-1.6-.69-1.6-2.19C253.57,216.81,254.46,216.12,255.44,216.12Zm.19,3.36a1.08,1.08,0,0,0,.76-.45v-1.7a1.37,1.37,0,0,0-.65-.13c-.45,0-.79.36-.79,1.21S255.24,219.48,255.63,219.48Z"/><path class="b" d="M260.77,220.7a2.32,2.32,0,0,1-.19-4.63c1.37,0,2,1,2,2.3a3.21,3.21,0,0,1,0,.36h-2.68a1,1,0,0,0,1.09,1,2.92,2.92,0,0,0,1.47-.47l.13,1A3.21,3.21,0,0,1,260.77,220.7Zm-.92-2.73h1.39c0-.67-.28-1-.7-1S259.88,217.28,259.85,218Z"/><path class="b" d="M264.66,218.14v2.47h-1.38v-4.45h1.2l.15.88a1.55,1.55,0,0,1,1.3-1l.22,1.39A2.16,2.16,0,0,0,264.66,218.14Z"/><path class="b" d="M231.36,230.52h-2.1v-6.27h2.13c1.43,0,2.14.61,2.14,1.63a1.41,1.41,0,0,1-.91,1.33,1.44,1.44,0,0,1,1.13,1.5C233.75,229.92,232.84,230.52,231.36,230.52Zm-.08-5.15h-.55v1.42h.52c.58,0,.89-.28.89-.74S231.88,225.37,231.28,225.37Zm0,2.42h-.55v1.61h.57c.63,0,1-.26,1-.8S232,227.79,231.28,227.79Z"/><path class="b" d="M234.57,230.52v-6.34L236,224v6.56Z"/><path class="b" d="M238.82,230.61a2.1,2.1,0,0,1-2.12-2.31,2.15,2.15,0,1,1,2.12,2.31Zm0-3.51c-.52,0-.8.47-.8,1.19s.29,1.21.8,1.21.82-.48.82-1.2S239.36,227.1,238.83,227.1Z"/><path class="b" d="M243.63,230.6a2.06,2.06,0,0,1-2.15-2.27A2.12,2.12,0,0,1,243.7,226a2.59,2.59,0,0,1,1.31.33l-.18,1.17a1.8,1.8,0,0,0-1-.32c-.56,0-1,.37-1,1.11a1,1,0,0,0,1,1.13,1.77,1.77,0,0,0,1-.34l.16,1.13A2.61,2.61,0,0,1,243.63,230.6Z"/><path class="b" d="M247.17,228.44v2.08H245.8v-6.34l1.37-.22v3.93l1.17-1.82h1.51l-1.41,2,1.45,2.27-1.44.2Z"/><path class="b" d="M252.25,230.6a2.06,2.06,0,0,1-2.16-2.27,2.12,2.12,0,0,1,2.22-2.33,2.66,2.66,0,0,1,1.32.33l-.19,1.17a1.79,1.79,0,0,0-1-.32c-.57,0-1,.37-1,1.11a1,1,0,0,0,1,1.13,1.75,1.75,0,0,0,1-.34l.16,1.13A2.58,2.58,0,0,1,252.25,230.6Z"/><path class="b" d="M257,230.52v-2.79c0-.32-.12-.53-.45-.53a1.1,1.1,0,0,0-.76.4v2.92h-1.37v-6.34l1.37-.22v2.66a1.92,1.92,0,0,1,1.33-.64c.83,0,1.26.51,1.26,1.38v3.16Z"/><path class="b" d="M261.77,230.52l-.09-.55a1.86,1.86,0,0,1-1.4.64,1.13,1.13,0,0,1-1.21-1.23c0-1,.8-1.54,2.54-1.69v-.09c0-.39-.22-.56-.67-.56a3.45,3.45,0,0,0-1.43.34l-.17-1a4.6,4.6,0,0,1,1.81-.34c1.22,0,1.83.41,1.83,1.54v3Zm-.16-2.17c-.93.14-1.19.45-1.19.84a.4.4,0,0,0,.44.44,1.14,1.14,0,0,0,.75-.34Z"/><path class="b" d="M264.61,225.49a.74.74,0,0,1-.79-.74.75.75,0,0,1,.79-.75.74.74,0,0,1,.78.75A.73.73,0,0,1,264.61,225.49Zm-.69,5v-4.45h1.37v4.45Z"/><path class="b" d="M268.84,230.52v-2.79c0-.32-.12-.53-.45-.53a1.08,1.08,0,0,0-.75.4v2.92h-1.37v-4.45h1.2l.1.61A2,2,0,0,1,269,226c.83,0,1.26.51,1.26,1.38v3.16Z"/><path class="c" d="M269.5,245.64a2.11,2.11,0,0,1-.53.59,32,32,0,0,1-7.27,4.12,2,2,0,0,1-1.5-3.71,28.1,28.1,0,0,0,6.36-3.6,2,2,0,0,1,2.94,2.6Z"/><path class="c" d="M279.31,232.38a1.91,1.91,0,0,1-.16.78,32.17,32.17,0,0,1-4.23,7.2,2,2,0,1,1-3.16-2.46,27.75,27.75,0,0,0,3.71-6.3,2,2,0,0,1,3.84.78Z"/><path class="a" d="M174.15,138.61a2,2,0,0,1-.73,2.73l-1.75,1a3.07,3.07,0,0,0-1.3,2.55s0,.26.06.75a2,2,0,0,1-4,.32c0-.42-.05-.65-.05-.67a7,7,0,0,1,3.28-6.41l1.75-1A2,2,0,0,1,174.15,138.61Z"/><path class="c" d="M216.51,201.45a2,2,0,0,1,2.73-.73l1.75,1a3.09,3.09,0,0,0,2.85-.14l.63-.44a2,2,0,1,1,2.26,3.3l-.54.38a7,7,0,0,1-7.2.37l-1.75-1A2,2,0,0,1,216.51,201.45Z"/><path class="c" d="M27.29,189a1.9,1.9,0,0,1,.75-.25,32,32,0,0,1,8.35.07,2,2,0,1,1-.55,4,28,28,0,0,0-7.31-.06A2,2,0,0,1,27.29,189Z"/><path class="c" d="M21.71,191a2,2,0,0,1-.25,3.59,28.1,28.1,0,0,0-6.36,3.6,2,2,0,0,1-2.41-3.2A32.18,32.18,0,0,1,20,190.83,2,2,0,0,1,21.71,191Z"/><path class="c" d="M2.37,208.81a2,2,0,0,1,.16-.78,32.17,32.17,0,0,1,4.23-7.2,2,2,0,1,1,3.15,2.46,28.08,28.08,0,0,0-3.7,6.3,2,2,0,0,1-3.84-.78Z"/><path class="c" d="M11.54,244.15a2,2,0,0,1,.43-1.23,2,2,0,0,1,2.8-.35,27.75,27.75,0,0,0,6.3,3.71A2,2,0,1,1,19.5,250a32,32,0,0,1-7.19-4.24A2,2,0,0,1,11.54,244.15Z"/><path class="c" d="M25.83,250.22a2.64,2.64,0,0,1,0-.28,2,2,0,0,1,2.26-1.7,29.18,29.18,0,0,0,3.85.26,28.4,28.4,0,0,0,3.45-.21h.12a2,2,0,0,1,.48,4h-.08a33.42,33.42,0,0,1-4,.24,32.57,32.57,0,0,1-4.41-.3A2,2,0,0,1,25.83,250.22Z"/><path class="c" d="M41.34,248.28a2,2,0,0,1,1.25-1.85,27.88,27.88,0,0,0,6.34-3.62A2,2,0,0,1,51.35,246a31.81,31.81,0,0,1-7.26,4.13,2,2,0,0,1-2.6-1.09A2.06,2.06,0,0,1,41.34,248.28Z"/><path class="c" d="M41.67,192.85a2.07,2.07,0,0,1,.15-.77A2,2,0,0,1,44.45,191a32.17,32.17,0,0,1,7.2,4.23,2,2,0,1,1-2.46,3.16,27.71,27.71,0,0,0-6.3-3.7A2,2,0,0,1,41.67,192.85Z"/><path class="c" d="M53.7,238.89a2,2,0,0,1,.42-1.22,28.33,28.33,0,0,0,3.69-6.31,2,2,0,0,1,3.69,1.56,32.13,32.13,0,0,1-4.22,7.2,2,2,0,0,1-3.58-1.23Z"/><path class="c" d="M59.73,224.59a1.23,1.23,0,0,1,0-.27,28.21,28.21,0,0,0,0-7.23,2,2,0,0,1,1.74-2.27,2,2,0,0,1,2.22,1.69s0,.11,0,.12a32.4,32.4,0,0,1-.06,8.23,2,2,0,0,1-4-.27Z"/><circle class="c" cx="32" cy="220.5" r="25"/><path class="b" d="M20.21,210.57A5.15,5.15,0,0,1,18,210.1l.23-1.32a4.48,4.48,0,0,0,2,.58c.44,0,.75-.19.75-.57s-.18-.51-1.06-.85c-1.25-.48-1.8-.89-1.8-1.92a1.89,1.89,0,0,1,2.14-1.86,4,4,0,0,1,1.89.42l-.23,1.31a3.44,3.44,0,0,0-1.64-.51c-.47,0-.7.2-.7.49s.17.47,1,.77c1.37.5,1.9,1,1.9,2C22.45,210,21.45,210.57,20.21,210.57Z"/><path class="b" d="M25.26,210.59a2.32,2.32,0,0,1-.19-4.63c1.37,0,2,1,2,2.31,0,.13,0,.28,0,.35H24.34a1,1,0,0,0,1.1,1,2.89,2.89,0,0,0,1.46-.47l.13,1A3.21,3.21,0,0,1,25.26,210.59Zm-.92-2.72h1.4c0-.67-.29-1-.7-1S24.37,207.18,24.34,207.87Z"/><path class="b" d="M29.15,208v2.47H27.78v-4.45H29l.14.88a1.58,1.58,0,0,1,1.3-1l.23,1.4A2.16,2.16,0,0,0,29.15,208Z"/><path class="b" d="M33.7,210.52H32.33l-1.52-4.36,1.47-.17.82,2.8.8-2.74h1.35Z"/><path class="b" d="M36.51,205.47a.73.73,0,0,1-.78-.74.78.78,0,0,1,1.56,0A.73.73,0,0,1,36.51,205.47Zm-.69,5v-4.45H37.2v4.45Z"/><path class="b" d="M40.1,210.58A2.06,2.06,0,0,1,38,208.31,2.12,2.12,0,0,1,40.17,206a2.7,2.7,0,0,1,1.31.33l-.18,1.18a1.76,1.76,0,0,0-1-.33c-.56,0-1,.37-1,1.12a1,1,0,0,0,1,1.12,1.8,1.8,0,0,0,1-.33l.17,1.12A2.53,2.53,0,0,1,40.1,210.58Z"/><path class="b" d="M44.26,210.59a2.32,2.32,0,0,1-.19-4.63c1.37,0,2,1,2,2.31a3,3,0,0,1,0,.35H43.33a1,1,0,0,0,1.1,1,2.89,2.89,0,0,0,1.46-.47l.14,1A3.21,3.21,0,0,1,44.26,210.59Zm-.93-2.72h1.4c0-.67-.28-1-.7-1S43.37,207.18,43.33,207.87Z"/><path class="b" d="M16,214.15h2c1.53,0,2.46.68,2.46,2s-1,2.14-2.52,2.14h-.4v2.08H16Zm1.92,1.17h-.39v1.84h.36c.69,0,1.07-.3,1.07-.94S18.63,215.32,17.94,215.32Z"/><path class="b" d="M22.5,217.94v2.47H21.12V216h1.2l.15.88a1.59,1.59,0,0,1,1.3-1l.22,1.4A2.19,2.19,0,0,0,22.5,217.94Z"/><path class="b" d="M26.37,220.5a2.1,2.1,0,0,1-2.12-2.3,2.14,2.14,0,1,1,2.12,2.3Zm0-3.51c-.53,0-.81.47-.81,1.2s.29,1.21.81,1.21.82-.49.82-1.2S26.91,217,26.38,217Z"/><path class="b" d="M31.63,220.43H30.26l-1.53-4.36,1.47-.17.83,2.81.8-2.75h1.34Z"/><path class="b" d="M34.43,215.38a.73.73,0,0,1-.78-.73.78.78,0,0,1,1.56,0A.73.73,0,0,1,34.43,215.38Zm-.69,5V216h1.38v4.45Z"/><path class="b" d="M37.77,215.93a2.64,2.64,0,0,1,.94.15v-2l1.37-.22v6.55H38.87l-.09-.58a1.71,1.71,0,0,1-1.28.67c-.91,0-1.61-.69-1.61-2.19C35.89,216.62,36.79,215.93,37.77,215.93Zm.18,3.36a1,1,0,0,0,.76-.46v-1.69a1.24,1.24,0,0,0-.64-.13c-.46,0-.8.35-.8,1.21S37.56,219.29,38,219.29Z"/><path class="b" d="M43.1,220.5a2.08,2.08,0,0,1-2.29-2.29,2.1,2.1,0,0,1,2.1-2.34c1.37,0,2,1,2,2.31a3,3,0,0,1,0,.35H42.17a1,1,0,0,0,1.1,1,2.89,2.89,0,0,0,1.46-.47l.14,1A3.21,3.21,0,0,1,43.1,220.5Zm-.93-2.72h1.4c0-.67-.28-1-.7-1S42.21,217.09,42.17,217.78Z"/><path class="b" d="M47,217.94v2.47H45.61V216h1.2l.14.88a1.62,1.62,0,0,1,1.3-1l.23,1.4A2.24,2.24,0,0,0,47,217.94Z"/><path class="b" d="M13.68,230.33h-2.1v-6.27h2.14c1.42,0,2.13.61,2.13,1.63a1.39,1.39,0,0,1-.91,1.32,1.47,1.47,0,0,1,1.14,1.51C16.08,229.73,15.17,230.33,13.68,230.33Zm-.07-5.15h-.56v1.41h.52c.58,0,.89-.28.89-.73S14.21,225.18,13.61,225.18Zm0,2.41h-.56v1.62h.58c.62,0,1-.26,1-.8S14.27,227.59,13.61,227.59Z"/><path class="b" d="M16.89,230.33V224l1.38-.22v6.56Z"/><path class="b" d="M21.15,230.42a2.32,2.32,0,1,1,2.15-2.32A2.13,2.13,0,0,1,21.15,230.42Zm0-3.52c-.53,0-.81.48-.81,1.2s.29,1.21.81,1.21.82-.48.82-1.2S21.68,226.9,21.16,226.9Z"/><path class="b" d="M26,230.41a2.06,2.06,0,0,1-2.15-2.27A2.13,2.13,0,0,1,26,225.8a2.63,2.63,0,0,1,1.32.34l-.18,1.17a1.78,1.78,0,0,0-1-.33c-.56,0-1,.38-1,1.12a1,1,0,0,0,1,1.13,1.75,1.75,0,0,0,1-.34l.16,1.13A2.58,2.58,0,0,1,26,230.41Z"/><path class="b" d="M29.5,228.25v2.08H28.13V224l1.37-.22v3.92l1.17-1.81h1.51l-1.42,2,1.45,2.27-1.43.2Z"/><path class="b" d="M34.57,230.41a2.06,2.06,0,0,1-2.15-2.27,2.13,2.13,0,0,1,2.21-2.34,2.6,2.6,0,0,1,1.32.34l-.18,1.17a1.78,1.78,0,0,0-1-.33c-.56,0-1,.38-1,1.12a1,1,0,0,0,1,1.13,1.74,1.74,0,0,0,1-.34L36,230A2.63,2.63,0,0,1,34.57,230.41Z"/><path class="b" d="M39.32,230.33v-2.79c0-.32-.13-.54-.46-.54a1.12,1.12,0,0,0-.75.4v2.93H36.74V224l1.37-.22v2.66a1.88,1.88,0,0,1,1.33-.64c.82,0,1.26.5,1.26,1.38v3.16Z"/><path class="b" d="M44.09,230.33l-.09-.56a1.85,1.85,0,0,1-1.4.65,1.13,1.13,0,0,1-1.21-1.24c0-1,.8-1.53,2.55-1.69v-.08c0-.39-.22-.56-.68-.56a3.47,3.47,0,0,0-1.43.33l-.16-1a4.58,4.58,0,0,1,1.8-.35c1.23,0,1.84.41,1.84,1.55v3Zm-.15-2.17c-.94.14-1.19.45-1.19.84a.4.4,0,0,0,.43.44,1.16,1.16,0,0,0,.76-.34Z"/><path class="b" d="M46.93,225.3a.73.73,0,0,1-.78-.74.78.78,0,0,1,1.56,0A.73.73,0,0,1,46.93,225.3Zm-.69,5v-4.45h1.38v4.45Z"/><path class="b" d="M51.17,230.33v-2.79c0-.32-.13-.54-.45-.54a1.14,1.14,0,0,0-.76.4v2.93H48.59v-4.45H49.8l.1.6a2,2,0,0,1,1.39-.69c.82,0,1.26.5,1.26,1.38v3.16Z"/><path class="c" d="M.49,225.19a1.9,1.9,0,0,1-.25-.75,32,32,0,0,1,.07-8.35,2,2,0,1,1,4,.55A28,28,0,0,0,4.21,224a2,2,0,0,1-3.72,1.24Z"/><path class="c" d="M7.06,240.32a2,2,0,0,1-.6-.53,32.11,32.11,0,0,1-4.11-7.26A2,2,0,1,1,6.05,231a28.52,28.52,0,0,0,3.61,6.36,2,2,0,0,1-2.6,2.94Z"/><path class="c" d="M65.25,201.39a2,2,0,0,1-.73,2.74l-1.75,1a3.07,3.07,0,0,0-1.3,2.54s0,.27.06.76a2,2,0,0,1-4,.31c0-.42,0-.65,0-.66a7,7,0,0,1,3.28-6.42l1.75-1A2,2,0,0,1,65.25,201.39Z"/><path class="d" d="M245.09,63.41a1.9,1.9,0,0,1,.75-.25,32,32,0,0,1,8.35.07,2,2,0,1,1-.55,4,28,28,0,0,0-7.31-.06,2,2,0,0,1-1.24-3.72Z"/><path class="d" d="M239.51,65.38a2,2,0,0,1-.25,3.59,28.1,28.1,0,0,0-6.36,3.6,2,2,0,0,1-2.41-3.2,32.18,32.18,0,0,1,7.27-4.11A2,2,0,0,1,239.51,65.38Z"/><path class="d" d="M220.17,83.24a2,2,0,0,1,.16-.78,32.17,32.17,0,0,1,4.23-7.2,2,2,0,1,1,3.15,2.46A28.08,28.08,0,0,0,224,84a2,2,0,0,1-3.84-.78Z"/><path class="d" d="M229.34,118.58a2,2,0,0,1,.43-1.23,2,2,0,0,1,2.8-.35,27.75,27.75,0,0,0,6.3,3.71,2,2,0,1,1-1.57,3.68,32,32,0,0,1-7.19-4.24A2,2,0,0,1,229.34,118.58Z"/><path class="d" d="M243.63,124.65a2.64,2.64,0,0,1,0-.28,2,2,0,0,1,2.26-1.7,29.18,29.18,0,0,0,3.85.26,28.4,28.4,0,0,0,3.45-.21h.12a2,2,0,0,1,.48,4h-.08a33.42,33.42,0,0,1-4,.24,32.57,32.57,0,0,1-4.41-.3A2,2,0,0,1,243.63,124.65Z"/><path class="d" d="M259.14,122.71a2,2,0,0,1,1.25-1.85,27.88,27.88,0,0,0,6.34-3.62,2,2,0,0,1,2.42,3.19,32,32,0,0,1-7.25,4.13,2,2,0,0,1-2.61-1.09A2.06,2.06,0,0,1,259.14,122.71Z"/><path class="d" d="M259.47,67.28a1.9,1.9,0,0,1,.16-.77,2,2,0,0,1,2.62-1.07,32.17,32.17,0,0,1,7.2,4.23A2,2,0,1,1,267,72.83a27.71,27.71,0,0,0-6.3-3.7A2,2,0,0,1,259.47,67.28Z"/><path class="d" d="M277.53,99a2.45,2.45,0,0,1,0-.27,28.21,28.21,0,0,0,0-7.23,2,2,0,0,1,1.74-2.27,2,2,0,0,1,2.22,1.69.6.6,0,0,1,0,.12,32.4,32.4,0,0,1-.06,8.23,2,2,0,0,1-4-.27Z"/><circle class="d" cx="249.8" cy="94.93" r="25"/><path class="b" d="M239.61,92a2.9,2.9,0,0,1-3-3.23,3,3,0,0,1,3.08-3.25,3.13,3.13,0,0,1,1.65.41l-.21,1.39a2.18,2.18,0,0,0-1.36-.51c-1,0-1.6.75-1.6,2s.66,1.94,1.64,1.94a2.63,2.63,0,0,0,1.42-.48l.2,1.3A3.47,3.47,0,0,1,239.61,92Z"/><path class="b" d="M242.9,86.9a.74.74,0,0,1-.78-.74.74.74,0,0,1,.78-.75.73.73,0,0,1,.78.75A.72.72,0,0,1,242.9,86.9Zm-.69,5V87.48h1.38v4.45Z"/><path class="b" d="M246.42,92c-.95,0-1.61-.34-1.61-1.48V88.6h-.59V87.48h.59V86.16l1.36-.22v1.54H247l.18,1.12h-1v1.7c0,.35.18.52.54.52a1.76,1.76,0,0,0,.34,0l.16,1.12A2.37,2.37,0,0,1,246.42,92Z"/><path class="b" d="M248.57,86.9a.74.74,0,0,1-.78-.74.74.74,0,0,1,.78-.75.73.73,0,0,1,.78.75A.72.72,0,0,1,248.57,86.9Zm-.69,5V87.48h1.38v4.45Z"/><path class="b" d="M250,91.93v-1l2-2.34h-1.74l-.16-1.07h3.59v1l-2,2.33h1.9l.17,1.07Z"/><path class="b" d="M256.43,92a2.32,2.32,0,0,1-.19-4.63c1.37,0,2,1,2,2.31,0,.13,0,.28,0,.35h-2.69a1,1,0,0,0,1.1,1,2.89,2.89,0,0,0,1.46-.47l.13,1A3.21,3.21,0,0,1,256.43,92Zm-.92-2.72h1.4c-.05-.67-.29-1-.7-1S255.54,88.61,255.51,89.3Z"/><path class="b" d="M261.52,91.93V89.14c0-.32-.12-.53-.45-.53a1.08,1.08,0,0,0-.75.4v2.92H259V87.48h1.2l.1.61a2,2,0,0,1,1.39-.7c.83,0,1.26.51,1.26,1.38v3.16Z"/><path class="b" d="M231.48,101.84h-2.1V95.58h2.14c1.42,0,2.13.61,2.13,1.62a1.41,1.41,0,0,1-.91,1.33,1.46,1.46,0,0,1,1.14,1.51C233.88,101.24,233,101.84,231.48,101.84Zm-.07-5.15h-.55v1.42h.51c.58,0,.89-.28.89-.73S232,96.69,231.41,96.69Zm0,2.42h-.55v1.61h.57c.62,0,1-.26,1-.79S232.07,99.11,231.41,99.11Z"/><path class="b" d="M234.69,101.84V95.51l1.38-.22v6.55Z"/><path class="b" d="M239,101.93a2.09,2.09,0,0,1-2.12-2.3,2.14,2.14,0,1,1,2.12,2.3Zm0-3.51c-.53,0-.81.47-.81,1.2s.29,1.21.81,1.21.82-.49.82-1.2S239.49,98.42,239,98.42Z"/><path class="b" d="M243.76,101.92a2.06,2.06,0,0,1-2.15-2.27,2.12,2.12,0,0,1,2.21-2.33,2.6,2.6,0,0,1,1.32.34L245,98.83a1.78,1.78,0,0,0-1-.33c-.56,0-1,.37-1,1.12a1,1,0,0,0,1,1.12,1.8,1.8,0,0,0,1-.33l.17,1.12A2.55,2.55,0,0,1,243.76,101.92Z"/><path class="b" d="M247.3,99.76v2.08h-1.37V95.51l1.37-.22v3.92l1.17-1.82H250l-1.42,2,1.45,2.27-1.43.2Z"/><path class="b" d="M252.37,101.92a2.06,2.06,0,0,1-2.15-2.27,2.12,2.12,0,0,1,2.22-2.33,2.59,2.59,0,0,1,1.31.34l-.18,1.17a1.76,1.76,0,0,0-1-.33c-.56,0-1,.37-1,1.12a1,1,0,0,0,1,1.12,1.8,1.8,0,0,0,1-.33l.17,1.12A2.53,2.53,0,0,1,252.37,101.92Z"/><path class="b" d="M257.12,101.84V99.06c0-.32-.13-.54-.46-.54a1.1,1.1,0,0,0-.75.4v2.92h-1.37V95.51l1.37-.22V98a1.85,1.85,0,0,1,1.33-.65c.82,0,1.26.51,1.26,1.38v3.16Z"/><path class="b" d="M261.89,101.84l-.09-.55a1.84,1.84,0,0,1-1.4.64,1.12,1.12,0,0,1-1.2-1.23c0-1,.79-1.54,2.54-1.69v-.08c0-.39-.22-.57-.67-.57a3.49,3.49,0,0,0-1.44.34l-.16-1a4.58,4.58,0,0,1,1.8-.35c1.23,0,1.84.41,1.84,1.54v3Zm-.15-2.17c-.94.15-1.19.46-1.19.85a.39.39,0,0,0,.43.43,1.2,1.2,0,0,0,.76-.33Z"/><path class="b" d="M264.73,96.81a.73.73,0,0,1-.78-.73.75.75,0,0,1,.78-.76.74.74,0,0,1,.78.76A.72.72,0,0,1,264.73,96.81Zm-.69,5V97.39h1.38v4.45Z"/><path class="b" d="M269,101.84V99.06c0-.32-.13-.54-.45-.54a1.1,1.1,0,0,0-.76.4v2.92h-1.37V97.39h1.21l.1.61a2,2,0,0,1,1.39-.7c.83,0,1.26.51,1.26,1.38v3.16Z"/><circle class="d" cx="140.98" cy="32.01" r="25"/><path class="b" d="M130.79,29.12a2.89,2.89,0,0,1-3-3.23,3,3,0,0,1,3.08-3.25,3.13,3.13,0,0,1,1.65.41l-.22,1.4a2.1,2.1,0,0,0-1.35-.51c-1,0-1.61.74-1.61,1.94s.67,1.94,1.65,1.94a2.66,2.66,0,0,0,1.42-.48l.2,1.3A3.5,3.5,0,0,1,130.79,29.12Z"/><path class="b" d="M134.08,24a.73.73,0,0,1-.78-.73.78.78,0,0,1,1.56,0A.73.73,0,0,1,134.08,24Zm-.69,5V24.56h1.38V29Z"/><path class="b" d="M137.6,29.08c-.95,0-1.62-.35-1.62-1.48V25.68h-.59V24.56H136V23.24l1.37-.22v1.54h.84l.17,1.12h-1v1.7c0,.35.18.52.54.52a1.22,1.22,0,0,0,.34,0l.16,1.12A2.41,2.41,0,0,1,137.6,29.08Z"/><path class="b" d="M139.75,24a.73.73,0,0,1-.78-.73.78.78,0,0,1,1.56,0A.73.73,0,0,1,139.75,24Zm-.69,5V24.56h1.38V29Z"/><path class="b" d="M141.18,29V28l2-2.34h-1.73l-.16-1.08h3.59v1.05l-2,2.33h1.9L145,29Z"/><path class="b" d="M147.61,29.1a2.08,2.08,0,0,1-2.29-2.29,2.1,2.1,0,0,1,2.1-2.34c1.37,0,2,1,2,2.31a3,3,0,0,1,0,.35h-2.69a1,1,0,0,0,1.1,1,2.89,2.89,0,0,0,1.46-.47l.14,1A3.21,3.21,0,0,1,147.61,29.1Zm-.93-2.72h1.4c0-.67-.28-1-.7-1S146.72,25.69,146.68,26.38Z"/><path class="b" d="M152.7,29V26.22c0-.31-.13-.53-.45-.53a1.1,1.1,0,0,0-.76.4V29h-1.37V24.56h1.21l.1.61a1.94,1.94,0,0,1,1.39-.7c.82,0,1.26.51,1.26,1.38V29Z"/><path class="b" d="M122.66,38.92h-2.1V32.66h2.13c1.43,0,2.14.61,2.14,1.62a1.4,1.4,0,0,1-.91,1.33,1.46,1.46,0,0,1,1.14,1.51C125.06,38.32,124.15,38.92,122.66,38.92Zm-.07-5.14H122v1.41h.52c.58,0,.89-.28.89-.73S123.19,33.78,122.59,33.78Zm0,2.41H122v1.62h.57c.63,0,1-.27,1-.8S123.25,36.19,122.59,36.19Z"/><path class="b" d="M125.87,38.92V32.59l1.38-.22v6.55Z"/><path class="b" d="M130.13,39A2.11,2.11,0,0,1,128,36.71a2.15,2.15,0,1,1,4.28,0A2.13,2.13,0,0,1,130.13,39Zm0-3.52c-.53,0-.81.47-.81,1.2s.29,1.21.81,1.21.81-.48.81-1.2S130.66,35.5,130.14,35.5Z"/><path class="b" d="M134.94,39a2.07,2.07,0,0,1-2.16-2.27A2.13,2.13,0,0,1,135,34.4a2.66,2.66,0,0,1,1.32.34l-.19,1.17a1.73,1.73,0,0,0-1-.33c-.57,0-1,.38-1,1.12a1,1,0,0,0,1,1.13,1.82,1.82,0,0,0,1-.34l.16,1.13A2.58,2.58,0,0,1,134.94,39Z"/><path class="b" d="M138.48,36.85v2.07H137.1V32.59l1.38-.22v3.92l1.17-1.81h1.5l-1.41,2,1.45,2.27-1.43.2Z"/><path class="b" d="M143.55,39a2.06,2.06,0,0,1-2.15-2.27,2.12,2.12,0,0,1,2.21-2.34,2.63,2.63,0,0,1,1.32.34l-.18,1.17a1.78,1.78,0,0,0-1-.33c-.56,0-1,.38-1,1.12a1,1,0,0,0,1,1.13,1.82,1.82,0,0,0,1-.34l.16,1.13A2.58,2.58,0,0,1,143.55,39Z"/><path class="b" d="M148.29,38.92V36.14c0-.32-.12-.54-.45-.54a1.12,1.12,0,0,0-.75.4v2.92h-1.37V32.59l1.37-.22V35a1.88,1.88,0,0,1,1.32-.64c.83,0,1.26.5,1.26,1.38v3.15Z"/><path class="b" d="M153.07,38.92l-.09-.55a1.86,1.86,0,0,1-1.4.65,1.13,1.13,0,0,1-1.21-1.24c0-1,.8-1.53,2.54-1.69V36c0-.39-.21-.56-.67-.56a3.44,3.44,0,0,0-1.43.33l-.17-1a4.59,4.59,0,0,1,1.81-.35c1.23,0,1.83.41,1.83,1.55v3Zm-.16-2.17c-.93.15-1.19.46-1.19.85a.4.4,0,0,0,.44.43,1.12,1.12,0,0,0,.75-.33Z"/><path class="b" d="M155.91,33.89a.73.73,0,0,1-.78-.73.78.78,0,0,1,1.56,0A.73.73,0,0,1,155.91,33.89Zm-.69,5V34.48h1.38v4.44Z"/><path class="b" d="M160.15,38.92V36.14c0-.32-.13-.54-.46-.54a1.12,1.12,0,0,0-.75.4v2.92h-1.37V34.48h1.21l.09.6a2,2,0,0,1,1.39-.69c.83,0,1.27.5,1.27,1.38v3.15Z"/><circle class="d" cx="32.08" cy="94.8" r="25"/><path class="b" d="M21.89,91.91c-1.88,0-3-1.26-3-3.24A3,3,0,0,1,22,85.42a3.23,3.23,0,0,1,1.65.41l-.22,1.4A2.16,2.16,0,0,0,22,86.72c-1,0-1.61.75-1.61,2s.67,1.94,1.65,1.94a2.66,2.66,0,0,0,1.42-.48l.2,1.3A3.5,3.5,0,0,1,21.89,91.91Z"/><path class="b" d="M25.18,86.77A.73.73,0,0,1,24.4,86,.78.78,0,0,1,26,86,.73.73,0,0,1,25.18,86.77Zm-.69,5V87.35h1.38V91.8Z"/><path class="b" d="M28.7,91.86c-.95,0-1.62-.34-1.62-1.48V88.47h-.59V87.35h.59V86l1.37-.21v1.54h.84l.17,1.12h-1v1.69a.47.47,0,0,0,.54.53,1.21,1.21,0,0,0,.34,0l.16,1.13A2.76,2.76,0,0,1,28.7,91.86Z"/><path class="b" d="M30.85,86.77a.73.73,0,0,1-.78-.74.78.78,0,0,1,1.56,0A.73.73,0,0,1,30.85,86.77Zm-.69,5V87.35h1.38V91.8Z"/><path class="b" d="M32.28,91.8v-1l2-2.34H32.52l-.17-1.07H36v1l-2,2.34h1.9l.17,1.07Z"/><path class="b" d="M38.71,91.89a2.32,2.32,0,0,1-.19-4.63c1.37,0,2,1,2,2.3a3.06,3.06,0,0,1,0,.36H37.78a1,1,0,0,0,1.1,1,2.89,2.89,0,0,0,1.46-.47l.14,1A3.21,3.21,0,0,1,38.71,91.89Zm-.93-2.73h1.4c0-.67-.28-1-.7-1S37.82,88.47,37.78,89.16Z"/><path class="b" d="M43.8,91.8V89c0-.32-.13-.54-.45-.54a1.14,1.14,0,0,0-.76.4V91.8H41.22V87.35h1.21l.1.61a1.94,1.94,0,0,1,1.39-.7c.82,0,1.26.51,1.26,1.38V91.8Z"/><path class="b" d="M13.76,101.71h-2.1V95.44h2.13c1.43,0,2.14.61,2.14,1.63A1.41,1.41,0,0,1,15,98.4a1.44,1.44,0,0,1,1.13,1.5C16.15,101.11,15.25,101.71,13.76,101.71Zm-.07-5.15h-.56V98h.52c.58,0,.89-.28.89-.74S14.28,96.56,13.69,96.56Zm0,2.42h-.56v1.61h.57c.63,0,1-.26,1-.8S14.35,99,13.69,99Z"/><path class="b" d="M17,101.71V95.37l1.38-.22v6.56Z"/><path class="b" d="M21.23,101.8a2.32,2.32,0,1,1,2.15-2.32A2.13,2.13,0,0,1,21.23,101.8Zm0-3.51c-.52,0-.8.47-.8,1.19s.29,1.21.8,1.21.82-.48.82-1.2S21.76,98.29,21.23,98.29Z"/><path class="b" d="M26,101.79a2.06,2.06,0,0,1-2.16-2.27,2.12,2.12,0,0,1,2.22-2.33,2.66,2.66,0,0,1,1.32.33l-.19,1.17a1.8,1.8,0,0,0-1-.32c-.56,0-1,.37-1,1.11a1,1,0,0,0,1,1.13,1.75,1.75,0,0,0,1-.34l.16,1.13A2.6,2.6,0,0,1,26,101.79Z"/><path class="b" d="M29.57,99.63v2.08H28.2V95.37l1.37-.22v3.93l1.18-1.82h1.5l-1.41,2,1.45,2.27-1.44.2Z"/><path class="b" d="M34.65,101.79a2.06,2.06,0,0,1-2.15-2.27,2.12,2.12,0,0,1,2.21-2.33,2.63,2.63,0,0,1,1.32.33l-.18,1.17a1.85,1.85,0,0,0-1-.32c-.57,0-1,.37-1,1.11s.44,1.13,1,1.13a1.75,1.75,0,0,0,1-.34l.16,1.13A2.58,2.58,0,0,1,34.65,101.79Z"/><path class="b" d="M39.39,101.71V98.92c0-.32-.12-.53-.45-.53a1.08,1.08,0,0,0-.75.4v2.92H36.81V95.37l1.38-.22v2.66a1.88,1.88,0,0,1,1.32-.64c.83,0,1.26.51,1.26,1.38v3.16Z"/><path class="b" d="M44.17,101.71l-.09-.55a1.86,1.86,0,0,1-1.4.64,1.13,1.13,0,0,1-1.21-1.23c0-1,.8-1.54,2.54-1.69V98.8c0-.4-.21-.57-.67-.57a3.45,3.45,0,0,0-1.43.34l-.17-1a4.6,4.6,0,0,1,1.81-.34c1.23,0,1.83.41,1.83,1.54v3ZM44,99.54c-.93.14-1.19.45-1.19.84a.4.4,0,0,0,.44.44,1.14,1.14,0,0,0,.75-.34Z"/><path class="b" d="M47,96.68a.73.73,0,0,1-.78-.74.78.78,0,0,1,1.56,0A.73.73,0,0,1,47,96.68Zm-.69,5V97.26H47.7v4.45Z"/><path class="b" d="M51.25,101.71V98.92c0-.32-.13-.53-.46-.53a1.08,1.08,0,0,0-.75.4v2.92H48.67V97.26h1.21l.1.61a1.92,1.92,0,0,1,1.38-.7c.83,0,1.27.51,1.27,1.38v3.16Z"/><path class="d" d="M218.29,99.62a1.9,1.9,0,0,1-.25-.75,32,32,0,0,1,.07-8.35,2,2,0,1,1,4,.55,28,28,0,0,0-.06,7.31,2,2,0,0,1-3.72,1.24Z"/><path class="e" d="M177.61,136.61a2,2,0,0,1,.73-2.73l.87-.5a2,2,0,0,1,2,3.46l-.87.5A2,2,0,0,1,177.61,136.61Zm7.8-4.5a2,2,0,0,1,.73-2.73l.87-.5a2,2,0,1,1,2,3.46l-.87.5A2,2,0,0,1,185.41,132.11Zm7.79-4.5a2,2,0,0,1,.73-2.73l.87-.5a2,2,0,1,1,2,3.46l-.87.5A2,2,0,0,1,193.2,127.61Zm7.8-4.5a2,2,0,0,1,.73-2.73l.86-.5a2,2,0,1,1,2,3.46l-.86.5A2,2,0,0,1,201,123.11Zm7.79-4.5a2,2,0,0,1,.73-2.73l.87-.5a2,2,0,0,1,2,3.46l-.87.5A2,2,0,0,1,208.79,118.61Z"/><path class="e" d="M68.71,199.39a2,2,0,0,1,.73-2.73l.87-.5a2,2,0,0,1,2,3.47l-.87.5A2,2,0,0,1,68.71,199.39Zm7.8-4.5a2,2,0,0,1,.73-2.73l.86-.5a2,2,0,1,1,2,3.47l-.86.5A2,2,0,0,1,76.51,194.89Zm7.79-4.5a2,2,0,0,1,.73-2.73l.87-.5a2,2,0,0,1,2,3.47l-.87.5A2,2,0,0,1,84.3,190.39Zm7.8-4.5a2,2,0,0,1,.73-2.73l.86-.5a2,2,0,1,1,2,3.47l-.86.5A2,2,0,0,1,92.1,185.89Zm7.79-4.5a2,2,0,0,1,.73-2.73l.87-.5a2,2,0,0,1,2,3.47l-.87.5A2,2,0,0,1,99.89,181.39Z"/><path class="c" d="M282.9,201.52a2,2,0,0,1-.74,2.73l-1.75,1a3.12,3.12,0,0,0-1.3,2.54s0,.27.07.76a2,2,0,1,1-4,.31c0-.41-.05-.64-.06-.66a7,7,0,0,1,3.28-6.42l1.75-1A2,2,0,0,1,282.9,201.52Z"/><path class="e" d="M286.36,199.52a2,2,0,0,1,.73-2.74l.87-.5a2,2,0,0,1,2,3.47l-.87.5A2,2,0,0,1,286.36,199.52Zm7.79-4.5a2,2,0,0,1,.74-2.74l.86-.5a2,2,0,0,1,2,3.47l-.86.5A2,2,0,0,1,294.15,195Zm7.8-4.5a2,2,0,0,1,.73-2.74l.87-.5a2,2,0,0,1,2,3.47l-.87.5A2,2,0,0,1,302,190.52Zm7.79-4.5a2,2,0,0,1,.73-2.74l.87-.5a2,2,0,0,1,2,3.47l-.87.5A2,2,0,0,1,309.74,186Zm7.8-4.5a2,2,0,0,1,.73-2.74l.86-.5a2,2,0,1,1,2,3.47l-.86.5A2,2,0,0,1,317.54,181.52Z"/><path class="d" d="M216.58,114.11a2,2,0,0,1,.74-2.73l1.75-1a3.12,3.12,0,0,0,1.3-2.55s0-.27-.07-.76a2,2,0,0,1,4-.31c0,.42.05.65.06.66a7,7,0,0,1-3.28,6.42l-1.75,1A2,2,0,0,1,216.58,114.11Z"/><path class="a" d="M174.07,177a2,2,0,0,1-2.73.74l-1.75-1a3.11,3.11,0,0,0-2.86.14s-.21.16-.62.44a2,2,0,1,1-2.26-3.3l.54-.38a7,7,0,0,1,7.2-.37l1.75,1A2,2,0,0,1,174.07,177Z"/><path class="e" d="M177.54,179a2,2,0,0,1,2.73-.73l.86.5a2,2,0,1,1-2,3.47l-.86-.5A2,2,0,0,1,177.54,179Zm7.79,4.5a2,2,0,0,1,2.73-.73l.87.5a2,2,0,0,1-2,3.47l-.87-.5A2,2,0,0,1,185.33,183.45Zm7.79,4.5a2,2,0,0,1,2.74-.73l.86.5a2,2,0,0,1-2,3.47l-.86-.5A2,2,0,0,1,193.12,188Zm7.8,4.5a2,2,0,0,1,2.73-.73l.87.5a2,2,0,0,1-2,3.47l-.87-.5A2,2,0,0,1,200.92,192.45Zm7.79,4.5a2,2,0,0,1,2.74-.73l.86.5a2,2,0,0,1-2,3.47l-.86-.5A2,2,0,0,1,208.71,197Z"/><path class="d" d="M274.74,75.09a2,2,0,0,1,.6.53,31.89,31.89,0,0,1,4.11,7.26,2,2,0,0,1-3.7,1.5,28.1,28.1,0,0,0-3.6-6.36,2,2,0,0,1,2.59-2.93Z"/><path class="d" d="M283,114.17a2,2,0,0,1-2.73.73l-1.75-1a3.08,3.08,0,0,0-2.86.15s-.21.16-.62.43a2,2,0,1,1-2.26-3.29l.54-.38a7,7,0,0,1,7.2-.37l1.75,1A2,2,0,0,1,283,114.17Z"/><path class="a" d="M141,119.37a2,2,0,0,1,2,2v2a3.09,3.09,0,0,0,1.55,2.4l.69.32a2,2,0,0,1-1.72,3.61l-.6-.28a7,7,0,0,1-3.92-6v-2A2,2,0,0,1,141,119.37Z"/><path class="d" d="M111.32,20.33a2.17,2.17,0,0,1,.16-.78,32.15,32.15,0,0,1,4.24-7.19,2,2,0,1,1,3.15,2.46,28.08,28.08,0,0,0-3.7,6.3,2,2,0,0,1-3.85-.79Z"/><path class="d" d="M110.24,26.15a2.07,2.07,0,0,1,1.28-.25,2,2,0,0,1,1.7,2.26,28,28,0,0,0-.06,7.31,2,2,0,1,1-4,.48,31.9,31.9,0,0,1,.07-8.34A2,2,0,0,1,110.24,26.15Z"/><path class="d" d="M116,51.83a2,2,0,0,1-.6-.53A31.89,31.89,0,0,1,111.33,44a2,2,0,1,1,3.7-1.5,28.14,28.14,0,0,0,3.61,6.36,2,2,0,0,1-2.6,2.93Z"/><path class="d" d="M151.23,61.55a2,2,0,0,1-.86-1,2,2,0,0,1,1.11-2.6,28.1,28.1,0,0,0,6.36-3.6,2,2,0,0,1,2.41,3.2A32.18,32.18,0,0,1,153,61.68,2,2,0,0,1,151.23,61.55Z"/><path class="d" d="M163.63,52.22a1.88,1.88,0,0,1-.23-.16,2,2,0,0,1-.35-2.81,27.59,27.59,0,0,0,2.16-3.2,27.94,27.94,0,0,0,1.54-3.1l.05-.1a2,2,0,1,1,3.68,1.57l0,.07a31.83,31.83,0,0,1-1.76,3.56,31.36,31.36,0,0,1-2.48,3.66A2,2,0,0,1,163.63,52.22Z"/><path class="d" d="M169.71,37.82a2,2,0,0,1-1-2,27.87,27.87,0,0,0,0-7.3,2,2,0,0,1,4-.51,32,32,0,0,1,0,8.36,2,2,0,0,1-2.25,1.71A2.18,2.18,0,0,1,169.71,37.82Z"/><path class="d" d="M121.87,9.82a2,2,0,0,1-.21-3.33,32.15,32.15,0,0,1,7.26-4.12,2,2,0,1,1,1.51,3.71,28,28,0,0,0-6.35,3.6A2,2,0,0,1,121.87,9.82Z"/><path class="d" d="M158.39,10.05a1.88,1.88,0,0,1-.23-.16,28.42,28.42,0,0,0-6.24-3.65,2,2,0,0,1-1.1-2.64,2,2,0,0,1,2.58-1.08l.11,0a32.13,32.13,0,0,1,7.1,4.16,2,2,0,0,1-2.22,3.32Z"/><path class="d" d="M167,21.69a1.34,1.34,0,0,1-.12-.24,28.44,28.44,0,0,0-3.58-6.29,2,2,0,0,1,.37-2.83,2,2,0,0,1,2.77.35l.08.1a32.53,32.53,0,0,1,4.06,7.16A2,2,0,0,1,167,21.69Z"/><path class="d" d="M129.29,61.65a2,2,0,0,1-.78-.16,32.21,32.21,0,0,1-7.2-4.24,2,2,0,1,1,2.46-3.15,28.5,28.5,0,0,0,6.3,3.71,2,2,0,0,1-.78,3.84Z"/><path class="e" d="M141,115.37a2,2,0,0,1-2-2v-1a2,2,0,0,1,4,0v1A2,2,0,0,1,141,115.37Zm0-9a2,2,0,0,1-2-2v-1a2,2,0,0,1,4,0v1A2,2,0,0,1,141,106.37Zm0-9a2,2,0,0,1-2-2v-1a2,2,0,0,1,4,0v1A2,2,0,0,1,141,97.37Zm0-9a2,2,0,0,1-2-2v-1a2,2,0,0,1,4,0v1A2,2,0,0,1,141,88.37Zm0-9a2,2,0,0,1-2-2v-1a2,2,0,0,1,4,0v1A2,2,0,0,1,141,79.37Z"/><path class="d" d="M141,70.37a2,2,0,0,1-2-2v-2a3.08,3.08,0,0,0-1.56-2.4l-.68-.32A2,2,0,1,1,138.46,60l.6.28a7,7,0,0,1,3.92,6v2A2,2,0,0,1,141,70.37Z"/><path class="d" d="M136.27.49A1.9,1.9,0,0,1,137,.24a32,32,0,0,1,8.35.07,2,2,0,0,1-.55,4,28,28,0,0,0-7.31-.06A2,2,0,0,1,136.27.49Z"/><path class="a" d="M107.73,138.48a2,2,0,0,1,2.73-.74l1.75,1a3.11,3.11,0,0,0,2.86-.14l.62-.44a2,2,0,0,1,2.27,3.3l-.55.38a7,7,0,0,1-7.2.37l-1.75-1A2,2,0,0,1,107.73,138.48Z"/><path class="d" d="M7.14,114.64a2,2,0,0,1-.6-.53,32.11,32.11,0,0,1-4.11-7.26,2,2,0,1,1,3.7-1.51,28.14,28.14,0,0,0,3.61,6.36,2,2,0,0,1-2.6,2.94Z"/><path class="d" d="M11.64,118.48a2,2,0,0,1,.42-1.23,2,2,0,0,1,2.81-.34,28.44,28.44,0,0,0,6.29,3.71,2,2,0,0,1-1.56,3.68,32.21,32.21,0,0,1-7.2-4.24A2,2,0,0,1,11.64,118.48Z"/><path class="d" d="M36.77,126.31a2.08,2.08,0,0,1-.75.25,32,32,0,0,1-8.35-.07,2,2,0,1,1,.55-4,28,28,0,0,0,7.31.06,2,2,0,0,1,1.24,3.72Z"/><path class="d" d="M62.79,100.69a2,2,0,0,1-3-2,28,28,0,0,0,.06-7.31,2,2,0,0,1,4-.48,32,32,0,0,1-.07,8.35A2,2,0,0,1,62.79,100.69Z"/><path class="d" d="M60.9,85.28l-.25.13a2,2,0,0,1-2.6-1.11,29.33,29.33,0,0,0-1.7-3.47A27.1,27.1,0,0,0,54.44,78l-.07-.1a2,2,0,1,1,3.2-2.39l0,.06a31.56,31.56,0,0,1,2.19,3.31,31,31,0,0,1,1.94,4A2,2,0,0,1,60.9,85.28Z"/><path class="d" d="M51.47,72.82a2,2,0,0,1-2.23-.15A27.82,27.82,0,0,0,42.94,69a2,2,0,0,1,1.54-3.69,31.83,31.83,0,0,1,7.22,4.22,2,2,0,0,1,.35,2.8A2,2,0,0,1,51.47,72.82Z"/><path class="d" d="M3.3,100.25a1.85,1.85,0,0,1-.75.25A2,2,0,0,1,.32,98.76a32.42,32.42,0,0,1,.06-8.35,2,2,0,0,1,4,.55,28.4,28.4,0,0,0,0,7.31A2,2,0,0,1,3.3,100.25Z"/><path class="d" d="M21.76,68.74l-.25.12a28.33,28.33,0,0,0-6.28,3.57,2,2,0,0,1-2.83-.36,2,2,0,0,1,.35-2.78l.1-.07A32.07,32.07,0,0,1,20,65.16a2,2,0,0,1,1.76,3.58Z"/><path class="d" d="M36.17,67.07l-.27,0a28.22,28.22,0,0,0-7.23,0,2,2,0,0,1-2.27-1.74,2,2,0,0,1,1.69-2.22l.12,0a32.4,32.4,0,0,1,8.23.06,2,2,0,0,1-.27,4Z"/><path class="d" d="M51.9,119.74a2,2,0,0,1-.53.59,32.15,32.15,0,0,1-7.26,4.12,2,2,0,0,1-1.51-3.71,28.1,28.1,0,0,0,6.36-3.6,2,2,0,0,1,2.94,2.6Z"/><path class="e" d="M104.27,136.48a2,2,0,0,1-2.73.73l-.87-.5a2,2,0,0,1,2-3.47l.87.5A2,2,0,0,1,104.27,136.48Zm-7.8-4.5a2,2,0,0,1-2.73.73l-.86-.5a2,2,0,1,1,2-3.47l.86.5A2,2,0,0,1,96.47,132Zm-7.79-4.5a2,2,0,0,1-2.73.73l-.87-.5a2,2,0,0,1,2-3.47l.87.5A2,2,0,0,1,88.68,127.48ZM80.89,123a2,2,0,0,1-2.74.73l-.86-.5a2,2,0,1,1,2-3.47l.86.5A2,2,0,0,1,80.89,123Zm-7.8-4.5a2,2,0,0,1-2.73.73l-.87-.5a2,2,0,0,1,2-3.47l.87.5A2,2,0,0,1,73.09,118.48Z"/><path class="f" d="M348.29,128.36A2,2,0,0,1,348,132a28.74,28.74,0,0,0-6.37,3.59,2,2,0,1,1-2.4-3.19,32,32,0,0,1,7.27-4.11A2,2,0,0,1,348.29,128.36Z"/><path class="f" d="M338.12,181.56a2,2,0,0,1,3.23-1.58,27.75,27.75,0,0,0,6.3,3.71,2,2,0,0,1-1.57,3.68,31.92,31.92,0,0,1-7.19-4.24A2,2,0,0,1,338.12,181.56Z"/><path class="f" d="M352.41,187.63a2.62,2.62,0,0,1,0-.28,2,2,0,0,1,2.26-1.71,27.61,27.61,0,0,0,3.86.27,28.65,28.65,0,0,0,3.45-.21h.12a2,2,0,1,1,.47,4h-.08a33.26,33.26,0,0,1-4,.24,32.46,32.46,0,0,1-4.41-.3A2,2,0,0,1,352.41,187.63Z"/><path class="f" d="M367.92,185.69a2,2,0,0,1,1.24-1.85,27.67,27.67,0,0,0,6.34-3.62,2,2,0,1,1,2.42,3.18,31.2,31.2,0,0,1-7.25,4.14,2,2,0,0,1-2.61-1.09A2,2,0,0,1,367.92,185.69Z"/><path class="f" d="M368.24,130.26a1.9,1.9,0,0,1,.16-.77,2,2,0,0,1,2.62-1.07,32.17,32.17,0,0,1,7.2,4.23,2,2,0,0,1-2.45,3.16,28,28,0,0,0-6.31-3.7A2,2,0,0,1,368.24,130.26Z"/><path class="f" d="M386.3,162a2.45,2.45,0,0,1,0-.27,28.22,28.22,0,0,0,.05-7.23,2,2,0,0,1,1.73-2.27,2,2,0,0,1,2.23,1.69s0,.11,0,.12a32.4,32.4,0,0,1,0,8.23,2,2,0,0,1-4-.27Z"/><path class="f" d="M380.56,177.3a2,2,0,0,1,.15-2.23,27.79,27.79,0,0,0,3.68-6.3,2,2,0,0,1,3.69,1.54,31.79,31.79,0,0,1-4.21,7.22,2,2,0,0,1-2.81.35A1.84,1.84,0,0,1,380.56,177.3Z"/><path class="f" d="M353.12,129.14a2.13,2.13,0,0,1-.25-.76,2,2,0,0,1,1.74-2.23,32.42,32.42,0,0,1,8.35.06,2,2,0,1,1-.55,4,28.39,28.39,0,0,0-7.31,0A2,2,0,0,1,353.12,129.14Z"/><path class="f" d="M384.64,147.59a1.15,1.15,0,0,1-.12-.25,28.37,28.37,0,0,0-3.58-6.28,2,2,0,0,1,.37-2.83,2,2,0,0,1,2.77.35.61.61,0,0,1,.07.1,32.1,32.1,0,0,1,4.07,7.15,2,2,0,0,1-3.58,1.76Z"/><circle class="f" cx="358.58" cy="157.91" r="25"/><path class="b" d="M348.15,142.52h1.57c1.19,0,1.92.54,1.92,1.6s-.79,1.67-2,1.67h-.31v1.62h-1.21Zm1.5.92h-.3v1.44h.28c.54,0,.84-.24.84-.74S350.19,143.44,349.65,143.44Z"/><path class="b" d="M353.2,145.48v1.93h-1.07v-3.47h.94l.11.69a1.21,1.21,0,0,1,1-.76l.18,1.09A1.73,1.73,0,0,0,353.2,145.48Z"/><path class="b" d="M355.36,143.49a.58.58,0,1,1,.61-.58A.58.58,0,0,1,355.36,143.49Zm-.54,3.92v-3.47h1.08v3.47Z"/><path class="b" d="M358.61,147.42h-1.07L356.35,144l1.15-.14.64,2.19.62-2.14h1.05Z"/><path class="b" d="M362.05,147.41,362,147a1.44,1.44,0,0,1-1.09.5.88.88,0,0,1-.94-1c0-.82.62-1.2,2-1.32v-.06c0-.31-.17-.44-.52-.44a2.78,2.78,0,0,0-1.12.26l-.13-.81a3.69,3.69,0,0,1,1.41-.27c1,0,1.43.32,1.43,1.21v2.32Zm-.12-1.69c-.73.11-.92.35-.92.66a.31.31,0,0,0,.34.34.91.91,0,0,0,.58-.27Z"/><path class="b" d="M365.16,147.46c-.74,0-1.26-.27-1.26-1.15v-1.5h-.46v-.87h.46v-1l1.06-.17v1.2h.66l.13.87H365v1.33c0,.27.14.41.43.41a1.09,1.09,0,0,0,.26,0l.13.88A2.07,2.07,0,0,1,365.16,147.46Z"/><path class="b" d="M367.86,147.48a1.81,1.81,0,0,1-.15-3.61c1.07,0,1.54.79,1.54,1.8,0,.1,0,.22,0,.27h-2.1a.77.77,0,0,0,.86.76,2.26,2.26,0,0,0,1.14-.37l.1.76A2.49,2.49,0,0,1,367.86,147.48Zm-.72-2.12h1.09c0-.53-.22-.8-.54-.8S367.17,144.82,367.14,145.36Z"/><path class="b" d="M347.87,155.41a2.26,2.26,0,0,1-2.35-2.52,2.32,2.32,0,0,1,2.4-2.54,2.54,2.54,0,0,1,1.29.32l-.17,1.09a1.66,1.66,0,0,0-1.05-.4c-.77,0-1.25.58-1.25,1.52s.51,1.51,1.28,1.51a2,2,0,0,0,1.11-.37l.15,1A2.66,2.66,0,0,1,347.87,155.41Z"/><path class="b" d="M350.44,151.4a.58.58,0,1,1,.6-.57A.57.57,0,0,1,350.44,151.4Zm-.54,3.92v-3.47H351v3.47Z"/><path class="b" d="M353.18,155.37c-.74,0-1.26-.27-1.26-1.15v-1.5h-.46v-.87h.46v-1l1.06-.17v1.2h.66l.14.87H353v1.33c0,.27.14.41.43.41a1.09,1.09,0,0,0,.26,0l.13.88A2.07,2.07,0,0,1,353.18,155.37Z"/><path class="b" d="M354.86,151.4a.58.58,0,1,1,.61-.57A.57.57,0,0,1,354.86,151.4Zm-.54,3.92v-3.47h1.08v3.47Z"/><path class="b" d="M356,155.32v-.81l1.54-1.82h-1.35l-.13-.84h2.8v.82l-1.52,1.82h1.48l.13.83Z"/><path class="b" d="M361,155.39a1.81,1.81,0,0,1-.14-3.61c1.07,0,1.53.79,1.53,1.8a2.18,2.18,0,0,1,0,.28h-2.1a.77.77,0,0,0,.86.75,2.31,2.31,0,0,0,1.14-.36l.11.75A2.55,2.55,0,0,1,361,155.39Zm-.72-2.12h1.09c0-.53-.22-.8-.54-.8S360.29,152.73,360.26,153.27Z"/><path class="b" d="M365,155.32v-2.17c0-.25-.1-.42-.35-.42a.86.86,0,0,0-.59.31v2.28h-1.07v-3.47h.94l.08.48a1.54,1.54,0,0,1,1.09-.55c.64,0,1,.4,1,1.08v2.46Z"/><path class="b" d="M370.31,153.35v1.25h-.86v-1.25h-1.21v-.84h1.21v-1.25h.86v1.25h1.21v.84Z"/><path class="b" d="M346.12,158.35h1.57c1.19,0,1.92.53,1.92,1.59s-.79,1.67-2,1.67h-.31v1.62h-1.21Zm1.5.91h-.31v1.44h.29c.53,0,.83-.23.83-.74S348.16,159.26,347.62,159.26Z"/><path class="b" d="M351.17,161.31v1.92H350.1v-3.46H351l.12.68a1.24,1.24,0,0,1,1-.76l.18,1.1A1.69,1.69,0,0,0,351.17,161.31Z"/><path class="b" d="M354.19,163.31a1.64,1.64,0,0,1-1.66-1.8,1.68,1.68,0,1,1,1.66,1.8Zm0-2.74c-.41,0-.63.36-.63.93s.22.94.63.94.63-.37.63-.93S354.61,160.57,354.2,160.57Z"/><path class="b" d="M358.29,163.25h-1.07l-1.19-3.4,1.14-.13.65,2.18.62-2.13h1.05Z"/><path class="b" d="M360.47,159.31a.57.57,0,0,1-.61-.57.61.61,0,0,1,1.22,0A.56.56,0,0,1,360.47,159.31Zm-.54,3.92v-3.46H361v3.46Z"/><path class="b" d="M363.08,159.74a2.1,2.1,0,0,1,.73.12v-1.57l1.07-.17v5.11h-.95l-.07-.45a1.34,1.34,0,0,1-1,.53c-.7,0-1.25-.54-1.25-1.71S362.31,159.74,363.08,159.74Zm.14,2.62a.83.83,0,0,0,.59-.36v-1.32a1,1,0,0,0-.5-.1c-.35,0-.62.28-.62.94S362.91,162.36,363.22,162.36Z"/><path class="b" d="M367.23,163.31a1.81,1.81,0,0,1-.15-3.62c1.07,0,1.54.8,1.54,1.8a1.91,1.91,0,0,1,0,.28h-2.09a.77.77,0,0,0,.85.76,2.2,2.2,0,0,0,1.14-.37l.11.76A2.54,2.54,0,0,1,367.23,163.31Zm-.72-2.13h1.09c0-.52-.22-.79-.55-.79S366.53,160.64,366.51,161.18Z"/><path class="b" d="M370.26,161.31v1.92h-1.07v-3.46h.93l.12.68a1.24,1.24,0,0,1,1-.76l.17,1.1A1.68,1.68,0,0,0,370.26,161.31Z"/><path class="b" d="M344.3,171.15h-1.64v-4.89h1.66c1.12,0,1.67.48,1.67,1.27a1.08,1.08,0,0,1-.71,1,1.14,1.14,0,0,1,.89,1.18C346.17,170.68,345.46,171.15,344.3,171.15Zm-.06-4h-.43v1.11h.4c.45,0,.69-.22.69-.58S344.71,167.13,344.24,167.13Zm0,1.89h-.43v1.26h.44c.49,0,.77-.21.77-.63S344.76,169,344.24,169Z"/><path class="b" d="M346.8,171.15v-4.94l1.07-.17v5.11Z"/><path class="b" d="M350.12,171.22a1.81,1.81,0,1,1,1.68-1.81A1.66,1.66,0,0,1,350.12,171.22Zm0-2.74c-.41,0-.62.37-.62.93s.22.94.62.94.64-.37.64-.93S350.54,168.48,350.12,168.48Z"/><path class="b" d="M353.87,171.21a1.61,1.61,0,0,1-1.68-1.77,1.66,1.66,0,0,1,1.73-1.82,2.08,2.08,0,0,1,1,.26l-.14.92a1.37,1.37,0,0,0-.78-.26c-.44,0-.75.29-.75.87a.77.77,0,0,0,.78.88,1.37,1.37,0,0,0,.79-.26l.13.88A2,2,0,0,1,353.87,171.21Z"/><path class="b" d="M356.63,169.53v1.62h-1.07v-4.94l1.07-.17v3.05l.91-1.41h1.18l-1.11,1.59,1.13,1.77-1.12.16Z"/><path class="b" d="M360.58,171.21a1.61,1.61,0,0,1-1.68-1.77,1.66,1.66,0,0,1,1.73-1.82,2.12,2.12,0,0,1,1,.26l-.14.92a1.4,1.4,0,0,0-.78-.26c-.44,0-.75.29-.75.87s.34.88.78.88a1.39,1.39,0,0,0,.79-.26l.13.88A2.07,2.07,0,0,1,360.58,171.21Z"/><path class="b" d="M364.28,171.15V169c0-.25-.1-.41-.35-.41a.86.86,0,0,0-.59.31v2.28h-1.07v-4.94l1.07-.17v2.07a1.47,1.47,0,0,1,1-.5c.65,0,1,.39,1,1.07v2.47Z"/><path class="b" d="M368,171.15l-.07-.43a1.44,1.44,0,0,1-1.09.5.88.88,0,0,1-.94-1c0-.81.62-1.19,2-1.31v-.07c0-.3-.17-.44-.52-.44a2.63,2.63,0,0,0-1.12.27l-.13-.81a3.69,3.69,0,0,1,1.41-.27c1,0,1.43.32,1.43,1.2v2.33Zm-.12-1.7c-.73.12-.92.36-.92.66a.31.31,0,0,0,.33.34.89.89,0,0,0,.59-.26Z"/><path class="b" d="M370.22,167.22a.57.57,0,0,1-.61-.57.61.61,0,0,1,1.22,0A.57.57,0,0,1,370.22,167.22Zm-.54,3.93v-3.47h1.07v3.47Z"/><path class="b" d="M373.52,171.15V169c0-.25-.1-.41-.35-.41a.86.86,0,0,0-.59.31v2.28h-1.07v-3.47h.94l.08.47a1.51,1.51,0,0,1,1.08-.54c.65,0,1,.39,1,1.07v2.47Z"/><path class="f" d="M327.07,162.6a1.9,1.9,0,0,1-.25-.75,32.42,32.42,0,0,1,.06-8.35,2,2,0,0,1,4,.55,28,28,0,0,0-.06,7.31,2,2,0,0,1-1.74,2.23A2,2,0,0,1,327.07,162.6Z"/><path class="f" d="M325.36,177.09a2,2,0,0,1,.73-2.73l1.75-1a3.11,3.11,0,0,0,1.3-2.55s0-.27-.06-.76a2,2,0,1,1,4-.31c0,.42.06.65.06.66a7,7,0,0,1-3.28,6.42l-1.75,1A2,2,0,0,1,325.36,177.09Z"/><path class="f" d="M325.41,138.67a2,2,0,0,1,2.73-.73l1.75,1a3.11,3.11,0,0,0,2.86-.15s.21-.16.62-.43a2,2,0,1,1,2.26,3.29l-.54.38a7,7,0,0,1-7.2.37l-1.75-1A2,2,0,0,1,325.41,138.67Z"/><path class="e" d="M321.94,136.67a2,2,0,0,1-2.73.73l-.86-.5a2,2,0,1,1,2-3.46l.86.5A2,2,0,0,1,321.94,136.67Zm-7.79-4.5a2,2,0,0,1-2.73.73l-.87-.5a2,2,0,1,1,2-3.46l.87.5A2,2,0,0,1,314.15,132.17Zm-7.79-4.5a2,2,0,0,1-2.74.73l-.86-.5a2,2,0,1,1,2-3.46l.86.5A2,2,0,0,1,306.36,127.67Zm-7.8-4.5a2,2,0,0,1-2.73.73l-.87-.5a2,2,0,0,1,2-3.46l.87.5A2,2,0,0,1,298.56,123.17Zm-7.79-4.5a2,2,0,0,1-2.74.73l-.86-.5a2,2,0,1,1,2-3.46l.86.5A2,2,0,0,1,290.77,118.67Z"/><path class="d" d="M65.3,114a2,2,0,0,1-2.74.73l-1.74-1a3.11,3.11,0,0,0-2.86.14l-.62.44a2,2,0,0,1-2.27-3.3c.35-.23.54-.37.55-.38a7,7,0,0,1,7.2-.37l1.74,1A2,2,0,0,1,65.3,114Z"/><path class="d" d="M2.42,83.12a2.13,2.13,0,0,1,.16-.78,32.21,32.21,0,0,1,4.24-7.2A2,2,0,1,1,10,77.6a28.08,28.08,0,0,0-3.7,6.3,2,2,0,0,1-3.85-.78Z"/></svg>